<svg width="67" height="67" viewBox="0 0 67 67" fill="none" xmlns="http://www.w3.org/2000/svg">
<g clip-path="url(#clip0)">
<path d="M33.2801 59.4798C47.7499 59.4798 59.4801 47.7497 59.4801 33.2798C59.4801 18.81 47.7499 7.07983 33.2801 7.07983C18.8102 7.07983 7.08008 18.81 7.08008 33.2798C7.08008 47.7497 18.8102 59.4798 33.2801 59.4798Z" fill="white" stroke="#17479B" stroke-width="0.9921" stroke-miterlimit="10"/>
<path d="M42.3899 39.3599H25.4899L22.8999 42.2299V39.3599H19.3799V23.5399H42.3899V39.3599Z" stroke="#17479B" stroke-width="1.4173" stroke-miterlimit="10"/>
<path d="M24.1799 44.1498H41.0699L43.6699 47.0198V44.1498H47.1799V28.3298H44.4199" stroke="#17479B" stroke-width="1.4173" stroke-miterlimit="10"/>
<g opacity="0.5">
<path opacity="0.5" d="M33.28 7.08988C47.75 7.08988 59.48 18.8199 59.48 33.2899C59.48 47.7599 47.75 59.4899 33.28 59.4899C18.81 59.4899 7.08 47.7599 7.08 33.2899C7.08 18.8199 18.81 7.08988 33.28 7.08988ZM33.28 -0.00012207C14.93 -0.00012207 0 14.9299 0 33.2799C0 51.6299 14.93 66.5599 33.28 66.5599C51.63 66.5599 66.56 51.6299 66.56 33.2799C66.56 14.9299 51.63 -0.00012207 33.28 -0.00012207Z" fill="white"/>
</g>
</g>
<defs>
<clipPath id="clip0">
<rect width="66.56" height="66.56" fill="white" transform="translate(0 -0.00012207)"/>
</clipPath>
</defs>
</svg>
