<svg width="1137" height="773" viewBox="0 0 1137 773" fill="none" xmlns="http://www.w3.org/2000/svg">
<path d="M338.961 723.603C338.961 729.448 334.225 734.188 328.396 734.188C322.555 734.188 317.819 729.46 317.819 723.603C317.819 717.757 322.544 713.053 328.396 713.053C334.225 713.053 338.961 717.757 338.961 723.603Z" fill="#B9BBBD"/>
<path d="M306.561 723.603C306.561 729.448 301.837 734.188 295.996 734.188C290.155 734.188 285.419 729.46 285.419 723.603C285.419 717.757 290.155 713.053 295.996 713.053C301.837 713.053 306.561 717.757 306.561 723.603Z" fill="#B9BBBD"/>
<path d="M403.726 691.224C403.726 697.069 398.99 701.809 393.149 701.809C387.309 701.809 382.573 697.081 382.573 691.224C382.573 685.378 387.309 680.615 393.149 680.615C398.99 680.615 403.726 685.366 403.726 691.224Z" fill="#B9BBBD"/>
<path d="M371.338 691.224C371.338 697.069 366.625 701.809 360.773 701.809C354.92 701.809 350.196 697.081 350.196 691.224C350.196 685.378 354.92 680.615 360.773 680.615C366.625 680.603 371.338 685.366 371.338 691.224Z" fill="#B9BBBD"/>
<path d="M338.961 691.224C338.961 697.069 334.225 701.809 328.396 701.809C322.556 701.809 317.82 697.081 317.82 691.224C317.82 685.378 322.544 680.615 328.396 680.615C334.225 680.603 338.961 685.366 338.961 691.224Z" fill="#17479B"/>
<path d="M403.726 658.774C403.726 664.655 398.99 669.359 393.149 669.359C387.309 669.359 382.573 664.655 382.573 658.774C382.573 652.964 387.309 648.224 393.149 648.224C398.99 648.224 403.726 652.952 403.726 658.774Z" fill="#B9BBBD"/>
<path d="M371.338 658.774C371.338 664.655 366.625 669.359 360.773 669.359C354.92 669.359 350.196 664.655 350.196 658.774C350.196 652.964 354.92 648.224 360.773 648.224C366.625 648.224 371.338 652.952 371.338 658.774Z" fill="#B9BBBD"/>
<path d="M338.961 658.774C338.961 664.655 334.225 669.359 328.396 669.359C322.555 669.359 317.819 664.655 317.819 658.774C317.819 652.964 322.544 648.224 328.396 648.224C334.225 648.224 338.961 652.952 338.961 658.774Z" fill="#B9BBBD"/>
<path d="M468.503 626.407C468.503 632.217 463.767 636.957 457.914 636.957C452.085 636.957 447.349 632.229 447.349 626.407C447.349 620.526 452.085 615.798 457.914 615.798C463.767 615.798 468.503 620.538 468.503 626.407Z" fill="#17479B"/>
<path d="M436.115 626.407C436.115 632.217 431.39 636.957 425.55 636.957C419.709 636.957 414.973 632.229 414.973 626.407C414.973 620.526 419.697 615.798 425.55 615.798C431.39 615.798 436.115 620.538 436.115 626.407Z" fill="#B9BBBD"/>
<path d="M403.726 626.407C403.726 632.217 398.99 636.957 393.149 636.957C387.309 636.957 382.573 632.229 382.573 626.407C382.573 620.526 387.309 615.798 393.149 615.798C398.99 615.798 403.726 620.538 403.726 626.407Z" fill="#17479B"/>
<path d="M371.338 626.407C371.338 632.217 366.625 636.957 360.773 636.957C354.92 636.957 350.196 632.229 350.196 626.407C350.196 620.526 354.92 615.798 360.773 615.798C366.625 615.798 371.338 620.538 371.338 626.407Z" fill="#B9BBBD"/>
<path d="M338.961 626.407C338.961 632.217 334.225 636.957 328.396 636.957C322.555 636.957 317.819 632.229 317.819 626.407C317.819 620.526 322.544 615.798 328.396 615.798C334.225 615.798 338.961 620.538 338.961 626.407Z" fill="#B9BBBD"/>
<path d="M500.879 593.958C500.879 599.838 496.155 604.543 490.314 604.543C484.474 604.543 479.738 599.838 479.738 593.958C479.738 588.112 484.462 583.408 490.314 583.408C496.155 583.419 500.879 588.112 500.879 593.958Z" fill="#B9BBBD"/>
<path d="M468.503 593.958C468.503 599.838 463.767 604.543 457.914 604.543C452.085 604.543 447.349 599.838 447.349 593.958C447.349 588.112 452.085 583.408 457.914 583.408C463.767 583.419 468.503 588.112 468.503 593.958Z" fill="#B9BBBD"/>
<path d="M436.115 593.958C436.115 599.838 431.39 604.543 425.55 604.543C419.709 604.543 414.973 599.838 414.973 593.958C414.973 588.112 419.697 583.408 425.55 583.408C431.39 583.419 436.115 588.112 436.115 593.958Z" fill="#B9BBBD"/>
<path d="M403.726 593.958C403.726 599.838 398.99 604.543 393.149 604.543C387.309 604.543 382.573 599.838 382.573 593.958C382.573 588.112 387.309 583.408 393.149 583.408C398.99 583.408 403.726 588.112 403.726 593.958Z" fill="#B9BBBD"/>
<path d="M371.338 593.958C371.338 599.838 366.625 604.543 360.773 604.543C354.92 604.543 350.196 599.838 350.196 593.958C350.196 588.112 354.92 583.408 360.773 583.408C366.625 583.419 371.338 588.112 371.338 593.958Z" fill="#B9BBBD"/>
<path d="M338.961 593.958C338.961 599.838 334.225 604.543 328.396 604.543C322.555 604.543 317.819 599.838 317.819 593.958C317.819 588.112 322.544 583.408 328.396 583.408C334.225 583.419 338.961 588.112 338.961 593.958Z" fill="#B9BBBD"/>
<path d="M565.644 561.579C565.644 567.424 560.908 572.152 555.068 572.152C549.239 572.152 544.503 567.424 544.503 561.579C544.503 555.733 549.239 550.994 555.068 550.994C560.908 550.994 565.644 555.733 565.644 561.579Z" fill="#17479B"/>
<path d="M533.268 561.579C533.268 567.424 528.555 572.152 522.703 572.152C516.862 572.152 512.114 567.424 512.114 561.579C512.114 555.733 516.862 550.994 522.703 550.994C528.555 550.994 533.268 555.733 533.268 561.579Z" fill="#B9BBBD"/>
<path d="M500.879 561.579C500.879 567.424 496.155 572.152 490.314 572.152C484.474 572.152 479.738 567.424 479.738 561.579C479.738 555.733 484.462 550.994 490.314 550.994C496.155 550.994 500.879 555.733 500.879 561.579Z" fill="#B9BBBD"/>
<path d="M468.503 561.579C468.503 567.424 463.767 572.152 457.914 572.152C452.085 572.152 447.349 567.424 447.349 561.579C447.349 555.733 452.085 550.994 457.914 550.994C463.767 550.994 468.503 555.733 468.503 561.579Z" fill="#B9BBBD"/>
<path d="M436.115 561.579C436.115 567.424 431.39 572.152 425.55 572.152C419.709 572.152 414.973 567.424 414.973 561.579C414.973 555.733 419.697 550.994 425.55 550.994C431.39 550.994 436.115 555.733 436.115 561.579Z" fill="#B9BBBD"/>
<path d="M403.726 561.579C403.726 567.424 398.99 572.152 393.149 572.152C387.309 572.152 382.573 567.424 382.573 561.579C382.573 555.733 387.309 550.994 393.149 550.994C398.99 550.994 403.726 555.733 403.726 561.579Z" fill="#17479B"/>
<path d="M371.338 561.579C371.338 567.424 366.625 572.152 360.773 572.152C354.92 572.152 350.196 567.424 350.196 561.579C350.196 555.733 354.92 550.994 360.773 550.994C366.625 550.994 371.338 555.733 371.338 561.579Z" fill="#B9BBBD"/>
<path d="M338.961 561.579C338.961 567.424 334.225 572.152 328.396 572.152C322.555 572.152 317.819 567.424 317.819 561.579C317.819 555.733 322.544 550.994 328.396 550.994C334.225 550.994 338.961 555.733 338.961 561.579Z" fill="#17479B"/>
<path d="M565.644 529.153C565.644 534.998 560.908 539.726 555.068 539.726C549.239 539.726 544.503 534.998 544.503 529.153C544.503 523.308 549.239 518.603 555.068 518.603C560.908 518.603 565.644 523.308 565.644 529.153Z" fill="#B9BBBD"/>
<path d="M533.268 529.153C533.268 534.998 528.555 539.726 522.703 539.726C516.862 539.726 512.114 534.998 512.114 529.153C512.114 523.308 516.862 518.603 522.703 518.603C528.555 518.603 533.268 523.308 533.268 529.153Z" fill="#B9BBBD"/>
<path d="M500.879 529.153C500.879 534.998 496.155 539.726 490.314 539.726C484.474 539.726 479.738 534.998 479.738 529.153C479.738 523.308 484.462 518.603 490.314 518.603C496.155 518.603 500.879 523.308 500.879 529.153Z" fill="#17479B"/>
<path d="M468.503 529.153C468.503 534.998 463.767 539.726 457.914 539.726C452.085 539.726 447.349 534.998 447.349 529.153C447.349 523.308 452.085 518.603 457.914 518.603C463.767 518.603 468.503 523.308 468.503 529.153Z" fill="#B9BBBD"/>
<path d="M436.115 529.153C436.115 534.998 431.39 539.726 425.55 539.726C419.709 539.726 414.973 534.998 414.973 529.153C414.973 523.308 419.697 518.603 425.55 518.603C431.39 518.603 436.115 523.308 436.115 529.153Z" fill="#B9BBBD"/>
<path d="M403.726 529.153C403.726 534.998 398.99 539.726 393.149 539.726C387.309 539.726 382.573 534.998 382.573 529.153C382.573 523.308 387.309 518.603 393.149 518.603C398.99 518.603 403.726 523.308 403.726 529.153Z" fill="#B9BBBD"/>
<path d="M371.338 529.153C371.338 534.998 366.625 539.726 360.773 539.726C354.92 539.726 350.196 534.998 350.196 529.153C350.196 523.308 354.92 518.603 360.773 518.603C366.625 518.603 371.338 523.308 371.338 529.153Z" fill="#B9BBBD"/>
<path d="M565.644 496.774C565.644 502.619 560.908 507.347 555.068 507.347C549.239 507.347 544.503 502.619 544.503 496.774C544.503 490.893 549.239 486.165 555.068 486.165C560.908 486.153 565.644 490.893 565.644 496.774Z" fill="#17479B"/>
<path d="M533.268 496.774C533.268 502.619 528.555 507.347 522.703 507.347C516.862 507.347 512.114 502.619 512.114 496.774C512.114 490.893 516.862 486.165 522.703 486.165C528.555 486.153 533.268 490.893 533.268 496.774Z" fill="#B9BBBD"/>
<path d="M500.879 496.774C500.879 502.619 496.155 507.347 490.314 507.347C484.474 507.347 479.738 502.619 479.738 496.774C479.738 490.893 484.462 486.165 490.314 486.165C496.155 486.153 500.879 490.893 500.879 496.774Z" fill="#B9BBBD"/>
<path d="M468.503 496.774C468.503 502.619 463.767 507.347 457.914 507.347C452.085 507.347 447.349 502.619 447.349 496.774C447.349 490.893 452.085 486.165 457.914 486.165C463.767 486.153 468.503 490.893 468.503 496.774Z" fill="#B9BBBD"/>
<path d="M436.115 496.774C436.115 502.619 431.39 507.347 425.55 507.347C419.709 507.347 414.973 502.619 414.973 496.774C414.973 490.893 419.697 486.165 425.55 486.165C431.39 486.153 436.115 490.893 436.115 496.774Z" fill="#B9BBBD"/>
<path d="M403.726 496.774C403.726 502.619 398.99 507.347 393.149 507.347C387.309 507.347 382.573 502.619 382.573 496.774C382.573 490.893 387.309 486.165 393.149 486.165C398.99 486.165 403.726 490.893 403.726 496.774Z" fill="#17479B"/>
<path d="M371.338 496.774C371.338 502.619 366.625 507.347 360.773 507.347C354.92 507.347 350.196 502.619 350.196 496.774C350.196 490.893 354.92 486.165 360.773 486.165C366.625 486.153 371.338 490.893 371.338 496.774Z" fill="#B9BBBD"/>
<path d="M338.961 496.774C338.961 502.619 334.225 507.347 328.396 507.347C322.555 507.347 317.819 502.619 317.819 496.774C317.819 490.893 322.544 486.165 328.396 486.165C334.225 486.153 338.961 490.893 338.961 496.774Z" fill="#B9BBBD"/>
<path d="M306.561 496.774C306.561 502.619 301.837 507.347 295.996 507.347C290.155 507.347 285.419 502.619 285.419 496.774C285.419 490.893 290.155 486.165 295.996 486.165C301.837 486.153 306.561 490.893 306.561 496.774Z" fill="#B9BBBD"/>
<path d="M209.431 496.774C209.431 502.619 204.707 507.347 198.855 507.347C193.014 507.347 188.278 502.619 188.278 496.774C188.278 490.893 193.002 486.165 198.855 486.165C204.695 486.153 209.431 490.893 209.431 496.774Z" fill="#B9BBBD"/>
<path d="M662.809 464.348C662.809 470.193 658.085 474.921 652.244 474.921C646.404 474.921 641.679 470.193 641.679 464.348C641.679 458.503 646.404 453.763 652.244 453.763C658.073 453.774 662.809 458.503 662.809 464.348Z" fill="#B9BBBD"/>
<path d="M598.044 464.348C598.044 470.193 593.32 474.921 587.479 474.921C581.627 474.921 576.891 470.193 576.891 464.348C576.891 458.503 581.615 453.763 587.479 453.763C593.308 453.774 598.044 458.503 598.044 464.348Z" fill="#B9BBBD"/>
<path d="M565.644 464.348C565.644 470.193 560.908 474.921 555.068 474.921C549.239 474.921 544.503 470.193 544.503 464.348C544.503 458.503 549.239 453.763 555.068 453.763C560.908 453.774 565.644 458.503 565.644 464.348Z" fill="#B9BBBD"/>
<path d="M533.268 464.348C533.268 470.193 528.555 474.921 522.703 474.921C516.862 474.921 512.114 470.193 512.114 464.348C512.114 458.503 516.862 453.763 522.703 453.763C528.555 453.774 533.268 458.503 533.268 464.348Z" fill="#B9BBBD"/>
<path d="M500.879 464.348C500.879 470.193 496.155 474.921 490.314 474.921C484.474 474.921 479.738 470.193 479.738 464.348C479.738 458.503 484.462 453.763 490.314 453.763C496.155 453.774 500.879 458.503 500.879 464.348Z" fill="#B9BBBD"/>
<path d="M468.503 464.348C468.503 470.193 463.767 474.921 457.914 474.921C452.085 474.921 447.349 470.193 447.349 464.348C447.349 458.503 452.085 453.763 457.914 453.763C463.767 453.774 468.503 458.503 468.503 464.348Z" fill="#17479B"/>
<path d="M436.115 464.348C436.115 470.193 431.39 474.921 425.55 474.921C419.709 474.921 414.973 470.193 414.973 464.348C414.973 458.503 419.697 453.763 425.55 453.763C431.39 453.774 436.115 458.503 436.115 464.348Z" fill="#B9BBBD"/>
<path d="M403.726 464.348C403.726 470.193 398.99 474.921 393.149 474.921C387.309 474.921 382.573 470.193 382.573 464.348C382.573 458.503 387.309 453.763 393.149 453.763C398.99 453.763 403.726 458.503 403.726 464.348Z" fill="#B9BBBD"/>
<path d="M371.338 464.348C371.338 470.193 366.625 474.921 360.773 474.921C354.92 474.921 350.196 470.193 350.196 464.348C350.196 458.503 354.92 453.763 360.773 453.763C366.625 453.774 371.338 458.503 371.338 464.348Z" fill="#17479B"/>
<path d="M338.961 464.348C338.961 470.193 334.225 474.921 328.396 474.921C322.555 474.921 317.819 470.193 317.819 464.348C317.819 458.503 322.544 453.763 328.396 453.763C334.225 453.774 338.961 458.503 338.961 464.348Z" fill="#B9BBBD"/>
<path d="M306.561 464.348C306.561 470.193 301.837 474.921 295.996 474.921C290.155 474.921 285.419 470.193 285.419 464.348C285.419 458.503 290.155 453.763 295.996 453.763C301.837 453.774 306.561 458.503 306.561 464.348Z" fill="#B9BBBD"/>
<path d="M209.431 464.348C209.431 470.193 204.707 474.921 198.855 474.921C193.014 474.921 188.278 470.193 188.278 464.348C188.278 458.503 193.002 453.763 198.855 453.763C204.695 453.774 209.431 458.503 209.431 464.348Z" fill="#B9BBBD"/>
<path d="M727.574 431.934C727.574 437.814 722.838 442.507 717.009 442.507C711.169 442.507 706.433 437.803 706.433 431.934C706.433 426.088 711.157 421.349 717.009 421.349C722.838 421.349 727.574 426.088 727.574 431.934Z" fill="#B9BBBD"/>
<path d="M695.186 431.934C695.186 437.814 690.45 442.507 684.621 442.507C678.768 442.507 674.021 437.803 674.021 431.934C674.021 426.088 678.757 421.349 684.621 421.349C690.45 421.349 695.186 426.088 695.186 431.934Z" fill="#B9BBBD"/>
<path d="M662.809 431.934C662.809 437.814 658.085 442.507 652.244 442.507C646.404 442.507 641.679 437.803 641.679 431.934C641.679 426.088 646.404 421.349 652.244 421.349C658.073 421.349 662.809 426.088 662.809 431.934Z" fill="#17479B"/>
<path d="M630.409 431.934C630.409 437.814 625.685 442.507 619.832 442.507C614.003 442.507 609.256 437.803 609.256 431.934C609.256 426.088 613.992 421.349 619.832 421.349C625.685 421.349 630.409 426.088 630.409 431.934Z" fill="#B9BBBD"/>
<path d="M598.044 431.934C598.044 437.814 593.32 442.507 587.479 442.507C581.627 442.507 576.891 437.803 576.891 431.934C576.891 426.088 581.615 421.349 587.479 421.349C593.308 421.349 598.044 426.088 598.044 431.934Z" fill="#B9BBBD"/>
<path d="M565.644 431.934C565.644 437.814 560.908 442.507 555.068 442.507C549.239 442.507 544.503 437.803 544.503 431.934C544.503 426.088 549.239 421.349 555.068 421.349C560.908 421.349 565.644 426.088 565.644 431.934Z" fill="#B9BBBD"/>
<path d="M533.268 431.934C533.268 437.814 528.555 442.507 522.703 442.507C516.862 442.507 512.114 437.803 512.114 431.934C512.114 426.088 516.862 421.349 522.703 421.349C528.555 421.349 533.268 426.088 533.268 431.934Z" fill="#17479B"/>
<path d="M500.879 431.934C500.879 437.814 496.155 442.507 490.314 442.507C484.474 442.507 479.738 437.803 479.738 431.934C479.738 426.088 484.462 421.349 490.314 421.349C496.155 421.349 500.879 426.088 500.879 431.934Z" fill="#B9BBBD"/>
<path d="M468.503 431.934C468.503 437.814 463.767 442.507 457.914 442.507C452.085 442.507 447.349 437.803 447.349 431.934C447.349 426.088 452.085 421.349 457.914 421.349C463.767 421.349 468.503 426.088 468.503 431.934Z" fill="#B9BBBD"/>
<path d="M436.115 431.934C436.115 437.814 431.39 442.507 425.55 442.507C419.709 442.507 414.973 437.803 414.973 431.934C414.973 426.088 419.697 421.349 425.55 421.349C431.39 421.349 436.115 426.088 436.115 431.934Z" fill="#17479B"/>
<path d="M403.726 431.934C403.726 437.814 398.99 442.507 393.149 442.507C387.309 442.507 382.573 437.803 382.573 431.934C382.573 426.088 387.309 421.349 393.149 421.349C398.99 421.349 403.726 426.088 403.726 431.934Z" fill="#B9BBBD"/>
<path d="M371.338 431.934C371.338 437.814 366.625 442.507 360.773 442.507C354.92 442.507 350.196 437.803 350.196 431.934C350.196 426.088 354.92 421.349 360.773 421.349C366.625 421.349 371.338 426.088 371.338 431.934Z" fill="#B9BBBD"/>
<path d="M759.951 399.508C759.951 405.353 755.238 410.081 749.386 410.081C743.533 410.081 738.797 405.353 738.797 399.508C738.797 393.698 743.533 388.958 749.386 388.958C755.238 388.958 759.951 393.698 759.951 399.508Z" fill="#B9BBBD"/>
<path d="M727.574 399.508C727.574 405.353 722.838 410.081 717.009 410.081C711.169 410.081 706.433 405.353 706.433 399.508C706.433 393.698 711.157 388.958 717.009 388.958C722.838 388.958 727.574 393.698 727.574 399.508Z" fill="#B9BBBD"/>
<path d="M695.186 399.508C695.186 405.353 690.45 410.081 684.621 410.081C678.768 410.081 674.021 405.353 674.021 399.508C674.021 393.698 678.757 388.958 684.621 388.958C690.45 388.958 695.186 393.698 695.186 399.508Z" fill="#B9BBBD"/>
<path d="M662.809 399.508C662.809 405.353 658.085 410.081 652.244 410.081C646.404 410.081 641.679 405.353 641.679 399.508C641.679 393.698 646.404 388.958 652.244 388.958C658.073 388.958 662.809 393.698 662.809 399.508Z" fill="#B9BBBD"/>
<path d="M630.409 399.508C630.409 405.353 625.685 410.081 619.832 410.081C614.003 410.081 609.256 405.353 609.256 399.508C609.256 393.698 613.992 388.958 619.832 388.958C625.685 388.958 630.409 393.698 630.409 399.508Z" fill="#B9BBBD"/>
<path d="M598.044 399.508C598.044 405.353 593.32 410.081 587.479 410.081C581.627 410.081 576.891 405.353 576.891 399.508C576.891 393.698 581.615 388.958 587.479 388.958C593.308 388.958 598.044 393.698 598.044 399.508Z" fill="#B9BBBD"/>
<path d="M565.644 399.508C565.644 405.353 560.908 410.081 555.068 410.081C549.239 410.081 544.503 405.353 544.503 399.508C544.503 393.698 549.239 388.958 555.068 388.958C560.908 388.958 565.644 393.698 565.644 399.508Z" fill="#B9BBBD"/>
<path d="M533.268 399.508C533.268 405.353 528.555 410.081 522.703 410.081C516.862 410.081 512.114 405.353 512.114 399.508C512.114 393.698 516.862 388.958 522.703 388.958C528.555 388.958 533.268 393.698 533.268 399.508Z" fill="#B9BBBD"/>
<path d="M468.503 399.508C468.503 405.353 463.767 410.081 457.914 410.081C452.085 410.081 447.349 405.353 447.349 399.508C447.349 393.698 452.085 388.958 457.914 388.958C463.767 388.958 468.503 393.698 468.503 399.508Z" fill="#B9BBBD"/>
<path d="M436.115 399.508C436.115 405.353 431.39 410.081 425.55 410.081C419.709 410.081 414.973 405.353 414.973 399.508C414.973 393.698 419.697 388.958 425.55 388.958C431.39 388.958 436.115 393.698 436.115 399.508Z" fill="#B9BBBD"/>
<path d="M403.726 399.508C403.726 405.353 398.99 410.081 393.149 410.081C387.309 410.081 382.573 405.353 382.573 399.508C382.573 393.698 387.309 388.958 393.149 388.958C398.99 388.958 403.726 393.698 403.726 399.508Z" fill="#B9BBBD"/>
<path d="M371.338 399.508C371.338 405.353 366.625 410.081 360.773 410.081C354.92 410.081 350.196 405.353 350.196 399.508C350.196 393.698 354.92 388.958 360.773 388.958C366.625 388.958 371.338 393.698 371.338 399.508Z" fill="#B9BBBD"/>
<path d="M824.716 367.129C824.716 372.974 820.003 377.714 814.163 377.714C808.287 377.714 803.551 372.986 803.551 367.129C803.551 361.248 808.287 356.544 814.163 356.544C820.003 356.544 824.716 361.248 824.716 367.129Z" fill="#B9BBBD"/>
<path d="M781.762 377.714C787.604 377.714 792.339 372.975 792.339 367.129C792.339 361.283 787.604 356.544 781.762 356.544C775.921 356.544 771.186 361.283 771.186 367.129C771.186 372.975 775.921 377.714 781.762 377.714Z" fill="#B9BBBD"/>
<path d="M759.951 367.129C759.951 372.974 755.238 377.714 749.386 377.714C743.533 377.714 738.797 372.986 738.797 367.129C738.797 361.248 743.533 356.544 749.386 356.544C755.238 356.544 759.951 361.248 759.951 367.129Z" fill="#B9BBBD"/>
<path d="M727.574 367.129C727.574 372.974 722.838 377.714 717.009 377.714C711.169 377.714 706.433 372.986 706.433 367.129C706.433 361.248 711.157 356.544 717.009 356.544C722.838 356.544 727.574 361.248 727.574 367.129Z" fill="#B9BBBD"/>
<path d="M695.186 367.129C695.186 372.974 690.45 377.714 684.621 377.714C678.768 377.714 674.021 372.986 674.021 367.129C674.021 361.248 678.757 356.544 684.621 356.544C690.45 356.544 695.186 361.248 695.186 367.129Z" fill="#B9BBBD"/>
<path d="M662.809 367.129C662.809 372.974 658.085 377.714 652.244 377.714C646.404 377.714 641.679 372.986 641.679 367.129C641.679 361.248 646.404 356.544 652.244 356.544C658.073 356.544 662.809 361.248 662.809 367.129Z" fill="#17479B"/>
<path d="M619.844 377.714C625.686 377.714 630.421 372.975 630.421 367.129C630.421 361.283 625.686 356.544 619.844 356.544C614.003 356.544 609.268 361.283 609.268 367.129C609.268 372.975 614.003 377.714 619.844 377.714Z" fill="#B9BBBD"/>
<path d="M598.044 367.129C598.044 372.974 593.32 377.714 587.479 377.714C581.627 377.714 576.891 372.986 576.891 367.129C576.891 361.248 581.615 356.544 587.479 356.544C593.308 356.544 598.044 361.248 598.044 367.129Z" fill="#B9BBBD"/>
<path d="M565.644 367.129C565.644 372.974 560.908 377.714 555.068 377.714C549.239 377.714 544.503 372.986 544.503 367.129C544.503 361.248 549.239 356.544 555.068 356.544C560.908 356.544 565.644 361.248 565.644 367.129Z" fill="#B9BBBD"/>
<path d="M533.268 367.129C533.268 372.974 528.555 377.714 522.703 377.714C516.862 377.714 512.114 372.986 512.114 367.129C512.114 361.248 516.862 356.544 522.703 356.544C528.555 356.544 533.268 361.248 533.268 367.129Z" fill="#B9BBBD"/>
<path d="M500.879 367.129C500.879 372.974 496.155 377.714 490.314 377.714C484.474 377.714 479.738 372.986 479.738 367.129C479.738 361.248 484.462 356.544 490.314 356.544C496.155 356.544 500.879 361.248 500.879 367.129Z" fill="#B9BBBD"/>
<path d="M889.492 334.68C889.492 340.56 884.768 345.288 878.916 345.288C873.075 345.288 868.339 340.56 868.339 334.68C868.339 328.87 873.063 324.13 878.916 324.13C884.768 324.13 889.492 328.858 889.492 334.68Z" fill="#B9BBBD"/>
<path d="M857.104 334.68C857.104 340.56 852.368 345.288 846.539 345.288C840.71 345.288 835.962 340.56 835.962 334.68C835.962 328.87 840.698 324.13 846.539 324.13C852.368 324.13 857.104 328.858 857.104 334.68Z" fill="#B9BBBD"/>
<path d="M824.716 334.68C824.716 340.56 820.003 345.288 814.163 345.288C808.287 345.288 803.551 340.56 803.551 334.68C803.551 328.87 808.287 324.13 814.163 324.13C820.003 324.13 824.716 328.858 824.716 334.68Z" fill="#B9BBBD"/>
<path d="M792.339 334.68C792.339 340.56 787.603 345.288 781.762 345.288C775.933 345.288 771.186 340.56 771.186 334.68C771.186 328.87 775.922 324.13 781.762 324.13C787.603 324.13 792.339 328.858 792.339 334.68Z" fill="#17479B"/>
<path d="M759.951 334.68C759.951 340.56 755.238 345.288 749.386 345.288C743.533 345.288 738.797 340.56 738.797 334.68C738.797 328.87 743.533 324.13 749.386 324.13C755.238 324.13 759.951 328.858 759.951 334.68Z" fill="#B9BBBD"/>
<path d="M727.574 334.68C727.574 340.56 722.838 345.288 717.009 345.288C711.169 345.288 706.433 340.56 706.433 334.68C706.433 328.87 711.157 324.13 717.009 324.13C722.838 324.13 727.574 328.858 727.574 334.68Z" fill="#B9BBBD"/>
<path d="M695.186 334.68C695.186 340.56 690.45 345.288 684.621 345.288C678.768 345.288 674.021 340.56 674.021 334.68C674.021 328.87 678.757 324.13 684.621 324.13C690.45 324.13 695.186 328.858 695.186 334.68Z" fill="#B9BBBD"/>
<path d="M662.809 334.68C662.809 340.56 658.085 345.288 652.244 345.288C646.404 345.288 641.679 340.56 641.679 334.68C641.679 328.87 646.404 324.13 652.244 324.13C658.073 324.13 662.809 328.858 662.809 334.68Z" fill="#B9BBBD"/>
<path d="M630.409 334.68C630.409 340.56 625.685 345.288 619.832 345.288C614.003 345.288 609.256 340.56 609.256 334.68C609.256 328.87 613.992 324.13 619.832 324.13C625.685 324.13 630.409 328.858 630.409 334.68Z" fill="#B9BBBD"/>
<path d="M598.044 334.68C598.044 340.56 593.32 345.288 587.479 345.288C581.627 345.288 576.891 340.56 576.891 334.68C576.891 328.87 581.615 324.13 587.479 324.13C593.308 324.13 598.044 328.858 598.044 334.68Z" fill="#B9BBBD"/>
<path d="M565.644 334.68C565.644 340.56 560.908 345.288 555.068 345.288C549.239 345.288 544.503 340.56 544.503 334.68C544.503 328.87 549.239 324.13 555.068 324.13C560.908 324.13 565.644 328.858 565.644 334.68Z" fill="#17479B"/>
<path d="M533.268 334.68C533.268 340.56 528.555 345.288 522.703 345.288C516.862 345.288 512.114 340.56 512.114 334.68C512.114 328.87 516.862 324.13 522.703 324.13C528.555 324.13 533.268 328.858 533.268 334.68Z" fill="#B9BBBD"/>
<path d="M500.879 334.68C500.879 340.56 496.155 345.288 490.314 345.288C484.474 345.288 479.738 340.56 479.738 334.68C479.738 328.87 484.462 324.13 490.314 324.13C496.155 324.13 500.879 328.858 500.879 334.68Z" fill="#B9BBBD"/>
<path d="M468.503 334.68C468.503 340.56 463.767 345.288 457.914 345.288C452.085 345.288 447.349 340.56 447.349 334.68C447.349 328.87 452.085 324.13 457.914 324.13C463.767 324.13 468.503 328.858 468.503 334.68Z" fill="#B9BBBD"/>
<path d="M889.492 302.289C889.492 308.17 884.768 312.874 878.916 312.874C873.075 312.874 868.339 308.17 868.339 302.289C868.339 296.444 873.063 291.704 878.916 291.704C884.768 291.704 889.492 296.444 889.492 302.289Z" fill="#B9BBBD"/>
<path d="M857.104 302.289C857.104 308.17 852.368 312.874 846.539 312.874C840.71 312.874 835.962 308.17 835.962 302.289C835.962 296.444 840.698 291.704 846.539 291.704C852.368 291.704 857.104 296.444 857.104 302.289Z" fill="#B9BBBD"/>
<path d="M824.716 302.289C824.716 308.17 820.003 312.874 814.163 312.874C808.287 312.874 803.551 308.17 803.551 302.289C803.551 296.444 808.287 291.704 814.163 291.704C820.003 291.704 824.716 296.444 824.716 302.289Z" fill="#B9BBBD"/>
<path d="M781.762 312.874C787.604 312.874 792.339 308.135 792.339 302.289C792.339 296.443 787.604 291.704 781.762 291.704C775.921 291.704 771.186 296.443 771.186 302.289C771.186 308.135 775.921 312.874 781.762 312.874Z" fill="#B9BBBD"/>
<path d="M759.951 302.289C759.951 308.17 755.238 312.874 749.386 312.874C743.533 312.874 738.797 308.17 738.797 302.289C738.797 296.444 743.533 291.704 749.386 291.704C755.238 291.704 759.951 296.444 759.951 302.289Z" fill="#B9BBBD"/>
<path d="M727.574 302.289C727.574 308.17 722.838 312.874 717.009 312.874C711.169 312.874 706.433 308.17 706.433 302.289C706.433 296.444 711.157 291.704 717.009 291.704C722.838 291.704 727.574 296.444 727.574 302.289Z" fill="#B9BBBD"/>
<path d="M695.186 302.289C695.186 308.17 690.45 312.874 684.621 312.874C678.768 312.874 674.021 308.17 674.021 302.289C674.021 296.444 678.757 291.704 684.621 291.704C690.45 291.704 695.186 296.444 695.186 302.289Z" fill="#B9BBBD"/>
<path d="M662.809 302.289C662.809 308.17 658.085 312.874 652.244 312.874C646.404 312.874 641.679 308.17 641.679 302.289C641.679 296.444 646.404 291.704 652.244 291.704C658.073 291.704 662.809 296.444 662.809 302.289Z" fill="#B9BBBD"/>
<path d="M619.844 312.874C625.686 312.874 630.421 308.135 630.421 302.289C630.421 296.443 625.686 291.704 619.844 291.704C614.003 291.704 609.268 296.443 609.268 302.289C609.268 308.135 614.003 312.874 619.844 312.874Z" fill="#B9BBBD"/>
<path d="M598.044 302.289C598.044 308.17 593.32 312.874 587.479 312.874C581.627 312.874 576.891 308.17 576.891 302.289C576.891 296.444 581.615 291.704 587.479 291.704C593.308 291.704 598.044 296.444 598.044 302.289Z" fill="#B9BBBD"/>
<path d="M565.644 302.289C565.644 308.17 560.908 312.874 555.068 312.874C549.239 312.874 544.503 308.17 544.503 302.289C544.503 296.444 549.239 291.704 555.068 291.704C560.908 291.704 565.644 296.444 565.644 302.289Z" fill="#B9BBBD"/>
<path d="M533.268 302.289C533.268 308.17 528.555 312.874 522.703 312.874C516.862 312.874 512.114 308.17 512.114 302.289C512.114 296.444 516.862 291.704 522.703 291.704C528.555 291.704 533.268 296.444 533.268 302.289Z" fill="#B9BBBD"/>
<path d="M500.879 302.289C500.879 308.17 496.155 312.874 490.314 312.874C484.474 312.874 479.738 308.17 479.738 302.289C479.738 296.444 484.462 291.704 490.314 291.704C496.155 291.704 500.879 296.444 500.879 302.289Z" fill="#17479B"/>
<path d="M468.503 302.289C468.503 308.17 463.767 312.874 457.914 312.874C452.085 312.874 447.349 308.17 447.349 302.289C447.349 296.444 452.085 291.704 457.914 291.704C463.767 291.704 468.503 296.444 468.503 302.289Z" fill="#B9BBBD"/>
<path d="M921.869 269.863C921.869 275.709 917.145 280.449 911.304 280.449C905.463 280.449 900.727 275.72 900.727 269.863C900.727 264.018 905.463 259.313 911.304 259.313C917.145 259.325 921.869 264.018 921.869 269.863Z" fill="#B9BBBD"/>
<path d="M889.492 269.863C889.492 275.709 884.768 280.449 878.916 280.449C873.075 280.449 868.339 275.72 868.339 269.863C868.339 264.018 873.063 259.313 878.916 259.313C884.768 259.325 889.492 264.018 889.492 269.863Z" fill="#B9BBBD"/>
<path d="M857.104 269.863C857.104 275.709 852.368 280.449 846.539 280.449C840.71 280.449 835.962 275.72 835.962 269.863C835.962 264.018 840.698 259.313 846.539 259.313C852.368 259.325 857.104 264.018 857.104 269.863Z" fill="#B9BBBD"/>
<path d="M824.716 269.863C824.716 275.709 820.003 280.449 814.163 280.449C808.287 280.449 803.551 275.72 803.551 269.863C803.551 264.018 808.287 259.313 814.163 259.313C820.003 259.325 824.716 264.018 824.716 269.863Z" fill="#B9BBBD"/>
<path d="M792.339 269.863C792.339 275.709 787.603 280.449 781.762 280.449C775.933 280.449 771.186 275.72 771.186 269.863C771.186 264.018 775.922 259.313 781.762 259.313C787.603 259.325 792.339 264.018 792.339 269.863Z" fill="#17479B"/>
<path d="M759.951 269.863C759.951 275.709 755.238 280.449 749.386 280.449C743.533 280.449 738.797 275.72 738.797 269.863C738.797 264.018 743.533 259.313 749.386 259.313C755.238 259.325 759.951 264.018 759.951 269.863Z" fill="#B9BBBD"/>
<path d="M727.574 269.863C727.574 275.709 722.838 280.449 717.009 280.449C711.169 280.449 706.433 275.72 706.433 269.863C706.433 264.018 711.157 259.313 717.009 259.313C722.838 259.325 727.574 264.018 727.574 269.863Z" fill="#B9BBBD"/>
<path d="M695.186 269.863C695.186 275.709 690.45 280.449 684.621 280.449C678.768 280.449 674.021 275.72 674.021 269.863C674.021 264.018 678.757 259.313 684.621 259.313C690.45 259.325 695.186 264.018 695.186 269.863Z" fill="#B9BBBD"/>
<path d="M662.809 269.863C662.809 275.709 658.085 280.449 652.244 280.449C646.404 280.449 641.679 275.72 641.679 269.863C641.679 264.018 646.404 259.313 652.244 259.313C658.073 259.325 662.809 264.018 662.809 269.863Z" fill="#B9BBBD"/>
<path d="M630.409 269.863C630.409 275.709 625.685 280.449 619.832 280.449C614.003 280.449 609.256 275.72 609.256 269.863C609.256 264.018 613.992 259.313 619.832 259.313C625.685 259.325 630.409 264.018 630.409 269.863Z" fill="#17479B"/>
<path d="M598.044 269.863C598.044 275.709 593.32 280.449 587.479 280.449C581.627 280.449 576.891 275.72 576.891 269.863C576.891 264.018 581.615 259.313 587.479 259.313C593.308 259.325 598.044 264.018 598.044 269.863Z" fill="#B9BBBD"/>
<path d="M565.644 269.863C565.644 275.709 560.908 280.449 555.068 280.449C549.239 280.449 544.503 275.72 544.503 269.863C544.503 264.018 549.239 259.313 555.068 259.313C560.908 259.325 565.644 264.018 565.644 269.863Z" fill="#B9BBBD"/>
<path d="M500.879 269.863C500.879 275.709 496.155 280.449 490.314 280.449C484.474 280.449 479.738 275.72 479.738 269.863C479.738 264.018 484.462 259.313 490.314 259.313C496.155 259.325 500.879 264.018 500.879 269.863Z" fill="#B9BBBD"/>
<path d="M921.869 237.449C921.869 243.33 917.145 248.058 911.304 248.058C905.463 248.058 900.727 243.33 900.727 237.449C900.727 231.604 905.463 226.864 911.304 226.864C917.145 226.864 921.869 231.604 921.869 237.449Z" fill="#B9BBBD"/>
<path d="M889.492 237.449C889.492 243.33 884.768 248.058 878.916 248.058C873.075 248.058 868.339 243.33 868.339 237.449C868.339 231.604 873.063 226.864 878.916 226.864C884.768 226.864 889.492 231.604 889.492 237.449Z" fill="#17479B"/>
<path d="M857.104 237.449C857.104 243.33 852.368 248.058 846.539 248.058C840.71 248.058 835.962 243.33 835.962 237.449C835.962 231.604 840.698 226.864 846.539 226.864C852.368 226.864 857.104 231.604 857.104 237.449Z" fill="#B9BBBD"/>
<path d="M824.716 237.449C824.716 243.33 820.003 248.058 814.163 248.058C808.287 248.058 803.551 243.33 803.551 237.449C803.551 231.604 808.287 226.864 814.163 226.864C820.003 226.864 824.716 231.604 824.716 237.449Z" fill="#B9BBBD"/>
<path d="M792.339 237.449C792.339 243.33 787.603 248.058 781.762 248.058C775.933 248.058 771.186 243.33 771.186 237.449C771.186 231.604 775.922 226.864 781.762 226.864C787.603 226.864 792.339 231.604 792.339 237.449Z" fill="#B9BBBD"/>
<path d="M759.951 237.449C759.951 243.33 755.238 248.058 749.386 248.058C743.533 248.058 738.797 243.33 738.797 237.449C738.797 231.604 743.533 226.864 749.386 226.864C755.238 226.864 759.951 231.604 759.951 237.449Z" fill="#B9BBBD"/>
<path d="M727.574 237.449C727.574 243.33 722.838 248.058 717.009 248.058C711.169 248.058 706.433 243.33 706.433 237.449C706.433 231.604 711.157 226.864 717.009 226.864C722.838 226.864 727.574 231.604 727.574 237.449Z" fill="#B9BBBD"/>
<path d="M695.186 237.449C695.186 243.33 690.45 248.058 684.621 248.058C678.768 248.058 674.021 243.33 674.021 237.449C674.021 231.604 678.757 226.864 684.621 226.864C690.45 226.864 695.186 231.604 695.186 237.449Z" fill="#B9BBBD"/>
<path d="M662.809 237.449C662.809 243.33 658.085 248.058 652.244 248.058C646.404 248.058 641.679 243.33 641.679 237.449C641.679 231.604 646.404 226.864 652.244 226.864C658.073 226.864 662.809 231.604 662.809 237.449Z" fill="#B9BBBD"/>
<path d="M630.409 237.449C630.409 243.33 625.685 248.058 619.832 248.058C614.003 248.058 609.256 243.33 609.256 237.449C609.256 231.604 613.992 226.864 619.832 226.864C625.685 226.864 630.409 231.604 630.409 237.449Z" fill="#B9BBBD"/>
<path d="M598.044 237.449C598.044 243.33 593.32 248.058 587.479 248.058C581.627 248.058 576.891 243.33 576.891 237.449C576.891 231.604 581.615 226.864 587.479 226.864C593.308 226.864 598.044 231.604 598.044 237.449Z" fill="#B9BBBD"/>
<path d="M921.869 205.058C921.869 210.904 917.145 215.608 911.304 215.608C905.463 215.608 900.727 210.904 900.727 205.058C900.727 199.213 905.463 194.473 911.304 194.473C917.145 194.485 921.869 199.213 921.869 205.058Z" fill="#B9BBBD"/>
<path d="M889.492 205.058C889.492 210.904 884.768 215.608 878.916 215.608C873.075 215.608 868.339 210.904 868.339 205.058C868.339 199.213 873.063 194.473 878.916 194.473C884.768 194.485 889.492 199.213 889.492 205.058Z" fill="#B9BBBD"/>
<path d="M857.104 205.058C857.104 210.904 852.368 215.608 846.539 215.608C840.71 215.608 835.962 210.904 835.962 205.058C835.962 199.213 840.698 194.473 846.539 194.473C852.368 194.485 857.104 199.213 857.104 205.058Z" fill="#B9BBBD"/>
<path d="M824.716 205.058C824.716 210.904 820.003 215.608 814.163 215.608C808.287 215.608 803.551 210.904 803.551 205.058C803.551 199.213 808.287 194.473 814.163 194.473C820.003 194.485 824.716 199.213 824.716 205.058Z" fill="#B9BBBD"/>
<path d="M792.339 205.058C792.339 210.904 787.603 215.608 781.762 215.608C775.933 215.608 771.186 210.904 771.186 205.058C771.186 199.213 775.922 194.473 781.762 194.473C787.603 194.485 792.339 199.213 792.339 205.058Z" fill="#B9BBBD"/>
<path d="M759.951 205.058C759.951 210.904 755.238 215.608 749.386 215.608C743.533 215.608 738.797 210.904 738.797 205.058C738.797 199.213 743.533 194.473 749.386 194.473C755.238 194.485 759.951 199.213 759.951 205.058Z" fill="#B9BBBD"/>
<path d="M727.574 205.058C727.574 210.904 722.838 215.608 717.009 215.608C711.169 215.608 706.433 210.904 706.433 205.058C706.433 199.213 711.157 194.473 717.009 194.473C722.838 194.485 727.574 199.213 727.574 205.058Z" fill="#B9BBBD"/>
<path d="M662.809 205.058C662.809 210.904 658.085 215.608 652.244 215.608C646.404 215.608 641.679 210.904 641.679 205.058C641.679 199.213 646.404 194.473 652.244 194.473C658.073 194.485 662.809 199.213 662.809 205.058Z" fill="#B9BBBD"/>
<path d="M921.869 172.644C921.869 178.49 917.145 183.229 911.304 183.229C905.463 183.229 900.727 178.501 900.727 172.644C900.727 166.787 905.463 162.059 911.304 162.059C917.145 162.059 921.869 166.799 921.869 172.644Z" fill="#B9BBBD"/>
<path d="M889.492 172.644C889.492 178.49 884.768 183.229 878.916 183.229C873.075 183.229 868.339 178.501 868.339 172.644C868.339 166.787 873.063 162.059 878.916 162.059C884.768 162.059 889.492 166.799 889.492 172.644Z" fill="#B9BBBD"/>
<path d="M857.104 172.644C857.104 178.49 852.368 183.229 846.539 183.229C840.71 183.229 835.962 178.501 835.962 172.644C835.962 166.787 840.698 162.059 846.539 162.059C852.368 162.059 857.104 166.799 857.104 172.644Z" fill="#B9BBBD"/>
<path d="M824.716 172.644C824.716 178.49 820.003 183.229 814.163 183.229C808.287 183.229 803.551 178.501 803.551 172.644C803.551 166.787 808.287 162.059 814.163 162.059C820.003 162.059 824.716 166.799 824.716 172.644Z" fill="#B9BBBD"/>
<path d="M781.762 183.229C787.604 183.229 792.339 178.49 792.339 172.644C792.339 166.798 787.604 162.059 781.762 162.059C775.921 162.059 771.186 166.798 771.186 172.644C771.186 178.49 775.921 183.229 781.762 183.229Z" fill="#B9BBBD"/>
<path d="M759.951 172.644C759.951 178.49 755.238 183.229 749.386 183.229C743.533 183.229 738.797 178.501 738.797 172.644C738.797 166.787 743.533 162.059 749.386 162.059C755.238 162.059 759.951 166.799 759.951 172.644Z" fill="#B9BBBD"/>
<path d="M727.574 172.644C727.574 178.49 722.838 183.229 717.009 183.229C711.169 183.229 706.433 178.501 706.433 172.644C706.433 166.787 711.157 162.059 717.009 162.059C722.838 162.059 727.574 166.799 727.574 172.644Z" fill="#B9BBBD"/>
<path d="M954.269 140.218C954.269 146.064 949.533 150.803 943.692 150.803C937.84 150.803 933.104 146.075 933.104 140.218C933.104 134.408 937.828 129.668 943.692 129.668C949.533 129.68 954.269 134.408 954.269 140.218Z" fill="#B9BBBD"/>
<path d="M921.869 140.218C921.869 146.064 917.145 150.803 911.304 150.803C905.463 150.803 900.727 146.075 900.727 140.218C900.727 134.408 905.463 129.668 911.304 129.668C917.145 129.68 921.869 134.408 921.869 140.218Z" fill="#B9BBBD"/>
<path d="M889.492 140.218C889.492 146.064 884.768 150.803 878.916 150.803C873.075 150.803 868.339 146.075 868.339 140.218C868.339 134.408 873.063 129.668 878.916 129.668C884.768 129.68 889.492 134.408 889.492 140.218Z" fill="#B9BBBD"/>
<path d="M857.104 140.218C857.104 146.064 852.368 150.803 846.539 150.803C840.71 150.803 835.962 146.075 835.962 140.218C835.962 134.408 840.698 129.668 846.539 129.668C852.368 129.68 857.104 134.408 857.104 140.218Z" fill="#B9BBBD"/>
<path d="M824.716 140.218C824.716 146.064 820.003 150.803 814.163 150.803C808.287 150.803 803.551 146.075 803.551 140.218C803.551 134.408 808.287 129.668 814.163 129.668C820.003 129.68 824.716 134.408 824.716 140.218Z" fill="#B9BBBD"/>
<path d="M792.339 140.218C792.339 146.064 787.603 150.803 781.762 150.803C775.933 150.803 771.186 146.075 771.186 140.218C771.186 134.408 775.922 129.668 781.762 129.668C787.603 129.68 792.339 134.408 792.339 140.218Z" fill="#B9BBBD"/>
<path d="M759.951 140.218C759.951 146.064 755.238 150.803 749.386 150.803C743.533 150.803 738.797 146.075 738.797 140.218C738.797 134.408 743.533 129.668 749.386 129.668C755.238 129.68 759.951 134.408 759.951 140.218Z" fill="#B9BBBD"/>
<path d="M727.574 140.218C727.574 146.064 722.838 150.803 717.009 150.803C711.169 150.803 706.433 146.075 706.433 140.218C706.433 134.408 711.157 129.668 717.009 129.668C722.838 129.68 727.574 134.408 727.574 140.218Z" fill="#B9BBBD"/>
<path d="M695.186 140.218C695.186 146.064 690.45 150.803 684.621 150.803C678.768 150.803 674.021 146.075 674.021 140.218C674.021 134.408 678.757 129.668 684.621 129.668C690.45 129.68 695.186 134.408 695.186 140.218Z" fill="#B9BBBD"/>
<path d="M954.269 107.804C954.269 113.685 949.533 118.413 943.692 118.413C937.84 118.413 933.104 113.685 933.104 107.804C933.104 101.959 937.828 97.2188 943.692 97.2188C949.533 97.2305 954.269 101.959 954.269 107.804Z" fill="#B9BBBD"/>
<path d="M921.869 107.804C921.869 113.685 917.145 118.413 911.304 118.413C905.463 118.413 900.727 113.685 900.727 107.804C900.727 101.959 905.463 97.2188 911.304 97.2188C917.145 97.2305 921.869 101.959 921.869 107.804Z" fill="#B9BBBD"/>
<path d="M889.492 107.804C889.492 113.685 884.768 118.413 878.916 118.413C873.075 118.413 868.339 113.685 868.339 107.804C868.339 101.959 873.063 97.2188 878.916 97.2188C884.768 97.2305 889.492 101.959 889.492 107.804Z" fill="#B9BBBD"/>
<path d="M857.104 107.804C857.104 113.685 852.368 118.413 846.539 118.413C840.71 118.413 835.962 113.685 835.962 107.804C835.962 101.959 840.698 97.2188 846.539 97.2188C852.368 97.2305 857.104 101.959 857.104 107.804Z" fill="#B9BBBD"/>
<path d="M824.716 107.804C824.716 113.685 820.003 118.413 814.163 118.413C808.287 118.413 803.551 113.685 803.551 107.804C803.551 101.959 808.287 97.2188 814.163 97.2188C820.003 97.2305 824.716 101.959 824.716 107.804Z" fill="#B9BBBD"/>
<path d="M792.339 107.804C792.339 113.685 787.603 118.413 781.762 118.413C775.933 118.413 771.186 113.685 771.186 107.804C771.186 101.959 775.922 97.2188 781.762 97.2188C787.603 97.2305 792.339 101.959 792.339 107.804Z" fill="#B9BBBD"/>
<path d="M759.951 107.804C759.951 113.685 755.238 118.413 749.386 118.413C743.533 118.413 738.797 113.685 738.797 107.804C738.797 101.959 743.533 97.2188 749.386 97.2188C755.238 97.2305 759.951 101.959 759.951 107.804Z" fill="#B9BBBD"/>
<path d="M727.574 107.804C727.574 113.685 722.838 118.413 717.009 118.413C711.169 118.413 706.433 113.685 706.433 107.804C706.433 101.959 711.157 97.2188 717.009 97.2188C722.838 97.2305 727.574 101.959 727.574 107.804Z" fill="#B9BBBD"/>
<path d="M695.186 107.804C695.186 113.685 690.45 118.413 684.621 118.413C678.768 118.413 674.021 113.685 674.021 107.804C674.021 101.959 678.757 97.2188 684.621 97.2188C690.45 97.2305 695.186 101.959 695.186 107.804Z" fill="#B9BBBD"/>
<path d="M921.869 75.3897C921.869 81.2704 917.145 85.9749 911.304 85.9749C905.463 85.9749 900.727 81.2704 900.727 75.3897C900.727 69.5796 905.463 64.8398 911.304 64.8398C917.145 64.8398 921.869 69.5679 921.869 75.3897Z" fill="#B9BBBD"/>
<path d="M889.492 75.3897C889.492 81.2704 884.768 85.9749 878.916 85.9749C873.075 85.9749 868.339 81.2704 868.339 75.3897C868.339 69.5796 873.063 64.8398 878.916 64.8398C884.768 64.8398 889.492 69.5679 889.492 75.3897Z" fill="#B9BBBD"/>
<path d="M857.104 75.3897C857.104 81.2704 852.368 85.9749 846.539 85.9749C840.71 85.9749 835.962 81.2704 835.962 75.3897C835.962 69.5796 840.698 64.8398 846.539 64.8398C852.368 64.8398 857.104 69.5679 857.104 75.3897Z" fill="#B9BBBD"/>
<path d="M824.716 75.3897C824.716 81.2704 820.003 85.9749 814.163 85.9749C808.287 85.9749 803.551 81.2704 803.551 75.3897C803.551 69.5796 808.287 64.8398 814.163 64.8398C820.003 64.8398 824.716 69.5679 824.716 75.3897Z" fill="#B9BBBD"/>
<path d="M792.339 75.3897C792.339 81.2704 787.603 85.9749 781.762 85.9749C775.933 85.9749 771.186 81.2704 771.186 75.3897C771.186 69.5796 775.922 64.8398 781.762 64.8398C787.603 64.8398 792.339 69.5679 792.339 75.3897Z" fill="#B9BBBD"/>
<path d="M759.951 75.3897C759.951 81.2704 755.238 85.9749 749.386 85.9749C743.533 85.9749 738.797 81.2704 738.797 75.3897C738.797 69.5796 743.533 64.8398 749.386 64.8398C755.238 64.8398 759.951 69.5679 759.951 75.3897Z" fill="#B9BBBD"/>
<path d="M727.574 75.3897C727.574 81.2704 722.838 85.9749 717.009 85.9749C711.169 85.9749 706.433 81.2704 706.433 75.3897C706.433 69.5796 711.157 64.8398 717.009 64.8398C722.838 64.8398 727.574 69.5679 727.574 75.3897Z" fill="#B9BBBD"/>
<path d="M695.186 75.3897C695.186 81.2704 690.45 85.9749 684.621 85.9749C678.768 85.9749 674.021 81.2704 674.021 75.3897C674.021 69.5796 678.757 64.8398 684.621 64.8398C690.45 64.8398 695.186 69.5679 695.186 75.3897Z" fill="#B9BBBD"/>
<path d="M921.869 42.9992C921.869 48.8799 917.145 53.5844 911.304 53.5844C905.463 53.5844 900.727 48.8799 900.727 42.9992C900.727 37.1539 905.463 32.4141 911.304 32.4141C917.145 32.4141 921.869 37.1539 921.869 42.9992Z" fill="#B9BBBD"/>
<path d="M889.492 42.9992C889.492 48.8799 884.768 53.5844 878.916 53.5844C873.075 53.5844 868.339 48.8799 868.339 42.9992C868.339 37.1539 873.063 32.4141 878.916 32.4141C884.768 32.4141 889.492 37.1539 889.492 42.9992Z" fill="#B9BBBD"/>
<path d="M857.104 42.9992C857.104 48.8799 852.368 53.5844 846.539 53.5844C840.71 53.5844 835.962 48.8799 835.962 42.9992C835.962 37.1539 840.698 32.4141 846.539 32.4141C852.368 32.4141 857.104 37.1539 857.104 42.9992Z" fill="#B9BBBD"/>
<path d="M824.716 42.9992C824.716 48.8799 820.003 53.5844 814.163 53.5844C808.287 53.5844 803.551 48.8799 803.551 42.9992C803.551 37.1539 808.287 32.4141 814.163 32.4141C820.003 32.4141 824.716 37.1539 824.716 42.9992Z" fill="#B9BBBD"/>
<path d="M781.762 53.5844C787.604 53.5844 792.339 48.8453 792.339 42.9992C792.339 37.1532 787.604 32.4141 781.762 32.4141C775.921 32.4141 771.186 37.1532 771.186 42.9992C771.186 48.8453 775.921 53.5844 781.762 53.5844Z" fill="#B9BBBD"/>
<path d="M759.951 42.9992C759.951 48.8799 755.238 53.5844 749.386 53.5844C743.533 53.5844 738.797 48.8799 738.797 42.9992C738.797 37.1539 743.533 32.4141 749.386 32.4141C755.238 32.4141 759.951 37.1539 759.951 42.9992Z" fill="#B9BBBD"/>
<path d="M727.574 42.9992C727.574 48.8799 722.838 53.5844 717.009 53.5844C711.169 53.5844 706.433 48.8799 706.433 42.9992C706.433 37.1539 711.157 32.4141 717.009 32.4141C722.838 32.4141 727.574 37.1539 727.574 42.9992Z" fill="#B9BBBD"/>
<path d="M921.869 10.5852C921.869 16.4658 917.145 21.1703 911.304 21.1703C905.463 21.1703 900.727 16.4658 900.727 10.5852C900.727 4.77509 905.463 0 911.304 0C917.145 0 921.869 4.76333 921.869 10.5852Z" fill="#B9BBBD"/>
<path d="M889.492 10.5852C889.492 16.4658 884.768 21.1703 878.916 21.1703C873.075 21.1703 868.339 16.4658 868.339 10.5852C868.339 4.77509 873.063 0 878.916 0C884.768 0 889.492 4.76333 889.492 10.5852Z" fill="#B9BBBD"/>
<path d="M857.104 10.5852C857.104 16.4658 852.368 21.1703 846.539 21.1703C840.71 21.1703 835.962 16.4658 835.962 10.5852C835.962 4.77509 840.698 0 846.539 0C852.368 0 857.104 4.76333 857.104 10.5852Z" fill="#B9BBBD"/>
<path d="M824.716 10.5852C824.716 16.4658 820.003 21.1703 814.163 21.1703C808.287 21.1703 803.551 16.4658 803.551 10.5852C803.551 4.77509 808.287 0 814.163 0C820.003 0 824.716 4.76333 824.716 10.5852Z" fill="#B9BBBD"/>
<path d="M781.762 21.1703C787.604 21.1703 792.339 16.4312 792.339 10.5852C792.339 4.73914 787.604 0 781.762 0C775.921 0 771.186 4.73914 771.186 10.5852C771.186 16.4312 775.921 21.1703 781.762 21.1703Z" fill="#B9BBBD"/>
<path d="M759.951 10.5852C759.951 16.4658 755.238 21.1703 749.386 21.1703C743.533 21.1703 738.797 16.4658 738.797 10.5852C738.797 4.77509 743.533 0 749.386 0C755.238 0 759.951 4.76333 759.951 10.5852Z" fill="#B9BBBD"/>
<path d="M727.574 10.5852C727.574 16.4658 722.838 21.1703 717.009 21.1703C711.169 21.1703 706.433 16.4658 706.433 10.5852C706.433 4.77509 711.157 0 717.009 0C722.838 0 727.574 4.76333 727.574 10.5852Z" fill="#B9BBBD"/>
<path d="M695.186 10.5852C695.186 16.4658 690.45 21.1703 684.621 21.1703C678.768 21.1703 674.021 16.4658 674.021 10.5852C674.021 4.77509 678.757 0 684.621 0C690.45 0 695.186 4.76333 695.186 10.5852Z" fill="#B9BBBD"/>
<path d="M164.621 223.947H555.079V334.703" stroke="#20C2F2" stroke-width="1.3318" stroke-miterlimit="10"/>
<path d="M169.222 210.825H174.847C178.14 210.825 180.437 209.278 180.437 206.349C180.437 204.239 179.253 202.704 176.98 202.388V202.306C178.492 201.825 179.511 200.688 179.511 198.767C179.511 196.282 177.73 194.829 175.117 194.829H169.222V210.825ZM171.085 196.517H174.847C176.394 196.517 177.613 197.278 177.613 199.083C177.613 201.017 176.242 201.755 173.593 201.755H171.085V196.517ZM171.085 203.442H175.081C177.109 203.442 178.527 204.392 178.527 206.396C178.527 208.728 176.546 209.126 173.933 209.126H171.085V203.442ZM185.968 210.825V194.829H184.105V210.825H185.968ZM186.484 193.083L183.519 190.728H181.292L184.456 193.083H186.484ZM192.39 210.825V198.028H192.472L200.663 210.825H202.527V194.829H200.663V207.626H200.57L192.39 194.829H190.527V210.825H192.39ZM219.074 210.825V194.829H217.21V201.685H208.937V194.829H207.074V210.825H208.937V203.372H217.21V210.825H219.074ZM229.081 194.829V210.825H234.097C239.347 210.825 241.105 207.38 241.105 202.833C241.105 198.169 239.242 194.829 234.097 194.829H229.081ZM230.945 196.517H234.027C237.718 196.517 239.171 198.931 239.171 202.833C239.171 206.853 237.624 209.126 234.027 209.126H230.945V196.517ZM250.597 211.165C254.16 211.165 256.597 208.81 256.597 205.271V196.165H257.007C259.035 196.165 259.878 194.771 259.878 192.919V191.817H258.226V192.942C258.226 194.044 257.898 194.829 256.62 194.829H254.745V205.271C254.745 207.813 253.128 209.466 250.597 209.466C248.054 209.466 246.46 207.813 246.46 205.271V194.829H244.597V205.224C244.597 208.763 247.035 211.165 250.597 211.165ZM273.589 204.11V201.708C273.589 199.763 272.898 197.864 272.265 197.009L272.312 196.927C274.222 196.927 275.253 195.837 275.253 193.692V192.708H273.578V193.716C273.578 194.817 273.249 195.603 271.972 195.603C270.566 195.603 269.617 194.489 267.273 194.489C263.464 194.489 260.933 197.161 260.933 201.708V204.11C260.933 208.646 263.406 211.165 267.226 211.165C271.046 211.165 273.589 208.646 273.589 204.11ZM262.785 201.708C262.785 198.04 264.73 196.188 267.249 196.188C269.781 196.188 271.726 198.04 271.726 201.708V204.11C271.726 207.778 269.781 209.454 267.249 209.454C264.73 209.454 262.785 207.778 262.785 204.11V201.708ZM279.367 210.825V198.028H279.449L287.64 210.825H289.503V194.829H287.64V207.626H287.546L279.367 194.829H277.503V210.825H279.367ZM305.581 199.657C305.382 196.903 303.402 194.489 299.757 194.489C295.972 194.489 293.417 197.091 293.417 201.673V203.899C293.417 208.388 295.538 211.165 299.687 211.165C304.187 211.165 305.628 207.884 305.628 205.856V202.528H299.535V204.239H303.8V205.856C303.8 207.978 302.054 209.454 299.652 209.454C296.792 209.454 295.269 207.38 295.269 203.899V201.673C295.269 197.771 297.32 196.188 299.71 196.188C301.656 196.188 303.425 197.231 303.73 199.657H305.581Z" fill="#17479B"/>
<path d="M184.447 90.1738H619.844V269.887" stroke="#20C2F2" stroke-width="1.3318" stroke-miterlimit="10"/>
<path d="M189.051 77.0503H194.676C197.969 77.0503 200.266 75.5034 200.266 72.5737C200.266 70.4644 199.083 68.9292 196.809 68.6128V68.5308C198.321 68.0503 199.34 66.9136 199.34 64.9917C199.34 62.5073 197.559 61.0542 194.946 61.0542H189.051V77.0503ZM190.915 62.7417H194.676C196.223 62.7417 197.442 63.5034 197.442 65.3081C197.442 67.2417 196.071 67.98 193.422 67.98H190.915V62.7417ZM190.915 69.6675H194.911C196.938 69.6675 198.356 70.6167 198.356 72.6206C198.356 74.9526 196.375 75.3511 193.762 75.3511H190.915V69.6675ZM205.797 77.0503V61.0542H203.934V77.0503H205.797ZM206.313 59.3081L203.348 56.9526H201.122L204.286 59.3081H206.313ZM212.219 77.0503V64.2534H212.301L220.493 77.0503H222.356V61.0542H220.493V73.8511H220.399L212.219 61.0542H210.356V77.0503H212.219ZM238.903 77.0503V61.0542H237.04V67.9097H228.766V61.0542H226.903V77.0503H228.766V69.5972H237.04V77.0503H238.903ZM248.911 61.0542V77.0503H250.774V70.8862H254.641C257.629 70.8862 259.68 68.9644 259.68 65.9761C259.68 63.0112 257.629 61.0542 254.641 61.0542H248.911ZM250.774 62.7417H254.571C256.598 62.7417 257.758 63.937 257.758 65.9761C257.758 68.6831 256.118 69.2104 253.282 69.2104H250.774V62.7417ZM274.926 77.0503V61.0542H273.063V67.9097H264.79V61.0542H262.926V77.0503H264.79V69.5972H273.063V77.0503H274.926ZM285.286 77.3901C288.848 77.3901 291.286 75.0347 291.286 71.4956V62.3901H291.696C293.723 62.3901 294.567 60.9956 294.567 59.144V58.0425H292.915V59.1675C292.915 60.269 292.586 61.0542 291.309 61.0542H289.434V71.4956C289.434 74.0386 287.817 75.6909 285.286 75.6909C282.743 75.6909 281.149 74.0386 281.149 71.4956V61.0542H279.286V71.4487C279.286 74.9878 281.723 77.3901 285.286 77.3901ZM308.278 70.3354V67.9331C308.278 65.9878 307.586 64.0894 306.954 63.2339L307 63.1519C308.911 63.1519 309.942 62.062 309.942 59.9175V58.9331H308.266V59.9409C308.266 61.0425 307.938 61.8276 306.661 61.8276C305.254 61.8276 304.305 60.7144 301.961 60.7144C298.153 60.7144 295.622 63.3862 295.622 67.9331V70.3354C295.622 74.8706 298.094 77.3901 301.915 77.3901C305.735 77.3901 308.278 74.8706 308.278 70.3354ZM297.473 67.9331C297.473 64.2651 299.418 62.4136 301.938 62.4136C304.469 62.4136 306.415 64.2651 306.415 67.9331V70.3354C306.415 74.0034 304.469 75.6792 301.938 75.6792C299.418 75.6792 297.473 74.0034 297.473 70.3354V67.9331ZM300.485 59.3081H302.583L305.676 56.9526H303.45L300.485 59.3081ZM313.411 67.9331C313.411 64.2651 315.204 62.4136 317.77 62.4136C320.36 62.4136 321.743 64.312 321.743 66.0698H323.594C323.594 63.5269 321.672 60.7144 317.77 60.7144C314.032 60.7144 311.559 63.3159 311.559 67.8979V70.3003C311.559 74.9761 313.985 77.3901 317.747 77.3901C321.848 77.3901 323.594 74.5073 323.594 72.3276H321.743C321.743 74.1089 320.407 75.6792 317.829 75.6792C315.18 75.6792 313.411 74.0034 313.411 70.2769V67.9331Z" fill="#17479B"/>
<path d="M1106.5 275.744H652.232V370.363" stroke="#20C2F2" stroke-width="1.3318" stroke-miterlimit="10"/>
<path d="M992.503 262.618C997.753 262.618 999.511 259.173 999.511 254.626C999.511 249.962 997.648 246.622 992.503 246.622H987.488V253.606H985.613V255.247H987.488V262.618H992.503ZM989.351 260.919V255.247H993.066V253.606H989.351V248.31H992.433C996.124 248.31 997.577 250.724 997.577 254.626C997.577 258.646 996.031 260.919 992.433 260.919H989.351ZM1004.42 253.501C1004.42 249.833 1006.35 247.981 1008.87 247.981C1011.41 247.981 1013.35 249.833 1013.35 253.501V255.903C1013.35 259.571 1011.41 261.247 1008.87 261.247C1006.35 261.247 1004.42 259.571 1004.42 255.903V253.501ZM1002.56 255.903C1002.56 260.438 1005.03 262.958 1008.85 262.958C1012.67 262.958 1015.21 260.438 1015.21 255.903V253.501C1015.21 248.954 1012.72 246.282 1008.9 246.282C1005.09 246.282 1002.56 248.954 1002.56 253.501V255.903ZM1013.89 242.497L1011.43 239.626H1009.32L1012.44 242.497H1013.89ZM1004.81 244.911H1006.91L1008.89 243.353H1008.94L1010.89 244.911H1012.92L1009.86 242.403H1008.07L1004.81 244.911ZM1020.99 262.618V249.821H1021.07L1029.26 262.618H1031.13V246.622H1029.26V259.419H1029.17L1020.99 246.622H1019.13V262.618H1020.99ZM1047.21 251.45C1047.01 248.696 1045.03 246.282 1041.38 246.282C1037.6 246.282 1035.04 248.884 1035.04 253.466V255.692C1035.04 260.181 1037.16 262.958 1041.31 262.958C1045.81 262.958 1047.25 259.677 1047.25 257.649V254.321H1041.16V256.032H1045.43V257.649C1045.43 259.771 1043.68 261.247 1041.28 261.247C1038.42 261.247 1036.89 259.173 1036.89 255.692V253.466C1036.89 249.563 1038.94 247.981 1041.34 247.981C1043.28 247.981 1045.05 249.024 1045.35 251.45H1047.21ZM1058.49 262.618V249.821H1058.57L1066.76 262.618H1068.63V246.622H1066.76V259.419H1066.67L1058.49 246.622H1056.63V262.618H1058.49ZM1073.44 262.618L1075.12 257.696H1081.17L1082.83 262.618H1084.84L1079.09 246.622H1077.28L1071.53 262.618H1073.44ZM1078.18 248.931L1080.64 256.161H1075.65L1078.11 248.931H1078.18ZM1089.62 262.618V246.622H1087.75V262.618H1089.62Z" fill="#17479B"/>
<path d="M1137 145.558H781.762V269.463" stroke="#20C2F2" stroke-width="1.3318" stroke-miterlimit="10"/>
<path d="M1015.42 130.735H1007.96V116.438H1006.09V132.435H1015.42V130.735ZM1019.23 132.435L1020.91 127.513H1026.95L1028.62 132.435H1030.62L1024.88 116.438H1023.06L1017.32 132.435H1019.23ZM1023.96 118.747L1026.43 125.978H1021.43L1023.89 118.747H1023.96ZM1020.24 114.821H1022.1L1024.06 113.134H1024.12L1025.97 114.821H1027.88L1024.7 111.962H1023.54L1020.24 114.821ZM1035.3 132.435V120.517H1035.39L1039.98 131.204H1041.66L1046.24 120.517H1046.35V132.435H1048.05V116.438H1046.24L1040.86 129.247H1040.79L1035.39 116.438H1033.6V132.435H1035.3ZM1064.03 132.435C1069.28 132.435 1071.04 128.989 1071.04 124.442C1071.04 119.778 1069.18 116.438 1064.03 116.438H1059.02V123.423H1057.14V125.063H1059.02V132.435H1064.03ZM1060.88 130.735V125.063H1064.59V123.423H1060.88V118.126H1063.96C1067.65 118.126 1069.1 120.54 1069.1 124.442C1069.1 128.462 1067.56 130.735 1063.96 130.735H1060.88ZM1075.95 123.317C1075.95 119.649 1077.88 117.798 1080.4 117.798C1082.93 117.798 1084.88 119.649 1084.88 123.317V125.72C1084.88 129.388 1082.93 131.063 1080.4 131.063C1077.88 131.063 1075.95 129.388 1075.95 125.72V123.317ZM1074.09 125.72C1074.09 130.255 1076.56 132.774 1080.38 132.774C1084.2 132.774 1086.74 130.255 1086.74 125.72V123.317C1086.74 118.771 1084.25 116.099 1080.43 116.099C1076.62 116.099 1074.09 118.771 1074.09 123.317V125.72ZM1085.42 112.313L1082.96 109.442H1080.85L1083.96 112.313H1085.42ZM1076.34 114.728H1078.43L1080.41 113.169H1080.47L1082.42 114.728H1084.44L1081.39 112.22H1079.59L1076.34 114.728ZM1092.52 132.435V119.638H1092.6L1100.79 132.435H1102.66V116.438H1100.79V129.235H1100.7L1092.52 116.438H1090.66V132.435H1092.52ZM1118.73 121.267C1118.53 118.513 1116.55 116.099 1112.91 116.099C1109.12 116.099 1106.57 118.7 1106.57 123.282V125.509C1106.57 129.997 1108.69 132.774 1112.84 132.774C1117.34 132.774 1118.78 129.493 1118.78 127.466V124.138H1112.69V125.849H1116.95V127.466C1116.95 129.587 1115.21 131.063 1112.8 131.063C1109.94 131.063 1108.42 128.989 1108.42 125.509V123.282C1108.42 119.38 1110.47 117.798 1112.86 117.798C1114.81 117.798 1116.58 118.841 1116.88 121.267H1118.73Z" fill="#17479B"/>
<path d="M1124.33 205.105H878.916V240.001" stroke="#20C2F2" stroke-width="1.3318" stroke-miterlimit="10"/>
<path d="M976.076 191.987V179.19H976.158L984.349 191.987H986.213V175.991H984.349V188.788H984.256L976.076 175.991H974.213V191.987H976.076ZM992.623 191.987V175.991H990.76V191.987H992.623ZM999.045 191.987V179.19H999.127L1007.32 191.987H1009.18V175.991H1007.32V188.788H1007.22L999.045 175.991H997.181V191.987H999.045ZM1025.73 191.987V175.991H1023.87V182.847H1015.59V175.991H1013.73V191.987H1015.59V184.534H1023.87V191.987H1025.73ZM1040.79 191.987V177.679H1045.7V175.991H1034.03V177.679H1038.92V191.987H1040.79ZM1060.53 191.987V175.991H1058.67V182.847H1050.4V175.991H1048.53V191.987H1050.4V184.534H1058.67V191.987H1060.53ZM1066.76 175.991H1064.89V186.386C1064.89 189.925 1067.33 192.327 1070.89 192.327C1074.45 192.327 1076.89 189.972 1076.89 186.433V175.991H1075.03V186.433C1075.03 188.976 1073.42 190.628 1070.89 190.628C1068.35 190.628 1066.76 188.976 1066.76 186.433V175.991ZM1081.52 191.987L1083.2 187.065H1089.24L1090.91 191.987H1092.91L1087.17 175.991H1085.35L1079.61 191.987H1081.52ZM1086.26 178.3L1088.72 185.53H1083.72L1086.19 178.3H1086.26ZM1082.53 174.374H1084.39L1086.35 172.687H1086.41L1088.26 174.374H1090.17L1086.99 171.515H1085.83L1082.53 174.374ZM1085.05 194.917C1085.05 195.62 1085.55 196.077 1086.27 196.077C1086.98 196.077 1087.49 195.62 1087.49 194.917C1087.49 194.214 1086.98 193.733 1086.27 193.733C1085.55 193.733 1085.05 194.214 1085.05 194.917ZM1097.69 191.987V179.19H1097.78L1105.97 191.987H1107.83V175.991H1105.97V188.788H1105.87L1097.69 175.991H1095.83V191.987H1097.69Z" fill="#17479B"/>
<path d="M965.151 431.981H652.232" stroke="#20C2F2" stroke-width="1.3318" stroke-miterlimit="10"/>
<path d="M787.273 418.999H792.898C796.191 418.999 798.488 417.452 798.488 414.522C798.488 412.413 797.305 410.877 795.031 410.561V410.479C796.543 409.999 797.562 408.862 797.562 406.94C797.562 404.456 795.781 403.002 793.168 403.002H787.273V418.999ZM789.137 404.69H792.898C794.445 404.69 795.664 405.452 795.664 407.256C795.664 409.19 794.293 409.928 791.645 409.928H789.137V404.69ZM789.137 411.616H793.133C795.16 411.616 796.578 412.565 796.578 414.569C796.578 416.901 794.598 417.299 791.984 417.299H789.137V411.616ZM802.426 418.999L804.102 414.077H810.148L811.812 418.999H813.816L808.074 403.002H806.258L800.516 418.999H802.426ZM807.16 405.311L809.621 412.542H804.629L807.09 405.311H807.16ZM808.613 401.256L805.648 398.901H803.422L806.586 401.256H808.613ZM827.879 403.002H822.195V418.999H824.059V412.565H828.102L831.078 418.999H833.223L829.953 412.178C831.395 411.663 832.941 410.35 832.941 407.725C832.941 405.264 831.395 403.002 827.879 403.002ZM824.059 410.877V404.69H827.645C829.707 404.69 831.02 405.768 831.02 407.854C831.02 409.776 829.859 410.877 827.551 410.877H824.059ZM838.824 418.999V403.002H836.961V418.999H838.824ZM836.68 421.928C836.68 422.631 837.184 423.088 837.898 423.088C838.613 423.088 839.117 422.631 839.117 421.928C839.117 421.225 838.613 420.745 837.898 420.745C837.184 420.745 836.68 421.225 836.68 421.928ZM843.652 418.999L845.328 414.077H851.375L853.039 418.999H855.043L849.301 403.002H847.484L841.742 418.999H843.652ZM848.387 405.311L850.848 412.542H845.855L848.316 405.311H848.387ZM869.328 418.999L875.176 403.002H873.043L868.484 416.737H868.379L863.797 403.002H861.676L867.5 418.999H869.328ZM879.652 403.002H877.789V413.397C877.789 416.936 880.227 419.338 883.789 419.338C887.352 419.338 889.789 416.983 889.789 413.444V403.002H887.926V413.444C887.926 415.987 886.32 417.639 883.789 417.639C881.246 417.639 879.652 415.987 879.652 413.444V403.002ZM883.414 401.069C883.871 401.538 884.34 401.877 885.254 401.877C886.578 401.877 887.328 400.553 887.328 399.417H886.027C885.98 399.92 885.746 400.729 885.16 400.729C884.715 400.729 884.504 400.401 884.176 400.084C883.613 399.545 883.098 399.217 882.383 399.217C880.906 399.217 880.285 400.424 880.285 401.667H881.598C881.633 401.163 881.715 400.436 882.406 400.436C882.828 400.436 883.133 400.788 883.414 401.069ZM896.012 418.999V406.202H896.094L904.285 418.999H906.148V403.002H904.285V415.799H904.191L896.012 403.002H894.148V418.999H896.012ZM922.227 407.831C922.027 405.077 920.047 402.663 916.402 402.663C912.617 402.663 910.062 405.264 910.062 409.846V412.073C910.062 416.561 912.184 419.338 916.332 419.338C920.832 419.338 922.273 416.057 922.273 414.03V410.702H916.18V412.413H920.445V414.03C920.445 416.151 918.699 417.627 916.297 417.627C913.438 417.627 911.914 415.553 911.914 412.073V409.846C911.914 405.944 913.965 404.362 916.355 404.362C918.301 404.362 920.07 405.405 920.375 407.831H922.227ZM936.699 418.999V404.69H941.609V403.002H929.938V404.69H934.836V418.999H936.699ZM943.66 418.999L945.336 414.077H951.383L953.047 418.999H955.051L949.309 403.002H947.492L941.75 418.999H943.66ZM948.395 405.311L950.855 412.542H945.863L948.324 405.311H948.395ZM949.848 401.256L946.883 398.901H944.656L947.82 401.256H949.848ZM959.645 403.002H957.781V413.397C957.781 416.936 960.219 419.338 963.781 419.338C967.344 419.338 969.781 416.983 969.781 413.444V403.002H967.918V413.444C967.918 415.987 966.312 417.639 963.781 417.639C961.238 417.639 959.645 415.987 959.645 413.444V403.002Z" fill="#17479B"/>
<path d="M923.021 496.774H554.727" stroke="#20C2F2" stroke-width="1.3318" stroke-miterlimit="10"/>
<path d="M819.604 483.653H825.229C828.522 483.653 830.818 482.106 830.818 479.176C830.818 477.067 829.635 475.532 827.361 475.215V475.133C828.873 474.653 829.893 473.516 829.893 471.594C829.893 469.11 828.111 467.657 825.498 467.657H819.604V483.653ZM821.467 469.344H825.229C826.776 469.344 827.994 470.106 827.994 471.911C827.994 473.844 826.623 474.583 823.975 474.583H821.467V469.344ZM821.467 476.27H825.463C827.49 476.27 828.908 477.219 828.908 479.223C828.908 481.555 826.928 481.954 824.315 481.954H821.467V476.27ZM843.967 481.954H836.35V476.317H843.545V474.629H836.35V469.356H843.967V467.657H834.486V483.653H843.967V481.954ZM835.119 465.946H837.217L839.197 464.387H839.256L841.201 465.946H843.229L840.17 463.438H838.377L835.119 465.946ZM841.518 463.415L842.361 464.012L845.971 460.661H843.861L841.518 463.415ZM849.803 483.653V470.856H849.885L858.076 483.653H859.94V467.657H858.076V480.454H857.983L849.803 467.657H847.94V483.653H849.803ZM874.998 483.653V469.344H879.908V467.657H868.236V469.344H873.135V483.653H874.998ZM888.428 467.657H882.744V483.653H884.608V477.219H888.651L891.627 483.653H893.772L890.502 476.833C891.943 476.317 893.49 475.004 893.49 472.379C893.49 469.918 891.943 467.657 888.428 467.657ZM884.608 475.532V469.344H888.193C890.256 469.344 891.568 470.422 891.568 472.508C891.568 474.43 890.408 475.532 888.1 475.532H884.608ZM906.99 481.954H899.373V476.317H906.568V474.629H899.373V469.356H906.99V467.657H897.51V483.653H906.99V481.954Z" fill="#17479B"/>
<path d="M825.879 561.626H554.727" stroke="#20C2F2" stroke-width="1.3318" stroke-miterlimit="10"/>
<path d="M719.966 548.502V534.193H724.876V532.506H713.204V534.193H718.102V548.502H719.966ZM733.395 532.506H727.712V548.502H729.575V542.068H733.618L736.595 548.502H738.739L735.47 541.682C736.911 541.166 738.458 539.854 738.458 537.229C738.458 534.768 736.911 532.506 733.395 532.506ZM729.575 540.381V534.193H733.161C735.224 534.193 736.536 535.271 736.536 537.357C736.536 539.279 735.376 540.381 733.067 540.381H729.575ZM742.747 548.502L744.423 543.58H750.47L752.134 548.502H754.138L748.395 532.506H746.579L740.837 548.502H742.747ZM747.481 534.814L749.942 542.045H744.95L747.411 534.814H747.481ZM748.934 530.76L745.97 528.404H743.743L746.907 530.76H748.934ZM768.423 548.502L774.27 532.506H772.138L767.579 546.24H767.474L762.891 532.506H760.77L766.595 548.502H768.423ZM778.934 548.502V532.506H777.071V548.502H778.934ZM785.356 548.502V535.705H785.438L793.63 548.502H795.493V532.506H793.63V545.303H793.536L785.356 532.506H783.493V548.502H785.356ZM812.04 548.502V532.506H810.177V539.361H801.903V532.506H800.04V548.502H801.903V541.049H810.177V548.502H812.04Z" fill="#17479B"/>
<path d="M933.28 626.606H490.314V529.176" stroke="#20C2F2" stroke-width="1.3318" stroke-miterlimit="10"/>
<path d="M806.059 613.483L811.907 597.487H809.774L805.216 611.222H805.11L800.528 597.487H798.407L804.231 613.483H806.059ZM816.571 613.483V597.487H814.708V613.483H816.571ZM815.27 595.554C815.727 596.022 816.196 596.362 817.11 596.362C818.434 596.362 819.184 595.038 819.184 593.901H817.884C817.837 594.405 817.602 595.214 817.016 595.214C816.571 595.214 816.36 594.886 816.032 594.569C815.469 594.03 814.954 593.702 814.239 593.702C812.762 593.702 812.141 594.909 812.141 596.151H813.454C813.489 595.647 813.571 594.921 814.262 594.921C814.684 594.921 814.989 595.272 815.27 595.554ZM822.993 613.483V600.687H823.075L831.266 613.483H833.13V597.487H831.266V610.284H831.173L822.993 597.487H821.13V613.483H822.993ZM849.677 613.483V597.487H847.813V604.343H839.54V597.487H837.677V613.483H839.54V606.03H847.813V613.483H849.677ZM869.012 611.784H861.548V597.487H859.684V613.483H869.012V611.784ZM872.61 604.366C872.61 600.698 874.544 598.847 877.063 598.847C879.594 598.847 881.54 600.698 881.54 604.366V606.769C881.54 610.437 879.594 612.112 877.063 612.112C874.544 612.112 872.61 610.437 872.61 606.769V604.366ZM870.747 606.769C870.747 611.304 873.219 613.823 877.04 613.823C880.86 613.823 883.403 611.304 883.403 606.769V604.366C883.403 599.819 880.907 597.147 877.087 597.147C873.278 597.147 870.747 599.819 870.747 604.366V606.769ZM889.18 613.483V600.687H889.262L897.454 613.483H899.317V597.487H897.454V610.284H897.36L889.18 597.487H887.317V613.483H889.18ZM915.395 602.315C915.196 599.562 913.216 597.147 909.571 597.147C905.786 597.147 903.231 599.749 903.231 604.331V606.558C903.231 611.046 905.352 613.823 909.501 613.823C914.001 613.823 915.442 610.542 915.442 608.515V605.187H909.348V606.897H913.614V608.515C913.614 610.636 911.868 612.112 909.466 612.112C906.606 612.112 905.083 610.038 905.083 606.558V604.331C905.083 600.429 907.134 598.847 909.524 598.847C911.469 598.847 913.239 599.89 913.544 602.315H915.395Z" fill="#17479B"/>
<path d="M772.361 707.113H428.911V560.768H393.149" stroke="#20C2F2" stroke-width="1.3318" stroke-miterlimit="10"/>
<path d="M648.409 693.989V677.993H646.545V684.849H638.272V677.993H636.409V693.989H638.272V686.536H646.545V693.989H648.409ZM653.225 693.989L654.901 689.067H660.948L662.612 693.989H664.616L658.874 677.993H657.057L651.315 693.989H653.225ZM657.959 680.302L660.42 687.532H655.428L657.889 680.302H657.959ZM654.233 676.376H656.096L658.053 674.688H658.112L659.963 676.376H661.874L658.698 673.517H657.538L654.233 676.376ZM656.752 696.919C656.752 697.622 657.256 698.079 657.971 698.079C658.686 698.079 659.19 697.622 659.19 696.919C659.19 696.216 658.686 695.735 657.971 695.735C657.256 695.735 656.752 696.216 656.752 696.919ZM669.209 677.993H667.346V688.388C667.346 691.927 669.784 694.329 673.346 694.329C676.909 694.329 679.346 691.974 679.346 688.435V677.993H677.483V688.435C677.483 690.978 675.877 692.63 673.346 692.63C670.803 692.63 669.209 690.978 669.209 688.435V677.993ZM700.698 682.821C700.499 680.067 698.518 677.653 694.874 677.653C691.088 677.653 688.534 680.255 688.534 684.837V687.063C688.534 691.552 690.655 694.329 694.803 694.329C699.303 694.329 700.745 691.048 700.745 689.021V685.692H694.651V687.403H698.917V689.021C698.917 691.142 697.17 692.618 694.768 692.618C691.909 692.618 690.385 690.544 690.385 687.063V684.837C690.385 680.935 692.436 679.353 694.827 679.353C696.772 679.353 698.542 680.396 698.846 682.821H700.698ZM706.522 693.989V677.993H704.659V693.989H706.522ZM711.35 693.989L713.026 689.067H719.073L720.737 693.989H722.741L716.999 677.993H715.182L709.44 693.989H711.35ZM716.084 680.302L718.545 687.532H713.553L716.014 680.302H716.084ZM727.522 693.989V681.192H727.604L735.795 693.989H737.659V677.993H735.795V690.79H735.702L727.522 677.993H725.659V693.989H727.522ZM753.737 682.821C753.538 680.067 751.557 677.653 747.913 677.653C744.127 677.653 741.573 680.255 741.573 684.837V687.063C741.573 691.552 743.694 694.329 747.842 694.329C752.342 694.329 753.784 691.048 753.784 689.021V685.692H747.69V687.403H751.956V689.021C751.956 691.142 750.209 692.618 747.807 692.618C744.948 692.618 743.424 690.544 743.424 687.063V684.837C743.424 680.935 745.475 679.353 747.866 679.353C749.811 679.353 751.581 680.396 751.885 682.821H753.737Z" fill="#17479B"/>
<path d="M653.396 772.212H457.926V625.854" stroke="#20C2F2" stroke-width="1.3318" stroke-miterlimit="10"/>
<path d="M508.156 754.812C508.226 756.862 509.679 759.429 513.851 759.429C517.097 759.429 519.758 757.835 519.758 754.683C519.758 752.163 518.094 751.026 515.621 750.358L512.808 749.597C511.261 749.198 510.547 748.319 510.547 747.147C510.547 745.378 512.047 744.405 514.074 744.405C516.371 744.405 517.566 745.636 517.719 747.229H519.594C519.523 744.077 516.734 742.706 514.121 742.706C511.332 742.706 508.648 744.3 508.648 747.276C508.648 749.749 510.488 750.944 512.34 751.437L515.211 752.198C517.015 752.667 517.847 753.452 517.847 754.812C517.847 756.628 516.359 757.718 514.086 757.718C511.566 757.718 510.207 756.417 510.043 754.812H508.156ZM524.691 749.972C524.691 746.304 526.625 744.452 529.144 744.452C531.676 744.452 533.621 746.304 533.621 749.972V752.374C533.621 756.042 531.676 757.718 529.144 757.718C526.625 757.718 524.691 756.042 524.691 752.374V749.972ZM522.828 752.374C522.828 756.909 525.301 759.429 529.121 759.429C532.941 759.429 535.484 756.909 535.484 752.374V749.972C535.484 745.425 532.988 742.753 529.168 742.753C525.359 742.753 522.828 745.425 522.828 749.972V752.374ZM527.691 741.347H529.789L532.883 738.991H530.656L527.691 741.347ZM540.617 749.972C540.617 746.304 542.41 744.452 544.976 744.452C547.566 744.452 548.949 746.351 548.949 748.108H550.801C550.801 745.565 548.879 742.753 544.976 742.753C541.238 742.753 538.765 745.354 538.765 749.937V752.339C538.765 757.015 541.191 759.429 544.953 759.429C549.054 759.429 550.801 756.546 550.801 754.366H548.949C548.949 756.147 547.613 757.718 545.035 757.718C542.386 757.718 540.617 756.042 540.617 752.315V749.972ZM565.121 759.089V744.78H570.031V743.093H558.359V744.78H563.258V759.089H565.121ZM578.551 743.093H572.867V759.089H574.73V752.655H578.773L581.75 759.089H583.894L580.625 752.269C582.066 751.753 583.613 750.44 583.613 747.815C583.613 745.354 582.066 743.093 578.551 743.093ZM574.73 750.968V744.78H578.316C580.379 744.78 581.691 745.858 581.691 747.944C581.691 749.866 580.531 750.968 578.222 750.968H574.73ZM587.902 759.089L589.578 754.167H595.625L597.289 759.089H599.293L593.551 743.093H591.734L585.992 759.089H587.902ZM592.636 745.401L595.097 752.632H590.105L592.566 745.401H592.636ZM588.898 738.628C588.898 740.233 590.094 741.663 592.648 741.663C595.203 741.663 596.398 740.233 596.398 738.628H595.027C595.027 739.741 594.254 740.55 592.648 740.55C591.043 740.55 590.269 739.741 590.269 738.628H588.898ZM604.074 759.089V746.292H604.156L612.347 759.089H614.211V743.093H612.347V755.89H612.254L604.074 743.093H602.211V759.089H604.074ZM630.289 747.921C630.09 745.167 628.109 742.753 624.465 742.753C620.679 742.753 618.125 745.354 618.125 749.937V752.163C618.125 756.651 620.246 759.429 624.394 759.429C628.894 759.429 630.336 756.147 630.336 754.12V750.792H624.242V752.503H628.508V754.12C628.508 756.241 626.761 757.718 624.359 757.718C621.5 757.718 619.976 755.644 619.976 752.163V749.937C619.976 746.034 622.027 744.452 624.418 744.452C626.363 744.452 628.133 745.495 628.437 747.921H630.289Z" fill="#17479B"/>
<path d="M1065.74 335.48H781.762" stroke="#20C2F2" stroke-width="1.3318" stroke-miterlimit="10"/>
<path d="M916.567 322.354H922.192C925.485 322.354 927.782 320.807 927.782 317.877C927.782 315.768 926.598 314.232 924.325 313.916V313.834C925.837 313.354 926.856 312.217 926.856 310.295C926.856 307.811 925.075 306.357 922.462 306.357H916.567V322.354ZM918.43 308.045H922.192C923.739 308.045 924.958 308.807 924.958 310.611C924.958 312.545 923.587 313.283 920.938 313.283H918.43V308.045ZM918.43 314.971H922.427C924.454 314.971 925.872 315.92 925.872 317.924C925.872 320.256 923.891 320.654 921.278 320.654H918.43V314.971ZM933.313 322.354V306.357H931.45V322.354H933.313ZM933.829 304.611L930.864 302.256H928.638L931.802 304.611H933.829ZM939.735 322.354V309.557H939.817L948.009 322.354H949.872V306.357H948.009V319.154H947.915L939.735 306.357H937.872V322.354H939.735ZM966.419 322.354V306.357H964.555V313.213H956.282V306.357H954.419V322.354H956.282V314.9H964.555V322.354H966.419ZM981.477 322.354V308.045H986.388V306.357H974.716V308.045H979.614V322.354H981.477ZM1001.22 322.354V306.357H999.36V313.213H991.087V306.357H989.223V322.354H991.087V314.9H999.36V322.354H1001.22ZM1007.45 306.357H1005.58V316.752C1005.58 320.291 1008.02 322.693 1011.58 322.693C1015.15 322.693 1017.58 320.338 1017.58 316.799V306.357H1015.72V316.799C1015.72 319.342 1014.11 320.994 1011.58 320.994C1009.04 320.994 1007.45 319.342 1007.45 316.799V306.357ZM1022.21 322.354L1023.89 317.432H1029.93L1031.6 322.354H1033.6L1027.86 306.357H1026.04L1020.3 322.354H1022.21ZM1026.95 308.666L1029.41 315.896H1024.41L1026.88 308.666H1026.95ZM1023.22 304.74H1025.08L1027.04 303.053H1027.1L1028.95 304.74H1030.86L1027.68 301.881H1026.52L1023.22 304.74ZM1025.74 325.283C1025.74 325.986 1026.24 326.443 1026.96 326.443C1027.67 326.443 1028.18 325.986 1028.18 325.283C1028.18 324.58 1027.67 324.1 1026.96 324.1C1026.24 324.1 1025.74 324.58 1025.74 325.283ZM1038.38 322.354V309.557H1038.47L1046.66 322.354H1048.52V306.357H1046.66V319.154H1046.56L1038.38 306.357H1036.52V322.354H1038.38Z" fill="#17479B"/>
<path d="M272.621 150.803H490.314V300.83" stroke="#20C2F2" stroke-width="1.3318" stroke-miterlimit="10"/>
<path d="M279.94 137.749V123.44H284.851V121.753H273.179V123.44H278.077V137.749H279.94ZM286.901 137.749L288.577 132.827H294.624L296.288 137.749H298.292L292.55 121.753H290.733L284.991 137.749H286.901ZM291.636 124.062L294.097 131.292H289.104L291.565 124.062H291.636ZM287.909 120.136H289.772L291.729 118.448H291.788L293.64 120.136H295.55L292.374 117.276H291.214L287.909 120.136ZM305.194 137.749V130.729L310.55 121.753H308.405L304.315 128.901H304.21L300.144 121.753H297.999L303.343 130.729V137.749H305.194ZM320.511 137.749V124.952H320.593L328.784 137.749H330.647V121.753H328.784V134.55H328.69L320.511 121.753H318.647V137.749H320.511ZM337.058 137.749V121.753H335.194V137.749H337.058ZM343.479 137.749V124.952H343.562L351.753 137.749H353.616V121.753H351.753V134.55H351.659L343.479 121.753H341.616V137.749H343.479ZM370.163 137.749V121.753H368.3V128.608H360.026V121.753H358.163V137.749H360.026V130.296H368.3V137.749H370.163Z" fill="#17479B"/>
<path d="M242.313 330.128H522.691V431.981" stroke="#20C2F2" stroke-width="1.3318" stroke-miterlimit="10"/>
<path d="M253.916 315.373H246.451V301.076H244.588V317.072H253.916V315.373ZM257.514 307.955C257.514 304.287 259.448 302.436 261.967 302.436C264.498 302.436 266.444 304.287 266.444 307.955V310.357C266.444 314.025 264.498 315.701 261.967 315.701C259.448 315.701 257.514 314.025 257.514 310.357V307.955ZM255.651 310.357C255.651 314.893 258.123 317.412 261.944 317.412C265.764 317.412 268.307 314.893 268.307 310.357V307.955C268.307 303.408 265.811 300.736 261.99 300.736C258.182 300.736 255.651 303.408 255.651 307.955V310.357ZM274.084 317.072V304.275H274.166L282.358 317.072H284.221V301.076H282.358V313.873H282.264L274.084 301.076H272.221V317.072H274.084ZM300.299 305.904C300.1 303.15 298.119 300.736 294.475 300.736C290.69 300.736 288.135 303.338 288.135 307.92V310.146C288.135 314.635 290.256 317.412 294.405 317.412C298.905 317.412 300.346 314.131 300.346 312.104V308.775H294.252V310.486H298.518V312.104C298.518 314.225 296.772 315.701 294.369 315.701C291.51 315.701 289.987 313.627 289.987 310.146V307.92C289.987 304.018 292.037 302.436 294.428 302.436C296.373 302.436 298.143 303.479 298.448 305.904H300.299ZM309.99 317.072L311.666 312.15H317.713L319.377 317.072H321.381L315.639 301.076H313.823L308.08 317.072H309.99ZM314.725 303.385L317.186 310.615H312.194L314.655 303.385H314.725ZM326.162 317.072V304.275H326.244L334.436 317.072H336.299V301.076H334.436V313.873H334.342L326.162 301.076H324.299V317.072H326.162Z" fill="#17479B"/>
<path d="M145.23 392.897H425.608V431.933" stroke="#20C2F2" stroke-width="1.3318" stroke-miterlimit="10"/>
<path d="M153.411 379.842C158.661 379.842 160.419 376.396 160.419 371.85C160.419 367.186 158.556 363.846 153.411 363.846H148.396V370.83H146.521V372.471H148.396V379.842H153.411ZM150.259 378.143V372.471H153.974V370.83H150.259V365.533H153.341C157.032 365.533 158.485 367.947 158.485 371.85C158.485 375.869 156.939 378.143 153.341 378.143H150.259ZM165.329 370.725C165.329 367.057 167.263 365.205 169.782 365.205C172.314 365.205 174.259 367.057 174.259 370.725V373.127C174.259 376.795 172.314 378.471 169.782 378.471C167.263 378.471 165.329 376.795 165.329 373.127V370.725ZM163.466 373.127C163.466 377.662 165.939 380.182 169.759 380.182C173.579 380.182 176.122 377.662 176.122 373.127V370.725C176.122 366.178 173.626 363.506 169.806 363.506C165.997 363.506 163.466 366.178 163.466 370.725V373.127ZM174.798 359.721L172.337 356.85H170.228L173.345 359.721H174.798ZM165.716 362.135H167.814L169.794 360.576H169.853L171.798 362.135H173.825L170.767 359.627H168.974L165.716 362.135ZM181.9 379.842V367.045H181.982L190.173 379.842H192.036V363.846H190.173V376.643H190.079L181.9 363.846H180.036V379.842H181.9ZM208.114 368.674C207.915 365.92 205.935 363.506 202.29 363.506C198.505 363.506 195.95 366.107 195.95 370.689V372.916C195.95 377.404 198.071 380.182 202.22 380.182C206.72 380.182 208.161 376.9 208.161 374.873V371.545H202.068V373.256H206.333V374.873C206.333 376.994 204.587 378.471 202.185 378.471C199.325 378.471 197.802 376.396 197.802 372.916V370.689C197.802 366.787 199.853 365.205 202.243 365.205C204.189 365.205 205.958 366.248 206.263 368.674H208.114ZM222.587 379.842V365.533H227.497V363.846H215.825V365.533H220.724V379.842H222.587ZM242.333 379.842V363.846H240.47V370.701H232.196V363.846H230.333V379.842H232.196V372.389H240.47V379.842H242.333ZM247.15 379.842L248.825 374.92H254.872L256.536 379.842H258.54L252.798 363.846H250.982L245.239 379.842H247.15ZM251.884 366.154L254.345 373.385H249.353L251.814 366.154H251.884ZM250.431 362.1H252.528L255.622 359.744H253.396L250.431 362.1ZM261.458 363.846V379.842H263.321V373.678H267.189C270.177 373.678 272.228 371.756 272.228 368.768C272.228 365.803 270.177 363.846 267.189 363.846H261.458ZM263.321 365.533H267.118C269.146 365.533 270.306 366.729 270.306 368.768C270.306 371.475 268.665 372.002 265.829 372.002H263.321V365.533Z" fill="#17479B"/>
<path d="M31.5188 464.325H360.773" stroke="#20C2F2" stroke-width="1.3318" stroke-miterlimit="10"/>
<path d="M34.067 451.276L35.7428 446.354H41.7897L43.4537 451.276H45.4576L39.7155 435.28H37.899L32.1569 451.276H34.067ZM38.8014 437.588L41.2623 444.819H36.2701L38.7311 437.588H38.8014ZM50.2389 451.276V438.479H50.3209L58.5123 451.276H60.3756V435.28H58.5123V448.077H58.4186L50.2389 435.28H48.3756V451.276H50.2389ZM81.9147 440.108C81.7155 437.354 79.735 434.94 76.0905 434.94C72.3053 434.94 69.7506 437.542 69.7506 442.124V444.35C69.7506 448.838 71.8717 451.616 76.0201 451.616C80.5201 451.616 81.9615 448.334 81.9615 446.307V442.979H75.8678V444.69H80.1334V446.307C80.1334 448.428 78.3873 449.905 75.985 449.905C73.1256 449.905 71.6022 447.831 71.6022 444.35V442.124C71.6022 438.221 73.653 436.639 76.0436 436.639C77.9889 436.639 79.7584 437.682 80.0631 440.108H81.9147ZM87.7389 451.276V435.28H85.8756V451.276H87.7389ZM92.567 451.276L94.2428 446.354H100.29L101.954 451.276H103.958L98.2155 435.28H96.399L90.6569 451.276H92.567ZM97.3014 437.588L99.7623 444.819H94.7701L97.2311 437.588H97.3014ZM108.739 451.276V438.479H108.821L117.012 451.276H118.876V435.28H117.012V448.077H116.919L108.739 435.28H106.876V451.276H108.739ZM134.954 440.108C134.755 437.354 132.774 434.94 129.13 434.94C125.344 434.94 122.79 437.542 122.79 442.124V444.35C122.79 448.838 124.911 451.616 129.059 451.616C133.559 451.616 135.001 448.334 135.001 446.307V442.979H128.907V444.69H133.172V446.307C133.172 448.428 131.426 449.905 129.024 449.905C126.165 449.905 124.641 447.831 124.641 444.35V442.124C124.641 438.221 126.692 436.639 129.083 436.639C131.028 436.639 132.797 437.682 133.102 440.108H134.954Z" fill="#17479B"/>
<path d="M63.907 531H345.06V496.739H393.149" stroke="#20C2F2" stroke-width="1.3318" stroke-miterlimit="10"/>
<path d="M67.401 507.96C67.401 504.292 69.194 502.44 71.7604 502.44C74.3502 502.44 75.733 504.339 75.733 506.097H77.5846C77.5846 503.554 75.6627 500.741 71.7604 500.741C68.0221 500.741 65.5494 503.343 65.5494 507.925V510.327C65.5494 515.003 67.9752 517.417 71.7369 517.417C75.8385 517.417 77.5846 514.534 77.5846 512.354H75.733C75.733 514.136 74.3971 515.706 71.819 515.706C69.1705 515.706 67.401 514.03 67.401 510.304V507.96ZM81.6627 517.077L83.3385 512.155H89.3854L91.0494 517.077H93.0533L87.3112 501.081H85.4948L79.7526 517.077H81.6627ZM86.3971 503.39L88.858 510.62H83.8658L86.3268 503.39H86.3971ZM91.4127 496.956L88.9518 494.085H86.8424L89.9596 496.956H91.4127ZM82.3307 499.37H84.4283L86.4088 497.812H86.4674L88.4127 499.37H90.4401L87.3815 496.862H85.5885L82.3307 499.37ZM97.8346 517.077V504.28H97.9166L106.108 517.077H107.971V501.081H106.108V513.878H106.014L97.8346 501.081H95.9713V517.077H97.8346ZM123.03 517.077V502.769H127.94V501.081H116.268V502.769H121.167V517.077H123.03ZM142.776 517.077V501.081H140.913V507.937H132.639V501.081H130.776V517.077H132.639V509.624H140.913V517.077H142.776ZM159.346 510.362V507.96C159.346 506.015 158.655 504.116 158.022 503.261L158.069 503.179C159.979 503.179 161.01 502.089 161.01 499.944V498.96H159.335V499.968C159.335 501.069 159.006 501.854 157.729 501.854C156.323 501.854 155.374 500.741 153.03 500.741C149.221 500.741 146.69 503.413 146.69 507.96V510.362C146.69 514.897 149.163 517.417 152.983 517.417C156.803 517.417 159.346 514.897 159.346 510.362ZM148.542 507.96C148.542 504.292 150.487 502.44 153.006 502.44C155.538 502.44 157.483 504.292 157.483 507.96V510.362C157.483 514.03 155.538 515.706 153.006 515.706C150.487 515.706 148.542 514.03 148.542 510.362V507.96Z" fill="#17479B"/>
<path d="M0 595.016H281.153V560.768H329.242" stroke="#20C2F2" stroke-width="1.3318" stroke-miterlimit="10"/>
<path d="M13.5586 565.1H11.3203L4.21875 572.928H4.13672V565.1H2.27344V581.096H4.13672V575.389L6.16406 573.197L11.4844 581.096H13.8867L7.55859 571.896L13.5586 565.1ZM18.5273 581.096V565.1H16.6641V581.096H18.5273ZM32.5664 579.396H24.9492V573.76H32.1445V572.072H24.9492V566.799H32.5664V565.1H23.0859V581.096H32.5664V579.396ZM24.0586 563.482H25.9219L27.8789 561.795H27.9375L29.7891 563.482H31.6992L28.5234 560.623H27.3633L24.0586 563.482ZM38.4023 581.096V568.299H38.4844L46.6758 581.096H48.5391V565.1H46.6758V577.896H46.582L38.4023 565.1H36.5391V581.096H38.4023ZM70.0781 569.928C69.8789 567.174 67.8984 564.76 64.2539 564.76C60.4688 564.76 57.9141 567.361 57.9141 571.943V574.17C57.9141 578.658 60.0352 581.436 64.1836 581.436C68.6836 581.436 70.125 578.154 70.125 576.127V572.799H64.0312V574.51H68.2969V576.127C68.2969 578.248 66.5508 579.725 64.1484 579.725C61.2891 579.725 59.7656 577.65 59.7656 574.17V571.943C59.7656 568.041 61.8164 566.459 64.207 566.459C66.1523 566.459 67.9219 567.502 68.2266 569.928H70.0781ZM75.9023 581.096V565.1H74.0391V581.096H75.9023ZM80.7305 581.096L82.4062 576.174H88.4531L90.1172 581.096H92.1211L86.3789 565.1H84.5625L78.8203 581.096H80.7305ZM85.4648 567.408L87.9258 574.639H82.9336L85.3945 567.408H85.4648ZM96.9023 581.096V568.299H96.9844L105.176 581.096H107.039V565.1H105.176V577.896H105.082L96.9023 565.1H95.0391V581.096H96.9023ZM123.117 569.928C122.918 567.174 120.938 564.76 117.293 564.76C113.508 564.76 110.953 567.361 110.953 571.943V574.17C110.953 578.658 113.074 581.436 117.223 581.436C121.723 581.436 123.164 578.154 123.164 576.127V572.799H117.07V574.51H121.336V576.127C121.336 578.248 119.59 579.725 117.188 579.725C114.328 579.725 112.805 577.65 112.805 574.17V571.943C112.805 568.041 114.855 566.459 117.246 566.459C119.191 566.459 120.961 567.502 121.266 569.928H123.117Z" fill="#17479B"/>
<path d="M113.089 661.585H394.242V627.336" stroke="#20C2F2" stroke-width="1.3318" stroke-miterlimit="10"/>
<path d="M115.366 647.67H120.991C124.284 647.67 126.581 646.123 126.581 643.193C126.581 641.084 125.397 639.549 123.124 639.232V639.15C124.635 638.67 125.655 637.533 125.655 635.611C125.655 633.127 123.874 631.674 121.26 631.674H115.366V647.67ZM117.229 633.361H120.991C122.538 633.361 123.756 634.123 123.756 635.928C123.756 637.861 122.385 638.6 119.737 638.6H117.229V633.361ZM117.229 640.287H121.225C123.252 640.287 124.67 641.236 124.67 643.24C124.67 645.572 122.69 645.971 120.077 645.971H117.229V640.287ZM130.518 647.67L132.194 642.748H138.241L139.905 647.67H141.909L136.167 631.674H134.35L128.608 647.67H130.518ZM135.252 633.982L137.713 641.213H132.721L135.182 633.982H135.252ZM134.045 650.6C134.045 651.303 134.549 651.76 135.264 651.76C135.979 651.76 136.483 651.303 136.483 650.6C136.483 649.896 135.979 649.416 135.264 649.416C134.549 649.416 134.045 649.896 134.045 650.6ZM145.811 638.553C145.811 634.885 147.604 633.033 150.17 633.033C152.76 633.033 154.143 634.932 154.143 636.689H155.995C155.995 634.146 154.073 631.334 150.17 631.334C146.432 631.334 143.959 633.936 143.959 638.518V640.92C143.959 645.596 146.385 648.01 150.147 648.01C154.249 648.01 155.995 645.127 155.995 642.947H154.143C154.143 644.729 152.807 646.299 150.229 646.299C147.581 646.299 145.811 644.623 145.811 640.896V638.553ZM174.592 645.971H167.127V631.674H165.264V647.67H174.592V645.971ZM179.292 647.67V631.674H177.428V647.67H179.292ZM193.331 645.971H185.713V640.334H192.909V638.646H185.713V633.373H193.331V631.674H183.85V647.67H193.331V645.971ZM184.823 630.057H186.686L188.643 628.369H188.702L190.553 630.057H192.463L189.288 627.197H188.127L184.823 630.057ZM198.979 631.674H197.116V642.068C197.116 645.607 199.553 648.01 203.116 648.01C206.678 648.01 209.116 645.654 209.116 642.115V631.674H207.252V642.115C207.252 644.658 205.647 646.311 203.116 646.311C200.573 646.311 198.979 644.658 198.979 642.115V631.674Z" fill="#17479B"/>
<path d="M46.432 724.026H327.574V689.777" stroke="#20C2F2" stroke-width="1.3318" stroke-miterlimit="10"/>
<path d="M49.9194 700.99C49.9194 697.322 51.7124 695.471 54.2788 695.471C56.8687 695.471 58.2515 697.369 58.2515 699.127H60.103C60.103 696.584 58.1812 693.771 54.2788 693.771C50.5405 693.771 48.0679 696.373 48.0679 700.955V703.357C48.0679 708.033 50.4937 710.447 54.2554 710.447C58.3569 710.447 60.103 707.564 60.103 705.385H58.2515C58.2515 707.166 56.9155 708.736 54.3374 708.736C51.689 708.736 49.9194 707.061 49.9194 703.334V700.99ZM64.1812 710.107L65.8569 705.186H71.9038L73.5679 710.107H75.5718L69.8296 694.111H68.0132L62.271 710.107H64.1812ZM68.9155 696.42L71.3765 703.65H66.3843L68.8452 696.42H68.9155ZM70.3687 692.365L67.4038 690.01H65.1772L68.3413 692.365H70.3687ZM85.7085 710.107V698.189H85.8022L90.396 708.877H92.0718L96.6538 698.189H96.7593V710.107H98.4585V694.111H96.6538L91.2749 706.92H91.2046L85.8022 694.111H84.0093V710.107H85.7085ZM103.345 710.107L105.021 705.186H111.068L112.732 710.107H114.736L108.994 694.111H107.177L101.435 710.107H103.345ZM108.08 696.42L110.541 703.65H105.548L108.009 696.42H108.08ZM119.33 694.111H117.466V704.506C117.466 708.045 119.904 710.447 123.466 710.447C127.029 710.447 129.466 708.092 129.466 704.553V694.111H127.603V704.553C127.603 707.096 125.998 708.748 123.466 708.748C120.923 708.748 119.33 707.096 119.33 704.553V694.111Z" fill="#17479B"/>
<path d="M57.6313 275.167H458.008V467.3" stroke="#20C2F2" stroke-width="1.3318" stroke-miterlimit="10"/>
<path d="M64.9586 262.108V247.8H69.8688V246.112H58.1969V247.8H63.0953V262.108H64.9586ZM74.568 262.108V246.112H72.7047V262.108H74.568ZM88.6071 260.409H80.9899V254.772H88.1852V253.085H80.9899V247.812H88.6071V246.112H79.1266V262.108H88.6071V260.409ZM88.8414 241.987L86.3805 239.116H84.2711L87.3883 241.987H88.8414ZM79.7594 244.401H81.8571L83.8375 242.843H83.8961L85.8414 244.401H87.8688L84.8102 241.894H83.0172L79.7594 244.401ZM94.443 262.108V249.312H94.525L102.716 262.108H104.58V246.112H102.716V258.909H102.623L94.443 246.112H92.5797V262.108H94.443ZM126.119 250.94C125.92 248.187 123.939 245.772 120.295 245.772C116.509 245.772 113.955 248.374 113.955 252.956V255.183C113.955 259.671 116.076 262.448 120.224 262.448C124.724 262.448 126.166 259.167 126.166 257.14V253.812H120.072V255.522H124.338V257.14C124.338 259.261 122.591 260.737 120.189 260.737C117.33 260.737 115.806 258.663 115.806 255.183V252.956C115.806 249.054 117.857 247.472 120.248 247.472C122.193 247.472 123.963 248.515 124.267 250.94H126.119ZM131.943 262.108V246.112H130.08V262.108H131.943ZM136.771 262.108L138.447 257.187H144.494L146.158 262.108H148.162L142.42 246.112H140.603L134.861 262.108H136.771ZM141.505 248.421L143.966 255.651H138.974L141.435 248.421H141.505ZM152.943 262.108V249.312H153.025L161.216 262.108H163.08V246.112H161.216V258.909H161.123L152.943 246.112H151.08V262.108H152.943ZM179.158 250.94C178.959 248.187 176.978 245.772 173.334 245.772C169.548 245.772 166.994 248.374 166.994 252.956V255.183C166.994 259.671 169.115 262.448 173.263 262.448C177.763 262.448 179.205 259.167 179.205 257.14V253.812H173.111V255.522H177.377V257.14C177.377 259.261 175.63 260.737 173.228 260.737C170.369 260.737 168.845 258.663 168.845 255.183V252.956C168.845 249.054 170.896 247.472 173.287 247.472C175.232 247.472 177.002 248.515 177.306 250.94H179.158Z" fill="#17479B"/>
</svg>
