<svg width="30" height="30" viewBox="0 0 30 30" fill="none" xmlns="http://www.w3.org/2000/svg">
<circle cx="15" cy="15" r="15" fill="#ED1C24"/>
<g clip-path="url(#clip0)">
<path d="M23.0871 24.3097L23.9777 20.4503C24.0742 20.031 23.8552 19.6005 23.4619 19.4298L19.3056 17.6485C18.942 17.4927 18.5152 17.5966 18.2666 17.9046L16.4259 20.1534C13.5797 18.8175 11.2121 16.4833 9.85016 13.5776L12.099 11.737C12.407 11.4847 12.5109 11.0616 12.355 10.6979L10.5738 6.54169C10.3994 6.14462 9.96891 5.92568 9.54958 6.02216L5.6902 6.91279C5.28942 7.00556 4.99997 7.36181 4.99997 7.78115C4.99997 17.2849 12.7002 24.9999 22.2187 24.9999C22.6343 24.9999 22.9943 24.7142 23.0871 24.3097Z" fill="white"/>
</g>
<defs>
<clipPath id="clip0">
<rect width="19" height="19" fill="white" transform="translate(24 6) rotate(90)"/>
</clipPath>
</defs>
</svg>
