<svg width="219" height="212" viewBox="0 0 219 212" fill="none" xmlns="http://www.w3.org/2000/svg">
<path d="M125.889 110.219C132.553 114.348 137.235 121.528 138.136 129.606C140.837 130.862 143.899 131.58 147.141 131.58C158.847 131.58 168.392 122.066 168.392 110.398C168.392 98.7303 158.847 89.2163 147.141 89.2163C135.434 89.3958 126.069 98.7303 125.889 110.219ZM112.021 153.48C123.728 153.48 133.273 143.967 133.273 132.298C133.273 120.63 123.728 111.296 112.021 111.296C100.315 111.296 90.7698 120.81 90.7698 132.478C90.7698 144.146 100.315 153.48 112.021 153.48ZM121.026 154.917H103.016C88.0683 154.917 76.0017 167.123 76.0017 181.843V203.743V204.102L77.4425 204.641C91.6702 209.128 104.097 210.564 114.363 210.564C134.354 210.564 145.88 204.82 146.6 204.461L148.041 203.743H148.221V181.843C148.221 166.944 135.975 154.917 121.026 154.917ZM156.146 133.016H138.316C138.136 140.197 135.074 146.48 130.211 151.147C143.539 155.096 153.264 167.303 153.264 181.843V188.664C170.914 187.946 180.999 183.099 181.72 182.74L183.16 182.022H183.34V160.122C183.16 145.223 171.094 133.016 156.146 133.016ZM160.108 88.1393C166.771 92.268 171.454 99.4483 172.354 107.526C175.056 108.783 178.118 109.501 181.359 109.501C193.066 109.501 202.611 99.9868 202.611 88.3188C202.611 76.6507 193.066 67.1367 181.359 67.1367C169.653 67.3162 160.288 76.6507 160.108 88.1393ZM190.364 110.937H172.535C172.354 118.117 169.293 124.4 164.43 129.067C177.757 133.016 187.483 145.223 187.483 159.763V166.585C205.132 165.867 215.218 161.02 215.938 160.661L217.379 159.943H217.559V138.043C217.379 123.143 205.313 110.937 190.364 110.937ZM74.9211 131.58C79.0633 131.58 82.8454 130.324 86.2673 128.349C87.3479 121.528 90.9499 115.784 96.1727 111.655C96.1727 111.296 96.1727 110.937 96.1727 110.398C96.1727 98.7303 86.6275 89.2163 74.9211 89.2163C63.2147 89.2163 53.6694 98.7303 53.6694 110.398C53.8495 122.246 63.2147 131.58 74.9211 131.58ZM94.0115 151.147C89.1489 146.48 86.2673 140.197 85.9071 133.196C85.1867 133.196 84.6464 133.016 83.926 133.016H65.9161C50.9679 133.016 38.9013 145.223 38.9013 159.943V181.843V182.202L40.3421 182.74C51.8684 186.331 61.954 187.946 70.7788 188.485V181.843C70.9589 167.482 80.6842 155.096 94.0115 151.147ZM37.6406 109.501C41.7829 109.501 45.565 108.244 48.9869 106.27C50.0674 99.4483 53.6694 93.704 58.8923 89.5753C58.8923 89.2163 58.8923 88.8573 58.8923 88.3188C58.8923 76.6507 49.3471 67.1367 37.8207 67.1367C26.1143 67.1367 16.5691 76.6507 16.5691 88.3188C16.389 100.166 25.9342 109.501 37.6406 109.501ZM56.551 129.067C51.6883 124.4 48.8068 118.117 48.4466 111.116C47.7262 111.116 47.1859 110.937 46.4655 110.937H28.4556C13.5074 110.937 1.4408 122.964 1.4408 137.863V159.763V160.122L2.88159 160.661C14.4079 164.251 24.4934 165.867 33.3183 166.405V159.763C33.6785 145.223 43.4038 133.016 56.551 129.067Z" fill="#184999"/>
<path d="M105.898 21.9004H123.548L110.581 41.1078H127.51L103.917 75.7531L110.941 49.1857H94.1917L105.898 21.9004Z" fill="#91B2DB" stroke="#184999" stroke-width="2" stroke-miterlimit="10" stroke-linecap="round" stroke-linejoin="round"/>
<path d="M110.941 88.6772C135.012 88.6772 154.525 69.228 154.525 45.2361C154.525 21.2442 135.012 1.79492 110.941 1.79492C86.8701 1.79492 67.3569 21.2442 67.3569 45.2361C67.3569 69.228 86.8701 88.6772 110.941 88.6772Z" stroke="#184999" stroke-width="2" stroke-miterlimit="10" stroke-linecap="round" stroke-linejoin="round"/>
</svg>
