<svg width="193" height="259" viewBox="0 0 193 259" fill="none" xmlns="http://www.w3.org/2000/svg">
<g clip-path="url(#clip0)">
<path d="M149.7 101.5C153.4 95.6002 155.5 88.6002 155.5 81.1002C155.5 80.5002 155.5 79.8002 155.5 79.2002C155.5 79.0002 155.5 78.8002 155.5 78.6002C155.5 78.2002 155.4 77.8002 155.4 77.3002C155.4 77.1002 155.3 76.8002 155.3 76.6002C155.3 76.2002 155.2 75.8002 155.2 75.5002C155.2 75.2002 155.1 75.0002 155.1 74.7002C155 74.3002 155 74.0002 154.9 73.6002C154.9 73.3002 154.8 73.1002 154.7 72.8002C154.6 72.4002 154.5 72.1002 154.4 71.7002C154.3 71.5002 154.3 71.2002 154.2 71.0002C154.1 70.6002 154 70.2002 153.9 69.9002C153.8 69.7002 153.8 69.5002 153.7 69.3002C153.5 68.8002 153.4 68.3002 153.2 67.8002C153.2 67.7002 153.1 67.6002 153.1 67.6002C152.9 67.0002 152.7 66.5002 152.4 65.9002C152.3 65.7002 152.2 65.5002 152.1 65.3002C151.9 64.9002 151.8 64.6002 151.6 64.2002C151.5 64.0002 151.4 63.8002 151.3 63.5002C151.1 63.2002 151 62.9002 150.8 62.6002C150.7 62.4002 150.5 62.1002 150.4 61.9002C150.2 61.6002 150.1 61.3002 149.9 61.0002C149.8 60.8002 149.6 60.5002 149.5 60.3002C149.3 60.0002 149.1 59.7002 148.9 59.5002C148.8 59.3002 148.6 59.1002 148.5 58.8002C148.3 58.5002 148.1 58.2002 147.9 58.0002C147.8 57.8002 147.6 57.6002 147.5 57.4002C147.2 57.1002 147 56.7002 146.7 56.4002C146.6 56.2002 146.4 56.0002 146.3 55.9002C146 55.5002 145.6 55.1002 145.2 54.7002C145 54.5002 144.9 54.3002 144.7 54.2002C144.5 54.0002 144.2 53.7002 144 53.5002C143.8 53.3002 143.6 53.1002 143.4 52.9002C143.2 52.7002 142.9 52.5002 142.7 52.3002C142.5 52.1002 142.3 51.9002 142.1 51.7002C141.9 51.5002 141.6 51.3002 141.4 51.1002C141.2 50.9002 141 50.7002 140.7 50.6002C140.5 50.4002 140.2 50.2002 140 50.0002C139.8 49.8002 139.5 49.7002 139.3 49.5002C139 49.3002 138.8 49.1002 138.5 49.0002C138.3 48.8002 138 48.7002 137.8 48.5002C137.5 48.3002 137.2 48.1002 136.9 48.0002C136.6 47.8002 136.2 47.6002 135.9 47.4002C135.5 47.2002 135.1 47.0002 134.8 46.8002C134.5 46.7002 134.3 46.5002 134 46.4002C133.7 46.3002 133.4 46.1002 133.2 46.0002C132.9 45.9002 132.7 45.8002 132.4 45.6002C132.1 45.5002 131.8 45.4002 131.6 45.2002C131.3 45.1002 131 45.0002 130.7 44.9002C130.4 44.8002 130.1 44.7002 129.9 44.6002C129.6 44.5002 129.3 44.4002 129 44.3002C128.7 44.2002 128.4 44.1002 128.1 44.0002C127.8 43.9002 127.5 43.8002 127.2 43.7002C126.9 43.6002 126.6 43.5002 126.3 43.5002C126 43.4002 125.7 43.3002 125.4 43.3002C125.1 43.2002 124.8 43.2002 124.4 43.1002C121.6 42.5002 118.6 42.2002 115.6 42.3002C105.3 42.5002 96 46.9002 89.1 53.7002L89 53.8002C88.7 54.1002 88.3 54.5002 88 54.9002C87.9 55.0002 87.8 55.1002 87.8 55.1002C87.5 55.4002 87.2 55.8002 86.9 56.1002C86.8 56.2002 86.7 56.3002 86.6 56.4002C86.3 56.7002 86.1 57.1002 85.8 57.4002C85.7 57.5002 85.6 57.7002 85.5 57.8002C85.3 58.1002 85 58.4002 84.8 58.8002C84.7 59.0002 84.6 59.1002 84.4 59.3002C84.2 59.6002 84 59.9002 83.8 60.2002C83.7 60.4002 83.6 60.6002 83.4 60.8002C83.2 61.1002 83 61.4002 82.8 61.7002C82.7 61.9002 82.6 62.1002 82.4 62.3002C82.2 62.6002 82.1 62.9002 81.9 63.2002C81.8 63.4002 81.7 63.7002 81.5 63.9002C81.4 64.2002 81.2 64.5002 81.1 64.8002C81 65.1002 80.9 65.3002 80.8 65.6002C80.7 65.9002 80.5 66.2002 80.4 66.5002C80.3 66.8002 80.2 67.0002 80.1 67.3002C80 67.6002 79.9 67.9002 79.8 68.2002C79.7 68.5002 79.6 68.8002 79.5 69.1002C79.4 69.4002 79.3 69.7002 79.2 70.0002C79.1 70.3002 79 70.6002 78.9 70.9002C78.8 71.2002 78.7 71.5002 78.7 71.8002C78.6 72.1002 78.6 72.4002 78.5 72.8002C78.4 73.1002 78.4 73.4002 78.3 73.7002C78.2 74.0002 78.2 74.4002 78.1 74.7002C78.1 75.0002 78 75.3002 78 75.5002C77.9 75.9002 77.9 76.2002 77.9 76.6002C77.9 76.9002 77.8 77.1002 77.8 77.4002C77.8 77.8002 77.7 78.2002 77.7 78.6002C77.7 78.8002 77.7 79.0002 77.7 79.3002C77.7 79.9002 77.7 80.5002 77.7 81.1002V81.2002C77.7 82.9002 77.8 84.6002 78 86.2002C79.1 94.7002 82.9 102.3 88.5 108.2C90.7 110.5 91.9 113.5 91.9 116.7V124.7C91.9 129.1 94.5 132.8 98.3 134.4C99.2 134.8 100.3 135.1 101.3 135.2C101.7 135.2 102 135.3 102.4 135.3H130.9C131.3 135.3 131.6 135.3 132 135.2C133.4 135.1 134.7 134.6 135.9 134C139.2 132.2 141.4 128.7 141.4 124.8V116.8C141.4 114.5 142.1 112.2 143.3 110.3C143.8 109.6 144.3 108.8 144.9 108.2C146.7 106 148.3 103.8 149.7 101.5Z" stroke="#184999" stroke-width="3.1596" stroke-miterlimit="10"/>
<path d="M116.6 106C130.131 106 141.1 95.031 141.1 81.5C141.1 67.969 130.131 57 116.6 57C103.069 57 92.1 67.969 92.1 81.5C92.1 95.031 103.069 106 116.6 106Z" fill="#91B2DB" stroke="#184999" stroke-width="2.9936" stroke-miterlimit="10" stroke-linecap="round" stroke-linejoin="round"/>
<path d="M98.5 142H134.7" stroke="#184999" stroke-width="3.1596" stroke-miterlimit="10"/>
<path d="M101.6 149H131.6" stroke="#184999" stroke-width="3.1596" stroke-miterlimit="10"/>
<path d="M105.1 155.5C106.9 160.1 111.3 163.4 116.5 163.4C121.7 163.4 126.2 160.1 127.9 155.5H105.1Z" fill="#91B2DB" stroke="#184999" stroke-width="3.1596" stroke-miterlimit="10"/>
<path d="M114.3 95.7L114.5 92.1C112.8 91.9 111 91.5 109.1 91V86C111.7 87 113.9 87.5 115.6 87.5C117.6 87.5 118.6 86.9 118.6 85.6C118.6 85 118 84.4 116.7 83.9L113.1 82.5C111.9 82 110.9 81.3 110.1 80.4C109.2 79.3 108.8 78.1 108.8 76.6C108.8 74.8 109.5 73.3 110.9 72.1C112 71.2 113.3 70.6 114.8 70.3L114.7 67.5H118.9L118.7 70.3C119.6 70.4 120.8 70.6 122.3 70.9V75.3C120.4 74.8 118.9 74.6 117.6 74.6C115.5 74.6 114.4 75.2 114.4 76.5C114.4 77.2 115 77.7 116.1 78.1L119 79.1C122.5 80.4 124.3 82.5 124.3 85.5C124.3 87.4 123.6 89 122.3 90.3C121.2 91.3 119.9 91.9 118.4 92.2L118.5 95.8H114.3V95.7Z" fill="#184999"/>
<path d="M118.4 0C117.7 0 117.1 0.6 117.1 1.3V16.9C117.1 17.6 117.7 18.2 118.4 18.2C119.1 18.2 119.7 17.6 119.7 16.9V1.3C119.8 0.6 119.2 0 118.4 0Z" fill="#184999"/>
<path d="M190.9 74.2998H175.3C174.6 74.2998 174 74.8998 174 75.5998C174 76.2998 174.6 76.8998 175.3 76.8998H190.9C191.6 76.8998 192.2 76.2998 192.2 75.5998C192.2 74.8998 191.6 74.2998 190.9 74.2998Z" fill="#184999"/>
<path d="M57.9 74.2998H42.3C41.6 74.2998 41 74.8998 41 75.5998C41 76.2998 41.6 76.8998 42.3 76.8998H57.9C58.6 76.8998 59.2 76.2998 59.2 75.5998C59.2 74.8998 58.6 74.2998 57.9 74.2998Z" fill="#184999"/>
<path d="M171.4 19.5C171.1 19.5 170.7 19.6 170.4 19.9L158.3 32C158 32.3 157.9 32.6 157.9 33C157.9 33.4 158 33.7 158.3 34C158.6 34.3 158.9 34.4 159.3 34.4C159.7 34.4 160 34.3 160.3 34L172.5 21.8C173 21.3 173 20.4 172.5 19.9C172.1 19.6 171.7 19.5 171.4 19.5Z" fill="#184999"/>
<path d="M62.7 19.9C62.4 19.6 62.1 19.5 61.7 19.5C61.3 19.5 61 19.6 60.7 19.9C60.2 20.4 60.2 21.3 60.7 21.8L73 33.9C73.5 34.4 74.4 34.4 74.9 33.9C75.2 33.6 75.3 33.3 75.3 32.9C75.3 32.5 75.2 32.2 74.9 31.9L62.7 19.9Z" fill="#184999"/>
<path d="M184.1 150.8C181.8 148.9 178.8 147.8 175.8 147.9C172 147.9 168.5 149.6 166.1 152.4V152.5L144.1 175.6L142.3 177.4L140.7 175.4C138.2 172.4 134.5 170.7 130.7 170.7L88.6 171.1H88.1L87.7 170.9C82 168.6 75.9 167.4 69.6 167.5C51.7 167.7 37 176.2 29.2999 190.9L28.5 192.4L26.9 192.1C26.2999 192 25.8 192 25.2 192C22.8 192 20.5 193 18.7999 194.7L0.899951 213C0.299951 213.6 0.299951 214.5 0.899951 215.1L43.7 257.4C44 257.7 44.3999 257.8 44.7999 257.8C45.2 257.8 45.6 257.6 45.9 257.4L64 239.2C66.3999 236.8 67.2 233.1 66 229.8L65.5 228.4L66.5 227.4L70.4 223.6C72.9 221.1 76.3 219.7 79.8 219.7L130 219.2C138.3 219.1 146.1 215.8 152 210C152.3 209.7 153.6 208.1 158 202.6C162.7 196.9 171 186.8 185.6 168.9C190.3 163.5 189.5 155.4 184.1 150.8ZM61.9 237.1L44.7999 254.2L4.09995 214.1L20.9 197C22.9 195 25.9 194.6 28.2999 196.1C28.9 196.4 28.9 196.4 35.5 202.9C40.2 207.5 48 215.2 61.7999 228.7C63 229.8 63.5999 231.4 63.5999 233C63.5999 234.5 63 236 61.9 237.1ZM183.4 167L149.9 207.9L149.8 208C144.5 213.2 137.5 216.1 130 216.2L79.8 216.7C75.5 216.7 71.4 218.4 68.3 221.5L63.5 226.2L30.7999 194.2L31.6 192.7C38.7999 178.9 52.5 170.9 69.4 170.8C75.5 170.7 81.4 171.9 87 174.3C87.2 174.4 87.4 174.4 87.6 174.4L130.5 174C135.9 173.9 140.4 178.3 140.4 183.7C140.5 189.1 136.1 193.6 130.7 193.6L99.9 193.9C99.1 193.9 98.4 194.6 98.4 195.4C98.4 196.2 99.1 196.9 99.9 196.9L130.7 196.6C137.8 196.5 143.5 190.7 143.4 183.6C143.4 183.1 143.4 182.5 143.3 181.9L143.1 180.8L159.4 163.7C165.9 156.9 168 154.7 168.2 154.4C171.7 150.3 177.8 149.7 182 153.1C186.3 156.6 186.9 162.8 183.4 167Z" fill="#184999" stroke="#184999" stroke-miterlimit="10"/>
<path d="M61.9 237.1L44.8 254.2L4.09998 214.1L20.9 197C22.9 195 25.9 194.6 28.3 196.1C28.9 196.4 28.9 196.4 35.5 202.9C40.2 207.5 48 215.2 61.8 228.7C63 229.8 63.6 231.4 63.6 233C63.6 234.5 63 236 61.9 237.1Z" fill="#91B2DB"/>
</g>
<defs>
<clipPath id="clip0">
<rect width="192.2" height="258.4" fill="white"/>
</clipPath>
</defs>
</svg>
