<svg width="95" height="193" viewBox="0 0 95 193" fill="none" xmlns="http://www.w3.org/2000/svg">
<g clip-path="url(#clip0)">
<path d="M22.5622 0.208008L1.55273 70.5954L24.3499 77.4219L34.9793 41.805L22.5622 0.208008Z" fill="#062D5B"/>
<path d="M24.3496 77.4221L47.1468 84.2346L47.3962 83.416L34.9791 41.8052L24.3496 77.4221Z" fill="#062D5B"/>
<path d="M34.9513 0.208008L11.877 73.3704" stroke="white" stroke-width="5" stroke-miterlimit="10"/>
<path d="M49.1277 42.2212L37.0293 81.1958" stroke="white" stroke-width="5" stroke-miterlimit="10"/>
<path d="M59.7982 41.805L47.3949 0.208008H22.5605L34.9777 41.805L47.3949 83.4158L47.6305 84.2345L70.4277 77.4219L59.7982 41.805Z" fill="#0B387A"/>
<path d="M72.217 0.208008H47.3965L59.7998 41.805L70.4292 77.4219L93.2264 70.5954L72.217 0.208008Z" fill="#0B387A"/>
<path d="M62 -1L85.1021 73.3834" stroke="white" stroke-width="5" stroke-miterlimit="10"/>
<path d="M34.5 -1L59.8964 80.5715" stroke="white" stroke-width="5" stroke-miterlimit="10"/>
<path d="M47.396 96.9438C50.9015 96.9438 53.7432 94.0987 53.7432 90.5891C53.7432 87.0795 50.9015 84.2344 47.396 84.2344C43.8906 84.2344 41.0488 87.0795 41.0488 90.5891C41.0488 94.0987 43.8906 96.9438 47.396 96.9438Z" stroke="#407EBC" stroke-width="2" stroke-miterlimit="10"/>
<path d="M47.4239 189.531C23.1854 189.531 3.46484 169.787 3.46484 145.52C3.46484 121.253 23.1854 101.509 47.4239 101.509C71.6623 101.509 91.3829 121.253 91.3829 145.52C91.3829 169.787 71.6623 189.531 47.4239 189.531Z" fill="white"/>
<path d="M47.4237 104.977C69.7496 104.977 87.9181 123.167 87.9181 145.52C87.9181 167.872 69.7496 186.062 47.4237 186.062C25.0977 186.062 6.92923 167.872 6.92923 145.52C6.92923 123.167 25.0977 104.977 47.4237 104.977ZM47.4237 98.04C21.2312 98.04 0 119.296 0 145.52C0 171.744 21.2312 193 47.4237 193C73.6162 193 94.8473 171.744 94.8473 145.52C94.8473 119.296 73.6162 98.04 47.4237 98.04Z" fill="#194B99"/>
<path d="M51.7615 140.373L47.4238 131.59V146.353L61.4486 141.788L51.7615 140.373Z" fill="#407EBC"/>
<path d="M61.4486 141.788L47.4238 146.353L56.0854 158.285L54.4362 148.628L61.4486 141.788Z" fill="#194A9A"/>
<path d="M47.4233 146.353L38.7617 158.285L47.4233 153.734L56.0848 158.285L47.4233 146.353Z" fill="#0B387A"/>
<path d="M47.4232 146.353L33.3984 141.788L40.4108 148.628L38.7617 158.285L47.4232 146.353Z" fill="#407EBC"/>
<path d="M43.0855 140.373L33.3984 141.788L47.4232 146.353V131.59L43.0855 140.373Z" fill="#92B3DC"/>
<path d="M57.9277 164.931C56.9022 166.791 57.5535 169.357 57.5535 169.357C57.5535 169.357 59.8679 168.9 60.9073 167.04C61.9328 165.181 61.2815 162.614 61.2815 162.614C61.2815 162.614 58.9532 163.072 57.9277 164.931Z" fill="#92B3DC"/>
<path d="M61.4472 169.787C59.8119 168.622 57.5391 169.357 57.5391 169.357C57.5391 169.357 57.941 171.98 59.5763 173.159C61.2116 174.325 63.4844 173.589 63.4844 173.589C63.4844 173.589 63.0963 170.953 61.4472 169.787Z" fill="#194A9A"/>
<path d="M62.1958 163.502C61.6276 165.597 62.8472 167.887 62.8472 167.887C62.8472 167.887 64.9814 166.777 65.5496 164.668C66.1178 162.573 64.8982 160.283 64.8982 160.283C64.8982 160.283 62.764 161.407 62.1958 163.502Z" fill="#92B3DC"/>
<path d="M66.7005 167.151C64.8573 166.499 62.834 167.887 62.834 167.887C62.834 167.887 63.8179 170.315 65.675 170.953C67.532 171.591 69.5415 170.218 69.5415 170.218C69.5415 170.218 68.5575 167.79 66.7005 167.151Z" fill="#194A9A"/>
<path d="M65.9806 160.866C65.9113 163.058 67.602 164.917 67.602 164.917C67.602 164.917 69.4175 163.211 69.4868 161.019C69.5561 158.826 67.8653 156.981 67.8653 156.981C67.8653 156.981 66.0499 158.674 65.9806 160.866Z" fill="#92B3DC"/>
<path d="M71.177 163.072C69.2369 162.989 67.6016 164.917 67.6016 164.917C67.6016 164.917 69.1121 166.971 71.0385 167.054C72.9786 167.137 74.6001 165.209 74.6001 165.209C74.6001 165.209 73.1172 163.141 71.177 163.072Z" fill="#194A9A"/>
<path d="M69.043 157.203C69.4726 159.34 71.5375 160.63 71.5375 160.63C71.5375 160.63 72.8956 158.452 72.466 156.315C72.0364 154.178 69.9715 152.888 69.9715 152.888C69.9715 152.888 68.6134 155.066 69.043 157.203Z" fill="#92B3DC"/>
<path d="M74.5583 157.813C72.6735 158.299 71.5371 160.644 71.5371 160.644C71.5371 160.644 73.4634 162.184 75.3482 161.698C77.2329 161.213 78.3693 158.868 78.3693 158.868C78.3693 158.868 76.4569 157.314 74.5583 157.813Z" fill="#194A9A"/>
<path d="M71.1615 152.777C72.0623 154.719 74.349 155.358 74.349 155.358C74.349 155.358 75.1666 152.86 74.252 150.918C73.3512 148.975 71.0645 148.337 71.0645 148.337C71.0645 148.337 70.2607 150.834 71.1615 152.777Z" fill="#92B3DC"/>
<path d="M76.6361 151.736C74.9176 152.763 74.3633 155.357 74.3633 155.357C74.3633 155.357 76.5668 156.287 78.2852 155.246C79.9898 154.22 80.558 151.625 80.558 151.625C80.558 151.625 78.3545 150.709 76.6361 151.736Z" fill="#194A9A"/>
<path d="M72.2027 147.865C73.5192 149.474 75.8752 149.419 75.8752 149.419C75.8752 149.419 76.0969 146.769 74.7665 145.159C73.4499 143.55 71.094 143.605 71.094 143.605C71.094 143.605 70.8861 146.255 72.2027 147.865Z" fill="#92B3DC"/>
<path d="M77.2471 145.256C75.8336 146.755 75.8751 149.419 75.8751 149.419C75.8751 149.419 78.2172 149.668 79.6308 148.17C81.0443 146.671 81.0028 144.007 81.0028 144.007C81.0028 144.007 78.6745 143.771 77.2471 145.256Z" fill="#194A9A"/>
<path d="M72.0919 142.828C73.7272 143.994 76 143.258 76 143.258C76 143.258 75.5981 140.636 73.9628 139.471C72.3275 138.305 70.0547 139.04 70.0547 139.04C70.0547 139.04 70.4427 141.663 72.0919 142.828Z" fill="#92B3DC"/>
<path d="M76.373 138.832C75.3475 140.691 75.9988 143.258 75.9988 143.258C75.9988 143.258 78.3132 142.8 79.3526 140.941C80.3781 139.082 79.7268 136.515 79.7268 136.515C79.7268 136.515 77.3985 136.973 76.373 138.832Z" fill="#194A9A"/>
<path d="M70.8156 137.986C72.6726 138.624 74.6821 137.251 74.6821 137.251C74.6821 137.251 73.6982 134.823 71.8411 134.184C69.9841 133.546 67.9746 134.92 67.9746 134.92C67.9746 134.92 68.9724 137.348 70.8156 137.986Z" fill="#92B3DC"/>
<path d="M74.0454 132.88C73.4772 134.975 74.6968 137.265 74.6968 137.265C74.6968 137.265 76.831 136.141 77.3992 134.046C77.9674 131.95 76.7478 129.661 76.7478 129.661C76.7478 129.661 74.6136 130.771 74.0454 132.88Z" fill="#194A9A"/>
<path d="M69.0553 131.437C70.358 133.06 72.714 133.06 72.714 133.06C72.714 133.06 72.9634 130.41 71.6607 128.773C70.358 127.15 68.016 127.164 68.016 127.164C68.016 127.164 67.7527 129.814 69.0553 131.437Z" fill="#92B3DC"/>
<path d="M36.919 164.931C37.9445 166.791 37.2932 169.357 37.2932 169.357C37.2932 169.357 34.9788 168.9 33.9394 167.04C32.9139 165.181 33.5652 162.614 33.5652 162.614C33.5652 162.614 35.8935 163.072 36.919 164.931Z" fill="#92B3DC"/>
<path d="M33.3985 169.787C35.0338 168.622 37.3066 169.357 37.3066 169.357C37.3066 169.357 36.9047 171.98 35.2694 173.159C33.6341 174.325 31.3613 173.589 31.3613 173.589C31.3613 173.589 31.7494 170.953 33.3985 169.787Z" fill="#194A9A"/>
<path d="M32.6492 163.502C33.2174 165.597 31.9978 167.887 31.9978 167.887C31.9978 167.887 29.8636 166.777 29.2954 164.668C28.7272 162.573 29.9468 160.283 29.9468 160.283C29.9468 160.283 32.081 161.407 32.6492 163.502Z" fill="#92B3DC"/>
<path d="M28.1457 167.151C29.9888 166.499 32.0122 167.887 32.0122 167.887C32.0122 167.887 31.0282 170.315 29.1712 170.953C27.3142 171.591 25.3047 170.218 25.3047 170.218C25.3047 170.218 26.2886 167.79 28.1457 167.151Z" fill="#194A9A"/>
<path d="M28.8657 160.866C28.935 163.058 27.2442 164.917 27.2442 164.917C27.2442 164.917 25.4288 163.211 25.3595 161.019C25.2902 158.826 26.9809 156.981 26.9809 156.981C26.9809 156.981 28.7964 158.674 28.8657 160.866Z" fill="#92B3DC"/>
<path d="M23.6691 163.072C25.6093 162.989 27.2446 164.917 27.2446 164.917C27.2446 164.917 25.734 166.971 23.8077 167.054C21.8675 167.137 20.2461 165.209 20.2461 165.209C20.2461 165.209 21.7289 163.141 23.6691 163.072Z" fill="#194A9A"/>
<path d="M25.8039 157.203C25.3743 159.34 23.3094 160.63 23.3094 160.63C23.3094 160.63 21.9513 158.452 22.3809 156.315C22.8105 154.178 24.8754 152.888 24.8754 152.888C24.8754 152.888 26.2335 155.066 25.8039 157.203Z" fill="#92B3DC"/>
<path d="M20.274 157.813C22.1587 158.299 23.2951 160.644 23.2951 160.644C23.2951 160.644 21.3688 162.184 19.484 161.698C17.5993 161.213 16.4629 158.868 16.4629 158.868C16.4629 158.868 18.3892 157.314 20.274 157.813Z" fill="#194A9A"/>
<path d="M23.6839 152.777C22.7831 154.719 20.4964 155.358 20.4964 155.358C20.4964 155.358 19.6788 152.86 20.5934 150.918C21.4942 148.975 23.7809 148.337 23.7809 148.337C23.7809 148.337 24.5847 150.834 23.6839 152.777Z" fill="#92B3DC"/>
<path d="M18.2091 151.736C19.9275 152.763 20.4818 155.357 20.4818 155.357C20.4818 155.357 18.2783 156.287 16.5599 155.246C14.8553 154.22 14.2871 151.625 14.2871 151.625C14.2871 151.625 16.4906 150.709 18.2091 151.736Z" fill="#194A9A"/>
<path d="M22.6434 147.865C21.3268 149.474 18.9709 149.419 18.9709 149.419C18.9709 149.419 18.7492 146.769 20.0796 145.159C21.3961 143.55 23.7521 143.605 23.7521 143.605C23.7521 143.605 23.9599 146.255 22.6434 147.865Z" fill="#92B3DC"/>
<path d="M17.5995 145.256C19.0131 146.755 18.9715 149.419 18.9715 149.419C18.9715 149.419 16.6294 149.668 15.2159 148.17C13.8023 146.671 13.8439 144.007 13.8439 144.007C13.8439 144.007 16.1721 143.771 17.5995 145.256Z" fill="#194A9A"/>
<path d="M22.7557 142.828C21.1204 143.994 18.8477 143.258 18.8477 143.258C18.8477 143.258 19.2496 140.636 20.8848 139.471C22.5201 138.305 24.7929 139.04 24.7929 139.04C24.7929 139.04 24.4049 141.663 22.7557 142.828Z" fill="#92B3DC"/>
<path d="M18.4737 138.832C19.4992 140.691 18.8479 143.258 18.8479 143.258C18.8479 143.258 16.5335 142.8 15.4941 140.941C14.4686 139.082 15.1199 136.515 15.1199 136.515C15.1199 136.515 17.4482 136.973 18.4737 138.832Z" fill="#194A9A"/>
<path d="M24.0306 137.986C22.1735 138.624 20.1641 137.251 20.1641 137.251C20.1641 137.251 21.148 134.823 23.005 134.184C24.8621 133.546 26.8716 134.92 26.8716 134.92C26.8716 134.92 25.8737 137.348 24.0306 137.986Z" fill="#92B3DC"/>
<path d="M20.8015 132.88C21.3697 134.975 20.1502 137.265 20.1502 137.265C20.1502 137.265 18.016 136.141 17.4478 134.046C16.8796 131.95 18.0991 129.661 18.0991 129.661C18.0991 129.661 20.2333 130.771 20.8015 132.88Z" fill="#194A9A"/>
<path d="M25.7891 131.437C24.4864 133.06 22.1305 133.06 22.1305 133.06C22.1305 133.06 21.881 130.41 23.1837 128.773C24.4864 127.15 26.8285 127.164 26.8285 127.164C26.8285 127.164 27.0918 129.814 25.7891 131.437Z" fill="#92B3DC"/>
</g>
<defs>
<clipPath id="clip0">
<rect width="94.8473" height="193" fill="white"/>
</clipPath>
</defs>
</svg>
