<svg width="116" height="114" viewBox="0 0 116 114" fill="none" xmlns="http://www.w3.org/2000/svg">
<path d="M32.8667 112.1H83.1333C85.2648 112.093 86.9927 110.395 87 108.3V17.0998C86.9927 15.0051 85.2648 13.3069 83.1333 13.2998H32.8667C30.7352 13.3069 29.0072 15.0051 29 17.0998V108.3C29.0072 110.395 30.7352 112.093 32.8667 112.1ZM40.6 70.2998C40.6 51.4138 58.116 34.1998 77.3333 34.1998L75.4 58.8998C75.4 77.7858 57.884 94.9998 38.6667 94.9998L40.6 70.2998Z" fill="#92B3DC"/>
<path d="M83.1333 11.4H69.6V5.7C69.6 2.55312 67.0021 0 63.8 0H52.2C48.9979 0 46.4 2.55312 46.4 5.7V11.4H32.8666C29.6646 11.4 27.0667 13.9531 27.0667 17.1V108.3C27.0667 111.447 29.6646 114 32.8666 114H83.1333C86.3354 114 88.9333 111.447 88.9333 108.3V17.1C88.9333 13.9531 86.3354 11.4 83.1333 11.4ZM50.2666 5.7C50.2666 4.65025 51.1318 3.8 52.2 3.8H63.8C64.8681 3.8 65.7333 4.65025 65.7333 5.7V11.4H50.2666V5.7ZM85.0666 108.3C85.0666 109.35 84.2015 110.2 83.1333 110.2H32.8666C31.7985 110.2 30.9333 109.35 30.9333 108.3V17.1C30.9333 16.0502 31.7985 15.2 32.8666 15.2H83.1333C84.2015 15.2 85.0666 16.0502 85.0666 17.1V108.3Z" fill="#17479B"/>
<path d="M104.4 7.6V3.8H100.533V0H96.6667V3.8H92.8V7.6H96.6667V11.4H100.533V7.6H104.4Z" fill="#17479B"/>
<path d="M116 17.0998H112.133V13.2998H108.267V17.0998H104.4V20.8998H108.267V24.6998H112.133V20.8998H116V17.0998Z" fill="#17479B"/>
<path d="M19.3334 0H15.4667V3.8H11.6V7.6H15.4667V11.4H19.3334V7.6H23.2V3.8H19.3334V0Z" fill="#17479B"/>
<path d="M7.73333 13.2998H3.86667V17.0998H0V20.8998H3.86667V24.6998H7.73333V20.8998H11.6V17.0998H7.73333V13.2998Z" fill="#17479B"/>
<path d="M77.3333 32.2998C57.0986 32.2998 38.6667 50.4139 38.6667 70.1526L36.7333 94.8526C36.6922 95.3822 36.8759 95.9047 37.2432 96.2918C37.6106 96.6789 38.1253 96.8998 38.6667 96.8974C58.9014 96.8974 77.3333 78.7833 77.3333 59.0447L79.2667 34.3447C79.3077 33.8151 79.1241 33.2926 78.7567 32.9054C78.3894 32.5183 77.8722 32.2974 77.3333 32.2998ZM73.66 36.3611C71.9176 38.7741 70.0132 41.0683 67.9567 43.2272C64.8319 46.4501 62.0914 50.0173 59.7883 53.8506C57.9782 56.7908 56.7675 60.0469 56.2286 63.4432C55.0782 62.0847 54.3436 60.4341 54.114 58.6813C53.9013 56.4464 54.4765 54.2068 55.7452 52.3377L52.5093 50.2643C48.5387 55.9406 49.7712 63.6783 55.3151 67.8892C54.7278 69.8462 53.8941 71.7224 52.8332 73.4752C51.5354 75.7053 50.0443 77.8214 48.3744 79.7998H48.3333V79.8497C47.2917 81.0918 46.2381 82.2532 45.1554 83.4383C43.8335 84.8847 42.4922 86.3572 41.1534 88.0221L42.5333 70.2998C42.5333 53.6107 56.9584 38.3561 73.66 36.3611ZM74.8417 41.1776L74.24 49.0697L72.6353 45.7874C71.7291 46.2102 70.7938 46.5736 69.8392 46.8752C70.1727 46.4952 70.5135 46.1366 70.8494 45.7637C72.1641 44.3173 73.5077 42.8424 74.849 41.1752H74.8417V41.1776ZM42.34 92.8386C44.0824 90.4279 45.9867 88.1361 48.0409 85.9772C48.7732 85.1744 49.5127 84.3622 50.2546 83.5072C53.2271 83.3528 56.1464 82.6712 58.8724 81.4932C61.6975 79.9993 64.0175 77.7241 65.54 74.9501L62.0793 73.2519C60.9314 75.2921 59.2228 76.9712 57.1469 78.0993C56.0497 78.6099 54.8897 78.9852 53.6983 79.2156C54.5417 78.0447 55.3779 76.7836 56.2117 75.3609C58.1692 72.1666 59.4307 68.6088 59.9188 64.9109C60.3369 61.6619 61.4437 58.5341 63.1692 55.7316C64.003 54.2971 64.9165 52.9124 65.9097 51.5801C66.5985 51.5041 67.309 51.4067 68.0557 51.2594C70.1945 50.8438 72.2728 50.1646 74.2424 49.2407L73.4667 58.8998C73.4667 75.5889 59.0416 90.8436 42.34 92.8386Z" fill="#17479B"/>
</svg>
