<svg width="116" height="114" viewBox="0 0 116 114" fill="none" xmlns="http://www.w3.org/2000/svg">
<path d="M78.4934 68.4H91.64L92.8 57H77.3334L78.4934 68.4Z" fill="#92B3DC"/>
<path d="M38.6667 94.9996L37.5067 83.5996H24.36L23.2 94.9996H38.6667Z" fill="#92B3DC"/>
<path d="M110.2 39.9004H5.80002C3.66852 39.9075 1.9406 41.6056 1.93335 43.7004V108.3C1.9406 110.395 3.66852 112.093 5.80002 112.1H110.2C112.332 112.093 114.059 110.395 114.067 108.3V43.7004C114.059 41.6056 112.332 39.9075 110.2 39.9004ZM54.1334 100.7H7.73335V51.3004H54.1334V100.7ZM108.267 100.7H61.8667V51.3004H108.267V100.7Z" fill="#92B3DC"/>
<path d="M68.1114 15.1996H57.9614L65.6948 7.59961H52.7994L48.9327 15.1996H53.6114L49.2614 20.8996H56.5114L52.1614 33.7246L68.1114 15.1996Z" fill="#92B3DC"/>
<path d="M110.2 38H5.8C2.59792 38 0 40.5531 0 43.7V108.3C0 111.447 2.59792 114 5.8 114H110.2C113.402 114 116 111.447 116 108.3V43.7C116 40.5531 113.402 38 110.2 38ZM112.133 108.3C112.133 109.35 111.268 110.2 110.2 110.2H5.8C4.73183 110.2 3.86667 109.35 3.86667 108.3V43.7C3.86667 42.6502 4.73183 41.8 5.8 41.8H110.2C111.268 41.8 112.133 42.6502 112.133 43.7V108.3Z" fill="#17479B"/>
<path d="M54.1333 49.4004H7.73332C6.66515 49.4004 5.79999 50.2506 5.79999 51.3004V100.7C5.79999 101.75 6.66515 102.6 7.73332 102.6H54.1333C55.2015 102.6 56.0666 101.75 56.0666 100.7V51.3004C56.0666 50.2506 55.2015 49.4004 54.1333 49.4004ZM52.2 98.8004H9.66665V53.2004H52.2V98.8004Z" fill="#17479B"/>
<path d="M108.267 49.4004H61.8667C60.7985 49.4004 59.9333 50.2506 59.9333 51.3004V100.7C59.9333 101.75 60.7985 102.6 61.8667 102.6H108.267C109.335 102.6 110.2 101.75 110.2 100.7V51.3004C110.2 50.2506 109.335 49.4004 108.267 49.4004ZM106.333 98.8004H63.8V53.2004H106.333V98.8004Z" fill="#17479B"/>
<path d="M21.7668 96.275C22.1342 96.674 22.6537 96.8996 23.1999 96.8996H38.6666C39.2152 96.902 39.7372 96.6764 40.1069 96.2774C40.4743 95.8784 40.6555 95.344 40.5999 94.8096L38.6859 75.9996L40.5999 57.1896C40.6555 56.6529 40.4743 56.1209 40.1069 55.7219C39.7372 55.3229 39.2152 55.0973 38.6666 55.0996H23.1999C22.6537 55.0996 22.1317 55.3276 21.7668 55.7243C21.4019 56.1233 21.2231 56.6553 21.2762 57.1896L23.1999 75.9996L21.2859 94.8096C21.2279 95.3416 21.4043 95.8736 21.7668 96.275ZM25.3362 93.0996L26.1096 85.4996H35.7666L36.5399 93.0996H25.3362ZM36.5399 58.8996L34.8192 75.8096C34.8047 75.9355 34.8047 76.0638 34.8192 76.1896L35.3799 81.6996H26.5059L27.0666 76.1896C27.0811 76.0638 27.0811 75.9355 27.0666 75.8096L25.3459 58.8996H36.5399Z" fill="#17479B"/>
<path d="M75.9003 96.275C76.2676 96.674 76.7872 96.8996 77.3334 96.8996H92.8C93.3486 96.902 93.8706 96.6764 94.2404 96.2774C94.6077 95.8784 94.7889 95.344 94.7334 94.8096L92.8194 75.9996L94.7334 57.1896C94.7889 56.6529 94.6077 56.1209 94.2404 55.7219C93.8706 55.3229 93.3486 55.0973 92.8 55.0996H77.3334C76.7872 55.0996 76.2652 55.3276 75.9003 55.7243C75.5354 56.1233 75.3566 56.6553 75.4097 57.1896L77.3334 75.9996L75.4194 94.8096C75.3614 95.3416 75.5378 95.8736 75.9003 96.275ZM79.4697 93.0996L81.2 76.1896C81.2121 76.0638 81.2121 75.9355 81.2 75.8096L80.6394 70.2996H89.5134L88.9527 75.8096C88.9406 75.9355 88.9406 76.0638 88.9527 76.1896L90.6734 93.0996H79.4697ZM90.6734 58.8996L89.9 66.4996H80.2527L79.4794 58.8996H90.6734Z" fill="#17479B"/>
<path d="M48.9327 17.1002H49.7495L47.7219 19.7602C47.2821 20.3373 47.212 21.1068 47.5383 21.7504C47.8645 22.3941 48.5339 22.8002 49.2686 22.8002H53.8385L50.3368 33.1243C50.0444 33.9888 50.4165 34.9341 51.2237 35.3806C52.0309 35.8271 53.0483 35.6466 53.6452 34.9531L69.6 16.4281C70.0882 15.8628 70.1945 15.0696 69.8755 14.3974C69.5565 13.7253 68.8677 13.2978 68.1137 13.3002H62.6207L67.0528 8.94445C67.6062 8.40057 67.7706 7.58357 67.4709 6.87345C67.1712 6.16332 66.4656 5.7002 65.685 5.7002H52.7945C52.0623 5.7002 51.3929 6.10632 51.0642 6.75232L47.1975 14.3523C46.8979 14.9413 46.9317 15.6419 47.2821 16.2001C47.6398 16.7606 48.2633 17.1002 48.9327 17.1002ZM53.9956 9.5002H61.0208L56.5887 13.8559C56.0353 14.3998 55.8709 15.2168 56.1706 15.9269C56.4703 16.6371 57.1759 17.1002 57.9565 17.1002H63.9498L57.1832 24.9662L58.3577 21.5011C58.5534 20.9216 58.4543 20.2827 58.0894 19.7863C57.7245 19.2899 57.1373 18.9978 56.5138 19.0002H53.1304L55.1604 16.3402C55.6003 15.7631 55.6703 14.9936 55.3417 14.3499C55.013 13.7063 54.346 13.3002 53.6113 13.3002H52.0647L53.9956 9.5002Z" fill="#17479B"/>
<path d="M96.6667 11.4H100.533V7.6H104.4V3.8H100.533V0H96.6667V3.8H92.8V7.6H96.6667V11.4Z" fill="#17479B"/>
<path d="M112.133 24.7004V20.9004H108.267V24.7004H104.4V28.5004H108.267V32.3004H112.133V28.5004H116V24.7004H112.133Z" fill="#17479B"/>
<path d="M15.4667 11.4H19.3334V7.6H23.2V3.8H19.3334V0H15.4667V3.8H11.6V7.6H15.4667V11.4Z" fill="#17479B"/>
<path d="M3.86667 32.3004H7.73333V28.5004H11.6V24.7004H7.73333V20.9004H3.86667V24.7004H0V28.5004H3.86667V32.3004Z" fill="#17479B"/>
</svg>
