<svg width="116" height="114" viewBox="0 0 116 114" fill="none" xmlns="http://www.w3.org/2000/svg">
<g clip-path="url(#clip0)">
<path d="M58 9.5C31.3055 9.5 9.66663 30.7658 9.66663 57C9.66663 83.2343 31.3055 104.5 58 104.5C84.6945 104.5 106.333 83.2343 106.333 57C106.333 30.7658 84.6945 9.5 58 9.5ZM34.8 87.4C34.1571 87.4048 33.5143 87.3406 32.886 87.21C28.0236 86.2386 24.6983 81.8069 25.1913 76.9548C25.6843 72.1026 29.8385 68.4048 34.8 68.4C35.4428 68.3953 36.0856 68.4594 36.714 68.59C41.5763 69.5614 44.9016 73.9931 44.4086 78.8453C43.9156 83.6974 39.7614 87.3953 34.8 87.4ZM50.2666 74.1L56.0666 57H46.4L52.2 49.4H44.4666L50.2666 38H69.6L58 49.4H71.5333L50.2666 74.1ZM85.0666 38H77.3333V30.4H85.0666V38Z" fill="#92B3DC"/>
<path d="M58 0C25.9671 0 0 25.5194 0 57C0 88.4806 25.9671 114 58 114C90.0329 114 116 88.4806 116 57C115.964 25.536 90.016 0.035625 58 0ZM58 110.2C28.1034 110.2 3.86667 86.3811 3.86667 57C3.86667 27.6189 28.1034 3.8 58 3.8C87.8966 3.8 112.133 27.6189 112.133 57C112.099 86.3669 87.8821 110.167 58 110.2Z" fill="#17479B"/>
<path d="M57.9999 7.59961C30.2373 7.59961 7.73328 29.7156 7.73328 56.9996C7.73328 84.2836 30.2373 106.4 57.9999 106.4C85.7626 106.4 108.267 84.2836 108.267 56.9996C108.235 29.7299 85.7481 7.63048 57.9999 7.59961ZM57.9999 102.6C32.3736 102.6 11.5999 82.1841 11.5999 56.9996C11.5999 31.8151 32.3736 11.3996 57.9999 11.3996C83.6263 11.3996 104.4 31.8151 104.4 56.9996C104.371 82.1722 83.6142 102.569 57.9999 102.6Z" fill="#17479B"/>
<path d="M96.6667 11.4H100.533V7.6H104.4V3.8H100.533V0H96.6667V3.8H92.8V7.6H96.6667V11.4Z" fill="#17479B"/>
<path d="M112.133 17.0998V13.2998H108.267V17.0998H104.4V20.8998H108.267V24.6998H112.133V20.8998H116V17.0998H112.133Z" fill="#17479B"/>
<path d="M15.4666 11.4H19.3333V7.6H23.2V3.8H19.3333V0H15.4666V3.8H11.6V7.6H15.4666V11.4Z" fill="#17479B"/>
<path d="M3.86667 24.6998H7.73333V20.8998H11.6V17.0998H7.73333V13.2998H3.86667V17.0998H0V20.8998H3.86667V24.6998Z" fill="#17479B"/>
<path d="M58 83.6V87.4C75.0762 87.381 88.914 73.7818 88.9333 57H85.0667C85.0498 71.6846 72.9423 83.5834 58 83.6Z" fill="#17479B"/>
<path d="M58 30.3996V26.5996C40.9238 26.6186 27.086 40.2179 27.0667 56.9996H30.9333C30.9502 42.315 43.0577 30.4162 58 30.3996Z" fill="#17479B"/>
<path d="M73.2878 48.5992C72.9712 47.9295 72.2873 47.4996 71.5333 47.4996H62.6665L70.9654 39.3439C71.5188 38.8 71.6831 37.983 71.3835 37.2729C71.0838 36.5627 70.3781 36.0996 69.5975 36.0996H50.2642C49.532 36.0996 48.8625 36.5057 48.5339 37.1517L42.7339 48.5517C42.4342 49.1407 42.4656 49.8414 42.8185 50.3995C43.1713 50.96 43.7948 51.2996 44.4642 51.2996H48.3309L44.8509 55.8596C44.411 56.4367 44.341 57.2062 44.6672 57.8499C44.9959 58.4935 45.6629 58.8996 46.3975 58.8996H53.3817L48.4275 73.4988C48.1351 74.3633 48.5073 75.3085 49.3145 75.755C50.1216 76.2015 51.139 76.021 51.7384 75.3251L73.005 50.6251C73.4956 50.0622 73.6044 49.2714 73.2878 48.5992ZM55.2764 65.3406L57.9033 57.6005C58.099 57.021 58 56.3845 57.6375 55.8881C57.275 55.3917 56.6901 55.0996 56.069 55.0996H50.269L53.749 50.5396C54.1889 49.9625 54.259 49.193 53.9327 48.5494C53.604 47.9057 52.937 47.4996 52.2024 47.4996H47.5986L51.4653 39.8996H64.9358L56.637 48.0554C56.0835 48.5992 55.9192 49.4162 56.2165 50.1264C56.5161 50.8365 57.2218 51.2996 58.0024 51.2996H67.367L55.2764 65.3406Z" fill="#17479B"/>
<path d="M34.7999 66.5C28.3934 66.5 23.2 71.6039 23.2 77.9C23.2 84.1961 28.3934 89.3 34.7999 89.3C41.2065 89.3 46.3999 84.1961 46.3999 77.9C46.3927 71.6063 41.2041 66.5071 34.7999 66.5ZM27.0666 77.9C27.0739 74.3565 29.5703 71.288 33.0865 70.5019C31.7453 71.5089 30.9502 73.0669 30.9333 74.727C30.9985 76.5961 31.9773 78.3204 33.5626 79.3559C34.5003 80.1159 34.7999 80.4246 34.7999 81.0659C34.7999 81.7071 34.4979 82.0159 33.5626 82.7759C32.8086 83.3459 32.1585 84.0394 31.6462 84.8255C28.8646 83.6048 27.0715 80.8925 27.0666 77.9ZM36.5037 85.31C37.8522 84.2983 38.6521 82.7331 38.6666 81.0635C38.6014 79.1944 37.6226 77.4701 36.0397 76.4346C35.102 75.6746 34.7999 75.3659 34.7999 74.7246C34.7999 74.1143 35.0464 73.8292 36.0373 73.0146C36.7937 72.447 37.4414 71.7535 37.9537 70.9674C40.9939 72.2974 42.8233 75.392 42.4946 78.6434C42.1659 81.8971 39.7493 84.5761 36.5037 85.291V85.31Z" fill="#17479B"/>
<path d="M77.3334 39.9H85.0667C86.1349 39.9 87 39.0497 87 38V30.4C87 29.3502 86.1349 28.5 85.0667 28.5H77.3334C76.2652 28.5 75.4 29.3502 75.4 30.4V38C75.4 39.0497 76.2652 39.9 77.3334 39.9ZM79.2667 32.3H83.1334V36.1H79.2667V32.3Z" fill="#17479B"/>
</g>
<defs>
<clipPath id="clip0">
<rect width="116" height="114" fill="white"/>
</clipPath>
</defs>
</svg>
