<svg width="116" height="114" viewBox="0 0 116 114" fill="none" xmlns="http://www.w3.org/2000/svg">
<g clip-path="url(#clip0)">
<path d="M94.7334 77.9004L79.2667 91.2004L94.7334 104.5V96.9004H114.067V85.5004H94.7334V77.9004Z" fill="#92B3DC"/>
<path d="M98.6001 11.3998H79.2667V22.7998H98.6001V30.3998L114.067 17.0998L98.6001 3.7998V11.3998Z" fill="#92B3DC"/>
<path d="M90.19 39.9004L85.3567 49.4004H91.698L86.7294 57.0004H95.004L90.0354 71.5164L108.267 49.4004H96.6474L106.314 39.9004H90.19Z" fill="#92B3DC"/>
<path d="M56.0666 62.7002H9.66663V100.7H56.0666V62.7002Z" fill="#92B3DC"/>
<path d="M56.0666 13.2998H9.66663V51.2998H56.0666V13.2998Z" fill="#92B3DC"/>
<path d="M73.4667 1.9C73.4667 0.85025 72.6015 0 71.5333 0H1.93333C0.865167 0 0 0.85025 0 1.9V114H116V110.2H73.4667V1.9ZM3.86667 110.2V3.8H69.6V110.2H3.86667Z" fill="#17479B"/>
<path d="M56.0666 11.4004H9.66661C8.59844 11.4004 7.73328 12.2506 7.73328 13.3004V51.3004C7.73328 52.3501 8.59844 53.2004 9.66661 53.2004H56.0666C57.1348 53.2004 57.9999 52.3501 57.9999 51.3004V13.3004C57.9999 12.2506 57.1348 11.4004 56.0666 11.4004ZM54.1333 49.4004H11.5999V15.2004H54.1333V49.4004Z" fill="#17479B"/>
<path d="M56.0666 60.7998H9.66661C8.59844 60.7998 7.73328 61.6501 7.73328 62.6998V100.7C7.73328 101.75 8.59844 102.6 9.66661 102.6H56.0666C57.1348 102.6 57.9999 101.75 57.9999 100.7V62.6998C57.9999 61.6501 57.1348 60.7998 56.0666 60.7998ZM54.1333 98.7998H11.5999V64.5998H54.1333V98.7998Z" fill="#17479B"/>
<path d="M79.2666 24.7H96.6666V30.4C96.6666 31.1458 97.1113 31.8203 97.8025 32.129C98.0514 32.243 98.3245 32.3 98.6 32.3C99.0688 32.3 99.5207 32.1338 99.8735 31.8298L115.34 18.5298C115.758 18.1688 116 17.6487 116 17.1C116 16.5514 115.758 16.0313 115.34 15.6703L99.8735 2.37028C99.3032 1.87866 98.4936 1.76228 97.8025 2.07103C97.1113 2.37978 96.669 3.05666 96.669 3.80241V9.50241H79.269C78.2009 9.50241 77.3357 10.3527 77.3357 11.4024V22.8024C77.3333 23.8498 78.1984 24.7 79.2666 24.7ZM81.1999 13.3H98.6C99.6681 13.3 100.533 12.4498 100.533 11.4V7.98003L111.13 17.1L100.533 26.22V22.8C100.533 21.7503 99.6681 20.9 98.6 20.9H81.1999V13.3Z" fill="#17479B"/>
<path d="M89.1073 73.1857C89.3925 73.34 89.7115 73.4208 90.0353 73.4208C90.6201 73.4208 91.1736 73.1619 91.5409 72.713L109.767 50.5923C110.236 50.0247 110.33 49.2409 110.009 48.5783C109.688 47.918 109.009 47.4977 108.264 47.4977H101.304L107.684 41.2419C108.238 40.698 108.402 39.8787 108.1 39.1685C107.798 38.456 107.09 37.9953 106.307 38H90.1948C89.4626 38 88.7931 38.4062 88.4669 39.0522L83.6336 48.5522C83.3339 49.1412 83.3677 49.8394 83.7181 50.3999C84.071 50.9604 84.6921 51.3024 85.3615 51.3024H88.1576L85.1029 55.974C84.7211 56.5583 84.6921 57.2993 85.0304 57.9097C85.3687 58.52 86.014 58.9 86.7221 58.9024H92.3166L88.2035 70.9175C87.9062 71.7868 88.2856 72.7439 89.1073 73.1857ZM90.2673 55.1L93.3244 50.4284C93.7086 49.8442 93.7352 49.1008 93.3945 48.4904C93.0537 47.88 92.4036 47.5 91.6956 47.5024H88.4911L91.3911 41.8024H101.638L95.2722 48.0582C94.7188 48.602 94.5545 49.419 94.8541 50.1315C95.1538 50.8417 95.8595 51.3024 96.6425 51.3024H104.207L95.2915 62.1324L96.8382 57.6175C97.0412 57.0357 96.947 56.3968 96.5845 55.898C96.222 55.3993 95.6371 55.1024 95.0136 55.1024H90.2673V55.1Z" fill="#17479B"/>
<path d="M114.067 83.6004H96.6667V77.9004C96.6667 77.1547 96.222 76.4802 95.5333 76.169C94.8421 75.8603 94.0325 75.9791 93.4622 76.4683L77.9955 89.7683C77.575 90.1317 77.3334 90.6518 77.3334 91.2004C77.3334 91.749 77.575 92.2692 77.9931 92.6302L93.4598 105.93C93.8126 106.232 94.2645 106.4 94.7334 106.4C95.0089 106.4 95.2819 106.343 95.5309 106.229C96.222 105.921 96.6643 105.246 96.6667 104.5V98.8004H114.067C115.135 98.8004 116 97.9502 116 96.9004V85.5004C116 84.4507 115.135 83.6004 114.067 83.6004ZM112.133 95.0004H94.7334C93.6652 95.0004 92.8 95.8507 92.8 96.9004V100.32L82.203 91.2004L92.8 82.0804V85.5004C92.8 86.5502 93.6652 87.4004 94.7334 87.4004H112.133V95.0004Z" fill="#17479B"/>
<path d="M67.6667 39.9004H63.8V74.1004H67.6667V39.9004Z" fill="#17479B"/>
</g>
<defs>
<clipPath id="clip0">
<rect width="116" height="114" fill="white"/>
</clipPath>
</defs>
</svg>
