<svg width="116" height="114" viewBox="0 0 116 114" fill="none" xmlns="http://www.w3.org/2000/svg">
<path d="M100.301 52.9718C98.6435 54.6011 98.1505 57.0521 99.0471 59.1801C99.9437 61.3104 102.056 62.6974 104.4 62.6998H110.2V51.2998H104.4C102.863 51.2998 101.386 51.9007 100.301 52.9718Z" fill="#92B3DC"/>
<path d="M5.80002 93.1004H71.5334C73.6649 93.0933 75.3928 91.3951 75.4 89.3004V5.70039C75.3928 3.60564 73.6649 1.90752 71.5334 1.90039H5.80002C3.66852 1.90752 1.9406 3.60564 1.93335 5.70039V89.3004C1.9406 91.3951 3.66852 93.0933 5.80002 93.1004ZM52.9927 76.7794C52.2749 77.5014 51.2914 77.9051 50.2667 77.9004H27.0667C24.9352 77.8933 23.2073 76.1951 23.2 74.1004C23.2169 72.008 24.9376 70.317 27.0667 70.3004H50.2667C52.3982 70.3075 54.1261 72.0056 54.1334 74.1004C54.1382 75.1098 53.7274 76.0764 52.9927 76.7794ZM46.4 19.0004H65.7334L54.1334 30.4004H67.6667L46.4 55.1004L52.2 38.0004H42.5334L48.3334 30.4004H40.6L46.4 19.0004ZM13.5333 39.9574V24.7004C13.5333 21.5535 16.1313 19.0004 19.3334 19.0004C22.5354 19.0004 25.1334 21.5535 25.1334 24.7004V39.9574C27.5621 41.7315 28.9952 44.5269 29 47.5004C29.0266 51.9749 25.8728 55.8604 21.4286 56.8318C16.9819 57.8008 12.4531 55.592 10.5512 51.526C8.64927 47.46 9.89143 42.6411 13.5333 39.9574Z" fill="#92B3DC"/>
<path d="M40.5999 32.2996H44.4666L40.9866 36.8596C40.5468 37.4367 40.4767 38.2062 40.8029 38.8499C41.1316 39.4935 41.7986 39.8996 42.5333 39.8996H49.5174L44.5681 54.4987C44.2757 55.3632 44.6479 56.3085 45.455 56.755C46.2622 57.2015 47.2796 57.021 47.8789 56.3251L69.1456 31.6251C69.6314 31.0599 69.7401 30.269 69.4235 29.5992C69.107 28.9271 68.423 28.4972 67.669 28.4996H58.8023L67.1011 20.3439C67.6521 19.8 67.8189 18.983 67.5192 18.2729C67.2195 17.5627 66.5139 17.0996 65.7333 17.0996H46.3999C45.6677 17.0996 44.9959 17.5057 44.6696 18.1517L38.8696 29.5517C38.5699 30.1407 38.6014 30.8414 38.9542 31.3995C39.307 31.96 39.9305 32.2996 40.5999 32.2996ZM47.5962 20.8996H61.0667L52.7679 29.0554C52.2169 29.5992 52.0501 30.4162 52.3474 31.1264C52.647 31.8365 53.3527 32.2996 54.1333 32.2996H63.4979L51.4073 46.3406L54.0318 38.6005C54.2275 38.021 54.1284 37.3845 53.7659 36.8905C53.4034 36.3941 52.821 36.102 52.1999 36.102H46.3999L49.8799 31.542C50.3198 30.9649 50.3899 30.1954 50.0636 29.5517C49.7349 28.9081 49.0679 28.502 48.3333 28.502H43.7271L47.5962 20.8996Z" fill="#17479B"/>
<path d="M85.0666 15.1998H88.9333V11.3998H92.7999V7.5998H88.9333V3.7998H85.0666V7.5998H81.2V11.3998H85.0666V15.1998Z" fill="#17479B"/>
<path d="M85.0666 41.8004H88.9333V38.0004H92.7999V34.2004H88.9333V30.4004H85.0666V34.2004H81.2V38.0004H85.0666V41.8004Z" fill="#17479B"/>
<path d="M92.8 20.8996V24.6996H96.6667V28.4996H100.533V24.6996H104.4V20.8996H100.533V17.0996H96.6667V20.8996H92.8Z" fill="#17479B"/>
<path d="M16.8634 58.6478C17.6706 58.8141 18.4922 58.8972 19.3163 58.8996C24.1231 58.9233 28.4465 56.0187 30.1696 51.6083C31.8927 47.1956 30.6577 42.1986 27.0666 39.0541V24.6996C27.0666 20.503 23.6035 17.0996 19.3332 17.0996C15.063 17.0996 11.5999 20.503 11.5999 24.6996V39.0541C8.35432 41.9017 7.01065 46.3002 8.1199 50.4351C9.23157 54.57 12.6101 57.743 16.8634 58.6478ZM21.2666 47.4996C21.2666 48.5493 20.4014 49.3996 19.3332 49.3996C18.2651 49.3996 17.3999 48.5493 17.3999 47.4996C17.3999 46.4498 18.2651 45.5996 19.3332 45.5996C20.4014 45.5996 21.2666 46.4498 21.2666 47.4996ZM14.6932 41.4647C15.179 41.1061 15.4666 40.5432 15.4666 39.9447V24.6996C15.4714 23.3482 16.2085 22.1014 17.3999 21.4269V42.1487C14.7367 43.0726 13.1393 45.7492 13.6154 48.4852C14.0939 51.2236 16.5082 53.2233 19.3332 53.2233C22.1583 53.2233 24.5726 51.2236 25.0511 48.4876C25.5296 45.7516 23.9297 43.075 21.2666 42.1511V21.4269C22.458 22.1014 23.1951 23.3482 23.1999 24.6996V39.9471C23.1999 40.5456 23.4875 41.1085 23.9732 41.4671C26.6412 43.4265 27.7312 46.8441 26.6799 49.9506C25.6287 53.0571 22.6731 55.1518 19.3429 55.1518C16.0127 55.1518 13.0572 53.0571 12.0059 49.9506C10.9547 46.8441 12.0446 43.4265 14.7126 41.4671L14.6932 41.4647Z" fill="#17479B"/>
<path d="M116 55.1V51.3H112.133C112.133 50.2502 111.268 49.4 110.2 49.4H104.4C100.884 49.4119 97.8194 51.7536 96.9422 55.1H87C85.9318 55.1 85.0667 55.9502 85.0667 57V110.2H40.6V104.5H42.5333C43.6015 104.5 44.4667 103.65 44.4667 102.6V95H59.9333V100.7C59.9333 101.75 60.7985 102.6 61.8667 102.6H69.6C70.6682 102.6 71.5333 101.75 71.5333 100.7V95C74.7354 95 77.3333 92.4469 77.3333 89.3V5.7C77.3333 2.55312 74.7354 0 71.5333 0H5.8C2.59792 0 0 2.55312 0 5.7V89.3C0 92.4469 2.59792 95 5.8 95V100.7C5.8 101.75 6.66517 102.6 7.73333 102.6H15.4667C16.5348 102.6 17.4 101.75 17.4 100.7V95H32.8667V102.6C32.8667 103.65 33.7318 104.5 34.8 104.5H36.7333V112.1C36.7333 113.15 37.5985 114 38.6667 114H87C88.0682 114 88.9333 113.15 88.9333 112.1V58.9H96.9422C97.8218 62.2464 100.886 64.5881 104.4 64.6H110.2C111.268 64.6 112.133 63.7497 112.133 62.7H116V58.9H112.133V55.1H116ZM67.6667 98.8H63.8V95H67.6667V98.8ZM3.86667 89.3V5.7C3.86667 4.65025 4.73183 3.8 5.8 3.8H71.5333C72.6015 3.8 73.4667 4.65025 73.4667 5.7V89.3C73.4667 90.3497 72.6015 91.2 71.5333 91.2H5.8C4.73183 91.2 3.86667 90.3497 3.86667 89.3ZM13.5333 98.8H9.66667V95H13.5333V98.8ZM40.6 95V100.7H36.7333V95H40.6ZM108.267 60.8H104.4C102.264 60.8 100.533 59.0995 100.533 57C100.533 54.9005 102.264 53.2 104.4 53.2H108.267V60.8Z" fill="#17479B"/>
<path d="M50.2667 68.4004H27.0667C23.8646 68.4004 21.2667 70.9535 21.2667 74.1004C21.2667 77.2473 23.8646 79.8004 27.0667 79.8004H50.2667C53.4688 79.8004 56.0667 77.2473 56.0667 74.1004C56.0667 70.9535 53.4688 68.4004 50.2667 68.4004ZM50.2667 76.0004H27.0667C25.9986 76.0004 25.1334 75.1501 25.1334 74.1004C25.1334 73.0506 25.9986 72.2004 27.0667 72.2004H50.2667C51.3349 72.2004 52.2001 73.0506 52.2001 74.1004C52.2001 75.1501 51.3349 76.0004 50.2667 76.0004Z" fill="#17479B"/>
</svg>
