<svg width="116" height="114" viewBox="0 0 116 114" fill="none" xmlns="http://www.w3.org/2000/svg">
<g clip-path="url(#clip0)">
<path d="M110.199 45.9551H5.80116C3.66744 45.9622 1.94014 47.6509 1.9353 49.7346V79.9753C1.94014 82.0614 3.66744 83.7501 5.80116 83.7572H110.201C112.335 83.7501 114.062 82.0614 114.067 79.9753V49.7369C114.06 47.6509 112.332 45.9622 110.199 45.9551ZM16.7044 76.4063L20.6477 66.7471H14.0748L18.0181 61.0778H15.1949L18.0955 55.4062H27.7625L21.9637 61.0778H31.1663L16.7044 76.4063ZM54.1341 70.5266H42.5341V59.1857H54.1341V70.5266V70.5266ZM71.5329 70.5266H59.9329V59.1857H71.5329V70.5266ZM88.9341 70.5266H77.3341V59.1857H88.9341V70.5266ZM106.333 70.5266H94.7329V59.1857H106.333V70.5266Z" fill="#92B3DC"/>
<path d="M110.199 112.11V100.77H104.4C101.195 100.77 98.5988 103.307 98.5988 106.441C98.5988 109.573 101.195 112.11 104.4 112.11H110.199Z" fill="#92B3DC"/>
<path d="M51.969 17.3746C49.6998 19.5883 49.6998 23.181 51.9641 25.3948C54.2285 27.6109 57.9032 27.6109 60.1676 25.3948C62.4319 23.1786 62.4319 19.5883 60.1627 17.3746C57.9008 15.1655 54.2333 15.1655 51.969 17.3746Z" fill="#92B3DC"/>
<path d="M110.199 44.0655H58V28.6755C60.6853 28.0038 62.7948 25.9769 63.5254 23.361C64.256 20.7476 63.4964 17.9496 61.532 16.0362C58.4742 13.1767 53.6576 13.1767 50.5973 16.0362C48.6232 17.9449 47.8539 20.7476 48.5869 23.3658C49.32 25.984 51.4367 28.0109 54.1317 28.6755V44.0655H5.80121C2.59579 44.0655 0 46.6033 0 49.7371V79.9779C0 83.1093 2.59579 85.6495 5.80121 85.6495H11.6V89.429C11.6 90.472 12.4636 91.3187 13.5329 91.3187H25.1329C26.1998 91.3187 27.0659 90.472 27.0659 89.429V85.6495H73.4659V106.441C73.4659 107.484 74.3295 108.331 75.3988 108.331H96.9392C97.8174 111.661 100.883 113.989 104.4 114.003H110.199C111.266 114.003 112.132 113.156 112.132 112.113H115.998V108.334H112.132V104.554H115.998V100.775H112.132C112.132 99.7315 111.266 98.8848 110.199 98.8848H104.4C100.883 98.8966 97.8198 101.226 96.9392 104.556H77.3317V85.6542H88.9317V89.4337C88.9317 90.4767 89.7954 91.3235 90.8647 91.3235H102.465C103.532 91.3235 104.398 90.4767 104.398 89.4337V85.6542H110.196C113.399 85.6542 115.998 83.1164 115.998 79.9826V49.7371C116 46.6033 113.404 44.0655 110.199 44.0655ZM52.1988 21.3838C52.1988 19.6738 53.3745 18.1743 55.0631 17.732C56.7541 17.2874 58.5371 18.0111 59.4128 19.4917C60.2886 20.9746 60.037 22.8454 58.7983 24.0564C57.2694 25.4849 54.8599 25.4849 53.331 24.0564C52.6052 23.3492 52.1964 22.3866 52.1988 21.3838ZM104.4 102.66H108.266V110.219H104.4C102.264 110.219 100.534 108.525 100.534 106.439C100.534 104.353 102.264 102.66 104.4 102.66ZM23.2 87.5392H15.4659V85.6495H23.2V87.5392ZM100.534 87.5392H92.8V85.6495H100.534V87.5392V87.5392ZM112.134 79.9779C112.134 81.0209 111.268 81.8676 110.201 81.8676H5.80121C4.73193 81.8676 3.86828 81.0209 3.86828 79.9779V49.7371C3.86828 48.6941 4.73193 47.8474 5.80121 47.8474H110.201C111.268 47.8474 112.134 48.6941 112.134 49.7371V79.9779V79.9779Z" fill="#17479B"/>
<path d="M31.1688 59.1858H26.6304L29.1295 56.7427C29.681 56.201 29.848 55.3898 29.548 54.6826C29.2504 53.9778 28.5464 53.5166 27.7626 53.5166H18.0955C17.3625 53.5166 16.6924 53.921 16.3658 54.562L13.4652 60.2336C13.2233 60.7019 13.1967 61.2506 13.3854 61.7426C13.5741 62.2369 13.9636 62.6271 14.4619 62.8282L12.4734 65.6876C12.0718 66.2671 12.0282 67.0145 12.3645 67.6341C12.7008 68.2538 13.3564 68.6393 14.0749 68.6393H17.7883L14.9095 75.7087C14.5611 76.5555 14.8853 77.5228 15.6739 78.01C16.4626 78.4949 17.4956 78.3624 18.127 77.6907L32.5937 62.3599C33.1139 61.8088 33.2518 61.007 32.9445 60.3211C32.6324 59.6305 31.9381 59.1858 31.1688 59.1858ZM22.3799 67.6034L22.4428 67.4497C22.6823 66.8678 22.6073 66.208 22.2469 65.6876C21.8864 65.1673 21.2889 64.8575 20.6454 64.8575H17.7254L19.6172 62.1399C19.9898 61.603 20.0575 60.9171 19.7914 60.3235C19.5277 59.7275 18.9689 59.3088 18.3133 59.2095L19.2906 57.2961H23.096L20.5946 59.7393C20.0406 60.2809 19.8761 61.0945 20.1761 61.7993C20.4736 62.5041 21.18 62.9653 21.9614 62.9653H26.7538L22.3799 67.6034Z" fill="#17479B"/>
<path d="M54.1341 57.2959H42.5341C41.4648 57.2959 40.6012 58.1426 40.6012 59.1856V70.5265C40.6012 71.5695 41.4648 72.4162 42.5341 72.4162H54.1341C55.201 72.4162 56.0671 71.5695 56.0671 70.5265V59.1856C56.0671 58.1426 55.201 57.2959 54.1341 57.2959ZM52.1988 68.6368H44.4671V61.0778H52.1988V68.6368Z" fill="#17479B"/>
<path d="M71.5329 57.2959H59.9329C58.8637 57.2959 58 58.1426 58 59.1856V70.5265C58 71.5695 58.8637 72.4162 59.9329 72.4162H71.5329C72.5998 72.4162 73.4659 71.5695 73.4659 70.5265V59.1856C73.4659 58.1426 72.5998 57.2959 71.5329 57.2959ZM69.6 68.6368H61.8659V61.0778H69.6V68.6368Z" fill="#17479B"/>
<path d="M88.9342 57.2959H77.3342C76.2649 57.2959 75.4012 58.1426 75.4012 59.1856V70.5265C75.4012 71.5695 76.2649 72.4162 77.3342 72.4162H88.9342C90.001 72.4162 90.8671 71.5695 90.8671 70.5265V59.1856C90.8671 58.1426 90.001 57.2959 88.9342 57.2959ZM86.9988 68.6368H79.2647V61.0778H86.9988V68.6368Z" fill="#17479B"/>
<path d="M106.333 57.2959H94.733C93.6637 57.2959 92.8 58.1426 92.8 59.1856V70.5265C92.8 71.5695 93.6637 72.4162 94.733 72.4162H106.333C107.4 72.4162 108.266 71.5695 108.266 70.5265V59.1856C108.266 58.1426 107.4 57.2959 106.333 57.2959ZM104.4 68.6368H96.6659V61.0778H104.4V68.6368V68.6368Z" fill="#17479B"/>
<path d="M36.9266 40.0963C26.3717 29.7559 26.3717 13.0107 36.9266 2.67261L34.1929 0C22.1308 11.8163 22.1308 30.9503 34.1929 42.7666L36.9266 40.0963Z" fill="#17479B"/>
<path d="M75.2076 40.0959L77.9413 42.7685C90.0058 30.9522 90.0058 11.8182 77.9413 0.00195312L75.2076 2.6722C85.7601 13.0103 85.7601 29.7531 75.2076 40.0959Z" fill="#17479B"/>
<path d="M39.6625 37.4218L42.3962 34.7492C34.858 27.3628 34.858 15.4047 42.3962 8.01832L39.6625 5.3457C30.6148 14.2079 30.6148 28.5596 39.6625 37.4218Z" fill="#17479B"/>
<path d="M69.7378 34.7492L72.4715 37.4218C81.5168 28.5596 81.5168 14.2103 72.4715 5.3457L69.7378 8.01832C77.276 15.4047 77.276 27.3628 69.7378 34.7492Z" fill="#17479B"/>
<path d="M45.1299 32.0761L47.8636 29.4035C43.3397 24.9712 43.3397 17.7953 47.8636 13.363L45.1299 10.6904C39.0965 16.5986 39.0965 26.1656 45.1299 32.0761Z" fill="#17479B"/>
<path d="M67.0017 32.0761C73.0327 26.1656 73.0327 16.5986 67.0017 10.6904L64.2681 13.363C68.7919 17.7953 68.7919 24.9712 64.2681 29.4035L67.0017 32.0761Z" fill="#17479B"/>
<path d="M96.6659 11.9317H100.532V8.15219H104.398V4.37032H100.532V0.59082H96.6659V4.37032H92.8V8.14982H96.6659V11.9317V11.9317Z" fill="#17479B"/>
<path d="M112.134 17.6041V13.8223H108.266V17.6018H104.4V21.3813H108.266V25.1608H112.134V21.3836H116V17.6041H112.134Z" fill="#17479B"/>
<path d="M15.466 11.9317H19.3318V8.15219H23.2001V4.37032H19.3342V0.59082H15.466V4.37032H11.6001V8.14982H15.466V11.9317V11.9317Z" fill="#17479B"/>
<path d="M3.86586 25.1631H7.73172V21.3836H11.5976V17.6041H7.73414V13.8223H3.86586V17.6018H0V21.3813H3.86586V25.1631Z" fill="#17479B"/>
</g>
<defs>
<clipPath id="clip0">
<rect width="116" height="114" fill="white"/>
</clipPath>
</defs>
</svg>
