<svg width="116" height="114" viewBox="0 0 116 114" fill="none" xmlns="http://www.w3.org/2000/svg">
<g clip-path="url(#clip0)">
<path d="M110.2 93.0996H87C84.8685 93.1067 83.1406 94.8049 83.1333 96.8996V108.3C83.1406 110.394 84.8685 112.092 87 112.1H110.2C112.331 112.092 114.059 110.394 114.067 108.3V96.8996C114.059 94.8049 112.331 93.1067 110.2 93.0996Z" fill="#92B3DC"/>
<path d="M81.1226 9.5L72.4226 26.6H84.1773L75.4773 38H89.9773L81.2773 63.65L113.177 26.6H92.7226L110.123 9.5H81.1226Z" fill="#92B3DC"/>
<path d="M48.3334 22.8C48.3334 30.1459 42.2748 36.1 34.8001 36.1C27.3253 36.1 21.2667 30.1459 21.2667 22.8C21.2667 15.4541 27.3253 9.5 34.8001 9.5C42.2748 9.5 48.3334 15.4541 48.3334 22.8Z" fill="#92B3DC"/>
<path d="M44.4666 100.7L42.5333 93.0996H27.0666L25.1333 100.7H44.4666Z" fill="#92B3DC"/>
<path d="M34.8 37.9996C43.343 37.9996 50.2667 31.1952 50.2667 22.7996C50.2667 14.404 43.343 7.59961 34.8 7.59961C26.2571 7.59961 19.3334 14.404 19.3334 22.7996C19.343 31.1905 26.262 37.9901 34.8 37.9996ZM34.8 11.3996C41.2066 11.3996 46.4 16.5035 46.4 22.7996C46.4 29.0957 41.2066 34.1996 34.8 34.1996C28.3935 34.1996 23.2 29.0957 23.2 22.7996C23.2073 16.5059 28.3959 11.4067 34.8 11.3996Z" fill="#17479B"/>
<path d="M72.4299 28.5H80.3034L73.9234 36.86C73.4836 37.4371 73.4135 38.2066 73.7421 38.8503C74.0708 39.4939 74.7378 39.9 75.4725 39.9H87.2876L79.4382 63.0491C79.1458 63.9136 79.518 64.8589 80.3251 65.3054C81.1323 65.7519 82.1497 65.5714 82.7466 64.8755L114.647 27.8255C115.135 27.2603 115.241 26.4694 114.925 25.7973C114.608 25.1252 113.922 24.6953 113.17 24.6977H97.3965L111.495 10.8419C112.049 10.298 112.213 9.48103 111.913 8.77091C111.614 8.06078 110.908 7.59766 110.127 7.59766H81.1275C80.3952 7.59766 79.7234 8.00378 79.3971 8.64978L70.6971 25.7498C70.3975 26.3388 70.4289 27.0394 70.7841 27.5975C71.137 28.1604 71.7605 28.5 72.4299 28.5ZM82.3261 11.4H105.463L91.3645 25.2558C90.8111 25.7997 90.6467 26.6167 90.9464 27.3268C91.2436 28.0369 91.9493 28.5 92.7323 28.5H109.004L86.2822 54.891L91.8067 38.6009C92.0025 38.0214 91.9034 37.3849 91.5409 36.8909C91.1784 36.3945 90.596 36.1024 89.9749 36.1024H79.3416L85.7216 27.7424C86.1614 27.1653 86.2315 26.3958 85.9052 25.7522C85.5766 25.1085 84.9071 24.7024 84.1749 24.7024H75.5643L82.3261 11.4Z" fill="#17479B"/>
<path d="M110.2 91.2H108.267V87.4H104.4V91.2H92.8V87.4H88.9333V91.2H87C84.5519 91.2095 82.3721 92.7319 81.5552 95H58C56.9318 95 56.0667 95.8503 56.0667 96.9V104.5C56.0667 105.55 56.9318 106.4 58 106.4H69.6V110.2H36.7333V102.6H44.4667C45.0612 102.6 45.6242 102.329 45.9916 101.869C46.3589 101.408 46.487 100.804 46.342 100.237L44.4087 92.6369C44.1936 91.7914 43.4202 91.1976 42.5333 91.1976H36.7333V89.2976H63.8C67.0021 89.2976 69.6 86.7445 69.6 83.5976V53.2C69.6 50.0531 67.0021 47.5 63.8 47.5H5.8C2.59792 47.5 0 50.0531 0 53.2V83.6C0 86.7469 2.59792 89.3 5.8 89.3H32.8667V91.2H27.0667C26.1797 91.2 25.4064 91.7938 25.1913 92.6393L23.258 100.239C23.113 100.807 23.2435 101.408 23.6084 101.871C23.9757 102.332 24.5364 102.602 25.1333 102.602H32.8667V112.102C32.8667 113.152 33.7318 114.002 34.8 114.002H71.5333C72.6015 114.002 73.4667 113.152 73.4667 112.102V104.502C73.4667 103.453 72.6015 102.602 71.5333 102.602H59.9333V98.8024H81.2V108.302C81.2 111.449 83.7979 114.002 87 114.002H110.2C113.402 114.002 116 111.449 116 108.302V96.9024C116 93.7531 113.402 91.2 110.2 91.2ZM54.1333 70.3H65.7333V76H54.1333V70.3ZM50.2667 76H36.7333V70.3H50.2667V76ZM54.1333 66.5V60.8H65.7333V66.5H54.1333ZM50.2667 66.5H36.7333V60.8H50.2667V66.5ZM36.7333 57V51.3H50.2667V57H36.7333ZM32.8667 57H21.2667V51.3H32.8667V57ZM32.8667 60.8V66.5H21.2667V60.8H32.8667ZM17.4 66.5H3.86667V60.8H17.4V66.5ZM17.4 70.3V76H3.86667V70.3H17.4ZM21.2667 70.3H32.8667V76H21.2667V70.3ZM32.8667 79.8V85.5H21.2667V79.8H32.8667ZM36.7333 79.8H50.2667V85.5H36.7333V79.8ZM63.8 85.5H54.1333V79.8H65.7333V83.6C65.7333 84.6498 64.8682 85.5 63.8 85.5ZM65.7333 53.2V57H54.1333V51.3H63.8C64.8682 51.3 65.7333 52.1503 65.7333 53.2ZM5.8 51.3H17.4V57H3.86667V53.2C3.86667 52.1503 4.73183 51.3 5.8 51.3ZM3.86667 83.6V79.8H17.4V85.5H5.8C4.73183 85.5 3.86667 84.6498 3.86667 83.6ZM28.5771 95H41.0253L41.992 98.8H27.6104L28.5771 95ZM112.133 108.3C112.133 109.35 111.268 110.2 110.2 110.2H87C85.9318 110.2 85.0667 109.35 85.0667 108.3V96.9C85.0667 95.8503 85.9318 95 87 95H110.2C111.268 95 112.133 95.8503 112.133 96.9V108.3Z" fill="#17479B"/>
<path d="M108.267 96.9004H104.4V98.8004H102.467V102.6H104.4V104.5H108.267V102.6H110.2V98.8004H108.267V96.9004Z" fill="#17479B"/>
<path d="M94.7333 98.7998H87V102.6H94.7333V98.7998Z" fill="#17479B"/>
<path d="M36.7334 0H32.8667V5.7H36.7334V0Z" fill="#17479B"/>
<path d="M36.7334 39.9004H32.8667V45.6004H36.7334V39.9004Z" fill="#17479B"/>
<path d="M17.028 8.02011L19.7612 5.33398L23.8623 9.36436L21.1266 12.0505L17.028 8.02011Z" fill="#17479B"/>
<path d="M17.4 20.9004H11.6V24.7004H17.4V20.9004Z" fill="#17479B"/>
<path d="M17.028 37.5792L21.129 33.5488L23.8647 36.235L19.7636 40.2653L17.028 37.5792Z" fill="#17479B"/>
<path d="M45.7402 36.235L48.4735 33.5488L52.5746 37.5792L49.8389 40.2653L45.7402 36.235Z" fill="#17479B"/>
<path d="M58 20.9004H52.2V24.7004H58V20.9004Z" fill="#17479B"/>
<path d="M45.7378 9.36436L49.8389 5.33398L52.5721 8.02248L48.471 12.0529L45.7378 9.36436Z" fill="#17479B"/>
</g>
<defs>
<clipPath id="clip0">
<rect width="116" height="114" fill="white"/>
</clipPath>
</defs>
</svg>
