<svg width="116" height="114" viewBox="0 0 116 114" fill="none" xmlns="http://www.w3.org/2000/svg">
<g clip-path="url(#clip0)">
<path d="M102.467 15.2023V112.1H114.067V1.90234H102.467V15.2023Z" fill="#92B3DC"/>
<path d="M77.3334 79.7998L61.8667 93.0998L77.3334 106.4V98.7998H96.6667V87.3998H77.3334V79.7998Z" fill="#92B3DC"/>
<path d="M81.2 9.50234H61.8667V20.9023H81.2V28.5023L96.6667 15.2023L81.2 1.90234V9.50234Z" fill="#92B3DC"/>
<path d="M70.8566 39.9004L66.0233 49.4004H72.3646L67.396 57.0004H75.6706L70.702 71.5164L88.9333 49.4004H77.314L86.9806 39.9004H70.8566Z" fill="#92B3DC"/>
<path d="M52.2 34.2952H52.1807C51.8689 34.2358 51.5524 34.2026 51.2334 34.2002H1.93335V43.7002H51.2334C51.5572 43.6978 51.881 43.6669 52.2 43.6052C54.4524 43.1563 56.0715 41.2088 56.0715 38.9502C56.0715 36.6916 54.4524 34.7464 52.2 34.2952Z" fill="#92B3DC"/>
<path d="M52.2 55.1946H52.1807C51.8689 55.1352 51.5524 55.102 51.2334 55.0996H1.93335V64.5996H51.2334C51.5572 64.5972 51.881 64.5664 52.2 64.5046C54.4524 64.0557 56.0715 62.1082 56.0715 59.8496C56.0715 57.591 54.4524 55.6459 52.2 55.1946Z" fill="#92B3DC"/>
<path d="M52.2 76.095H52.1807C51.8689 76.0356 51.5524 76.0024 51.2334 76H1.93335V85.5H51.2334C51.5572 85.4976 51.881 85.4668 52.2 85.405C54.4524 84.9561 56.0715 83.0086 56.0715 80.75C56.0715 78.4914 54.4524 76.5462 52.2 76.095Z" fill="#92B3DC"/>
<path d="M52.2 96.9954H52.1807C51.8689 96.936 51.5524 96.9028 51.2334 96.9004H1.93335V106.4H51.2334C51.5572 106.398 51.881 106.367 52.2 106.305C54.4524 105.857 56.0715 103.909 56.0715 101.65C56.0715 99.3918 54.4524 97.4443 52.2 96.9954Z" fill="#92B3DC"/>
<path d="M52.1807 13.3977C51.8689 13.3384 51.5523 13.3051 51.2333 13.3027H1.93335V22.8027H51.2333C53.7128 22.7956 55.7839 20.9455 56.028 18.5206C56.2721 16.0957 54.6118 13.8822 52.1807 13.3977Z" fill="#92B3DC"/>
<path d="M114.067 0.00195312H102.467C101.398 0.00195312 100.533 0.852203 100.533 1.90195V110.2H54.1333V107.644C54.8342 107.326 55.4722 106.889 56.0232 106.357C57.5771 104.832 58.2779 102.659 57.9009 100.531C57.5263 98.4053 56.1198 96.5908 54.1333 95.6717V86.7417C54.8342 86.4235 55.4722 85.9865 56.0232 85.4545C57.5747 83.9273 58.2755 81.7566 57.8985 79.631C57.5215 77.5053 56.1174 75.6932 54.1333 74.7717V65.8417C54.8342 65.5235 55.4722 65.0865 56.0232 64.5545C57.5747 63.0273 58.2755 60.8566 57.8985 58.731C57.5215 56.6053 56.1174 54.7932 54.1333 53.8717V44.9417C54.8342 44.6235 55.4722 44.1865 56.0232 43.6545C57.5747 42.1273 58.2755 39.9566 57.8985 37.831C57.5215 35.7053 56.1174 33.8932 54.1333 32.9717V24.0417C56.4944 22.954 58.0048 20.6217 58.0048 18.0567C58.0048 15.4917 56.4968 13.1595 54.1333 12.0717V1.90195C54.1333 0.852203 53.2682 0.00195312 52.2 0.00195312H40.6C39.5318 0.00195312 38.6667 0.852203 38.6667 1.90195V11.402H34.8V1.90195C34.8 0.852203 33.9348 0.00195312 32.8667 0.00195312H21.2667C20.1985 0.00195312 19.3333 0.852203 19.3333 1.90195V11.402H15.4667V1.90195C15.4667 0.852203 14.6015 0.00195312 13.5333 0.00195312H1.93333C0.865167 0.00195312 0 0.852203 0 1.90195V114H116V1.90195C116 0.852203 115.135 0.00195312 114.067 0.00195312ZM53.2875 103.668C52.8912 104.058 52.3885 104.326 51.8423 104.438C51.6417 104.476 51.4387 104.497 51.2357 104.5H3.86908V98.7996H51.2357C51.4291 98.802 51.6248 98.821 51.8157 98.8566C52.8646 99.0656 53.7104 99.8232 54.0173 100.83C54.3242 101.837 54.0439 102.927 53.2851 103.668H53.2875ZM38.6667 108.3V110.2H34.8V108.3H38.6667ZM19.3357 108.3V110.2H15.4691V108.3H19.3357ZM3.86908 87.3996H11.6024V94.9996H3.86908V87.3996V87.3996ZM50.2667 94.9996H42.5333V87.3996H50.2667V94.9996ZM38.6667 94.9996H34.8V87.3996H38.6667V94.9996ZM30.9333 94.9996H23.2V87.3996H30.9333V94.9996ZM19.3357 94.9996H15.4691V87.3996H19.3357V94.9996ZM53.2875 82.7707C52.8912 83.1602 52.3885 83.4262 51.8423 83.5402C51.6417 83.5782 51.4387 83.5996 51.2357 83.602H3.86908V77.902H51.2357C51.4291 77.9043 51.6248 77.9233 51.8157 77.959C52.8646 78.168 53.7104 78.9256 54.0173 79.9326C54.3242 80.9396 54.0439 82.0297 53.2851 82.7707H53.2875ZM3.86908 66.4996H11.6024V74.0996H3.86908V66.4996V66.4996ZM50.2667 74.0996H42.5333V66.4996H50.2667V74.0996ZM38.6667 74.0996H34.8V66.4996H38.6667V74.0996ZM30.9333 74.0996H23.2V66.4996H30.9333V74.0996ZM19.3357 74.0996H15.4691V66.4996H19.3357V74.0996ZM53.2875 61.8707C52.8912 62.2602 52.3885 62.5262 51.8423 62.6402C51.6417 62.6782 51.4387 62.6996 51.2357 62.702H3.86908V57.002H51.2357C51.4291 57.0043 51.6248 57.0233 51.8157 57.059C52.8646 57.268 53.7104 58.0256 54.0173 59.0326C54.3242 60.0396 54.0439 61.1297 53.2851 61.8707H53.2875ZM3.86908 45.5996H11.6024V53.1996H3.86908V45.5996V45.5996ZM50.2667 53.1996H42.5333V45.5996H50.2667V53.1996ZM38.6667 53.1996H34.8V45.5996H38.6667V53.1996ZM30.9333 53.1996H23.2V45.5996H30.9333V53.1996ZM19.3357 53.1996H15.4691V45.5996H19.3357V53.1996ZM53.2875 40.9707C52.8912 41.3602 52.3885 41.6286 51.8423 41.7402C51.6417 41.7782 51.4387 41.7996 51.2357 41.802H3.86908V36.102H51.2357C51.4291 36.1043 51.6248 36.1233 51.8157 36.159C52.8646 36.368 53.7104 37.1256 54.0173 38.1326C54.3242 39.1396 54.0439 40.2297 53.2851 40.9707H53.2875ZM3.86908 24.702H11.6024V32.302H3.86908V24.702V24.702ZM50.2667 32.302H42.5333V24.702H50.2667V32.302ZM38.6667 32.302H34.8V24.702H38.6667V32.302ZM30.9333 32.302H23.2V24.702H30.9333V32.302ZM19.3357 32.302H15.4691V24.702H19.3357V32.302ZM51.2333 20.902H3.86667V15.202H51.2333C52.8332 15.202 54.1333 16.4773 54.1333 18.052C54.1333 19.6242 52.8356 20.902 51.2333 20.902ZM42.5333 3.80195H50.2667V11.402H42.5333V3.80195ZM23.2024 3.80195H30.9357V11.402H23.2024V3.80195V3.80195ZM11.6024 3.80195V11.402H3.86908V3.80195H11.6024V3.80195ZM3.86908 110.2V108.3H11.6024V110.2H3.86908ZM23.2024 110.2V108.3H30.9357V110.2H23.2024ZM42.5333 110.2V108.3H50.2667V110.2H42.5333ZM104.4 110.2V3.80195H112.133V110.2H104.4Z" fill="#17479B"/>
<path d="M61.8667 22.8023H79.2667V28.5023C79.2667 29.248 79.7114 29.9225 80.4025 30.2313C80.6539 30.3453 80.9245 30.4023 81.2 30.4023C81.6689 30.4023 82.1208 30.236 82.4736 29.932L97.9403 16.632C98.3608 16.271 98.6 15.7509 98.6 15.2023C98.6 14.6536 98.3584 14.1335 97.9403 13.7725L82.4736 0.472507C81.9033 -0.0191182 81.0913 -0.137868 80.4001 0.170882C79.7089 0.479632 79.2643 1.15651 79.2667 1.90226V7.60226H61.8667C60.7985 7.60226 59.9333 8.45251 59.9333 9.50226V20.9023C59.9333 21.952 60.8009 22.8023 61.8667 22.8023ZM63.8 11.4023H81.2C82.2682 11.4023 83.1334 10.552 83.1334 9.50226V6.07988L93.728 15.1999L83.1334 24.3223V20.9023C83.1334 19.8525 82.2682 19.0023 81.2 19.0023H63.8V11.4023Z" fill="#17479B"/>
<path d="M76.0599 107.829C76.4127 108.131 76.867 108.3 77.3334 108.3C77.6089 108.3 77.882 108.24 78.1309 108.129C78.8221 107.822 79.2644 107.145 79.2668 106.4V100.7H96.6668C97.7349 100.7 98.6001 99.8494 98.6001 98.7997V87.3997C98.6001 86.35 97.7349 85.4997 96.6668 85.4997H79.2668V79.7997C79.2668 79.054 78.8245 78.3747 78.1309 78.0683C77.4398 77.7596 76.6302 77.8783 76.0574 78.37L60.5908 91.67C60.1703 92.031 59.931 92.5535 59.931 93.0997C59.931 93.6483 60.1727 94.1685 60.5908 94.5295L76.0599 107.829ZM75.4001 83.9797V87.3997C75.4001 88.4495 76.2653 89.2997 77.3334 89.2997H94.7334V96.8997H77.3334C76.2653 96.8997 75.4001 97.75 75.4001 98.7997V102.22L64.8054 93.0997L75.4001 83.9797Z" fill="#17479B"/>
<path d="M69.7715 73.188C70.5932 73.6321 71.6179 73.4326 72.2075 72.7178L90.434 50.597C90.9029 50.027 90.9971 49.2457 90.6757 48.583C90.3543 47.9228 89.6752 47.5 88.9309 47.5H81.9709L88.3509 41.2443C88.9043 40.7004 89.071 39.8787 88.769 39.1685C88.4669 38.4584 87.7588 37.9977 86.9758 38H70.8663C70.1292 37.9953 69.455 38.4038 69.1263 39.0498L64.293 48.5498C63.9933 49.1412 64.0247 49.8418 64.38 50.4023C64.7352 50.9628 65.3611 51.3024 66.033 51.3H68.8266L65.7695 55.9717C65.3877 56.5559 65.3611 57.2969 65.6971 57.9073C66.0354 58.5177 66.6831 58.8977 67.3887 58.9H72.9833L68.875 70.9151C68.5753 71.7868 68.9523 72.7415 69.7715 73.188ZM70.934 55.1L73.9911 50.4284C74.3729 49.8442 74.4019 49.1008 74.0611 48.4904C73.7228 47.88 73.0727 47.5 72.3646 47.5H69.1625L72.0625 41.8H82.3092L75.9437 48.0558C75.3903 48.5997 75.226 49.4167 75.5256 50.1268C75.8253 50.8369 76.531 51.3 77.3115 51.3H84.8757L75.9606 62.13L77.5073 57.6152C77.7103 57.0357 77.6136 56.3944 77.2511 55.8957C76.8886 55.3969 76.3014 55.1 75.6779 55.1H70.934V55.1Z" fill="#17479B"/>
</g>
<defs>
<clipPath id="clip0">
<rect width="116" height="114" fill="white"/>
</clipPath>
</defs>
</svg>
