<svg width="116" height="114" viewBox="0 0 116 114" fill="none" xmlns="http://www.w3.org/2000/svg">
<path d="M100.301 64.3722C98.6435 66.0014 98.1505 68.4524 99.0471 70.5804C99.9437 72.7084 102.056 74.0978 104.4 74.1002H110.2V62.7002H104.4C102.863 62.7002 101.386 63.3011 100.301 64.3722Z" fill="#92B3DC"/>
<path d="M88.9333 20.9004V5.70039C88.9261 3.60564 87.1981 1.90752 85.0666 1.90039H30.9333C28.8018 1.90752 27.0739 3.60564 27.0667 5.70039V20.9004H88.9333Z" fill="#92B3DC"/>
<path d="M69.6 72.2002H57.9807L67.6474 62.7002H51.5233L46.69 72.2002H53.0313L48.0627 79.8002H56.3373L51.3687 94.3162L69.6 72.2002Z" fill="#92B3DC"/>
<path d="M58 53.1996C62.2702 53.1996 65.7333 49.7962 65.7333 45.5996C65.7333 41.4006 58 26.5996 58 26.5996C58 26.5996 50.2667 41.4006 50.2667 45.5996C50.2667 49.7962 53.7297 53.1996 58 53.1996Z" fill="#92B3DC"/>
<path d="M40.6 34.2002H34.8V45.6002H40.6V34.2002Z" fill="#92B3DC"/>
<path d="M27.0666 34.2002H9.66663V45.6002H27.0666V34.2002Z" fill="#92B3DC"/>
<path d="M46.6996 74.1004H49.4933L46.4362 78.772C46.0544 79.3563 46.0278 80.0973 46.3637 80.7077C46.7021 81.318 47.3497 81.698 48.0554 81.7004H53.65L49.5368 93.7155C49.2396 94.5872 49.619 95.5443 50.4382 95.986C51.2575 96.4278 52.2821 96.2307 52.8718 95.5158L71.0983 73.395C71.5671 72.8274 71.6614 72.0436 71.34 71.381C71.0185 70.7208 70.3395 70.3004 69.5951 70.3004H62.6351L69.0151 64.0446C69.5685 63.5008 69.7329 62.6814 69.4308 61.9713C69.1287 61.2588 68.4206 60.798 67.6376 60.8028H51.5281C50.7959 60.8028 50.1265 61.2089 49.7978 61.8549L44.9645 71.3549C44.6648 71.9439 44.6962 72.6445 45.0515 73.2027C45.4067 73.7608 46.0302 74.1004 46.6996 74.1004ZM52.7268 64.6004H62.9735L56.6055 70.8561C56.0545 71.4 55.8878 72.217 56.1875 72.9272C56.4871 73.6373 57.1928 74.1004 57.9734 74.098H65.5375L56.6225 84.928L58.1691 80.4132C58.3721 79.8313 58.2755 79.19 57.913 78.6913C57.5505 78.1925 56.9656 77.8957 56.3397 77.8957H51.5958L54.6529 73.224C55.0347 72.6398 55.0613 71.8964 54.723 71.286C54.3846 70.6756 53.7346 70.2957 53.0265 70.2957H49.8244L52.7268 64.6004Z" fill="#17479B"/>
<path d="M110.2 60.8H104.4C100.884 60.8142 97.8194 63.1536 96.9422 66.5H90.8667V39.9C90.8667 38.8502 90.0015 38 88.9333 38H77.3333V22.8H88.9333C90.0015 22.8 90.8667 21.9497 90.8667 20.9V5.7C90.8667 2.55312 88.2687 0 85.0667 0H30.9333C27.7312 0 25.1333 2.55312 25.1333 5.7V20.9C25.1333 21.9497 25.9985 22.8 27.0667 22.8H38.6667V32.3H36.7333C36.7333 29.1531 34.1354 26.6 30.9333 26.6C27.7312 26.6 25.1333 29.1531 25.1333 32.3H11.6C11.6 29.1531 9.00208 26.6 5.8 26.6H1.93333C0.865167 26.6 0 27.4502 0 28.5V51.3C0 52.3497 0.865167 53.2 1.93333 53.2H5.8C9.00208 53.2 11.6 50.6469 11.6 47.5H25.1333C25.1333 50.6469 27.7312 53.2 30.9333 53.2C34.1354 53.2 36.7333 50.6469 36.7333 47.5H38.6667V95C38.6667 105.493 47.3232 114 58 114C68.6768 114 77.3333 105.493 77.3333 95V41.8H87V68.4C87 69.4497 87.8652 70.3 88.9333 70.3H96.9422C97.8218 73.6464 100.886 75.9881 104.4 76H110.2C111.268 76 112.133 75.1497 112.133 74.1H116V70.3H112.133V66.5H116V62.7H112.133C112.133 61.6502 111.268 60.8 110.2 60.8ZM29 5.7C29 4.65025 29.8652 3.8 30.9333 3.8H85.0667C86.1348 3.8 87 4.65025 87 5.7V19H29V5.7ZM7.73333 47.5C7.73333 48.5497 6.86817 49.4 5.8 49.4H3.86667V30.4H5.8C6.86817 30.4 7.73333 31.2502 7.73333 32.3V47.5ZM11.6 43.7V36.1H25.1333V43.7H11.6ZM32.8667 47.5C32.8667 48.5497 32.0015 49.4 30.9333 49.4C29.8652 49.4 29 48.5497 29 47.5V32.3C29 31.2502 29.8652 30.4 30.9333 30.4C32.0015 30.4 32.8667 31.2502 32.8667 32.3V47.5ZM36.7333 43.7V36.1H38.6667V43.7H36.7333ZM73.4667 95C73.4667 103.396 66.5429 110.2 58 110.2C49.4571 110.2 42.5333 103.396 42.5333 95V22.8H73.4667V95ZM108.267 72.2H104.4C102.264 72.2 100.533 70.4995 100.533 68.4C100.533 66.3005 102.264 64.6 104.4 64.6H108.267V72.2Z" fill="#17479B"/>
<path d="M58 55.1001C63.336 55.0929 67.6595 50.8441 67.6667 45.6001C67.6667 41.1683 61.0475 28.2721 59.7207 25.7308C59.3534 25.1418 58.7033 24.7832 58 24.7832C57.2968 24.7832 56.6467 25.1418 56.2794 25.7308C54.9526 28.2721 48.3334 41.1683 48.3334 45.6001C48.3406 50.8441 52.664 55.0929 58 55.1001ZM58 30.8656C60.7067 36.3756 63.8 43.3723 63.8 45.6001C63.8 48.7469 61.2021 51.3001 58 51.3001C54.798 51.3001 52.2 48.7469 52.2 45.6001C52.2 43.3723 55.2934 36.3827 58 30.8656Z" fill="#17479B"/>
<path d="M96.6667 11.4H100.533V7.6H104.4V3.8H100.533V0H96.6667V3.8H92.8V7.6H96.6667V11.4Z" fill="#17479B"/>
<path d="M112.133 13.3V9.5H108.267V13.3H104.4V17.1H108.267V20.9H112.133V17.1H116V13.3H112.133Z" fill="#17479B"/>
<path d="M15.4667 11.4H19.3334V7.6H23.2V3.8H19.3334V0H15.4667V3.8H11.6V7.6H15.4667V11.4Z" fill="#17479B"/>
<path d="M3.86667 20.9H7.73333V17.1H11.6V13.3H7.73333V9.5H3.86667V13.3H0V17.1H3.86667V20.9Z" fill="#17479B"/>
</svg>
